<?xml version="1.0" encoding="UTF-8" standalone="no"?>
<svg width="54px" height="54px" viewBox="0 0 54 54" version="1.1" xmlns="http://www.w3.org/2000/svg" xmlns:xlink="http://www.w3.org/1999/xlink" xmlns:sketch="http://www.bohemiancoding.com/sketch/ns">
    <!-- Generator: Sketch 3.2.2 (9983) - http://www.bohemiancoding.com/sketch -->
    <title>admisiones-examen</title>
    <desc>Created with Sketch.</desc>
    <defs></defs>
    <g id="Page-1" stroke="none" stroke-width="1" fill="none" fill-rule="evenodd" sketch:type="MSPage">
        <g id="Desktop" sketch:type="MSArtboardGroup" transform="translate(-56.000000, -398.000000)" fill="#666666">
            <g id="admisiones-examen" sketch:type="MSLayerGroup" transform="translate(56.000000, 398.000000)">
                <path d="M49.4254466,7.90455339 L49.7789422,8.25804895 L50.1324955,7.90461122 L53.1894955,4.84861122 L52.4825045,4.14138878 L49.4255045,7.19738878 L50.1325534,7.19744661 L43.2225534,0.287446609 L42.5154466,0.994553391 L49.4254466,7.90455339 Z" id="Shape" sketch:type="MSShapeGroup"></path>
                <path d="M16.183214,22.9596934 L16.039,23.1057462 L16.039,23.311 L16.039,32.193 L16.039,32.693 L16.539,32.693 L24.562,32.693 L24.7690812,32.693 L24.9155225,32.5465842 L47.8415225,9.62458423 L48.1951376,9.27103085 L47.8415534,8.91744661 L39.2445534,0.320446609 L38.5374466,1.02755339 L47.1344466,9.62455339 L47.1344775,8.91741577 L24.2084775,31.8394158 L24.562,31.693 L16.539,31.693 L17.039,32.193 L17.039,23.311 L16.894786,23.6623066 L39.246786,1.02530662 L38.535214,0.322693377 L16.183214,22.9596934 Z" id="Shape" sketch:type="MSShapeGroup"></path>
                <path d="M20.053,38.784 L20.553,38.284 L8.23,38.284 L8.73,38.784 L8.73,28.469 L8.23,28.969 L16.539,28.969 L16.539,27.969 L8.23,27.969 L7.73,27.969 L7.73,28.469 L7.73,38.784 L7.73,39.284 L8.23,39.284 L20.553,39.284 L21.053,39.284 L21.053,38.784 L21.053,32.479 L20.053,32.479 L20.053,38.784 Z" id="Shape" sketch:type="MSShapeGroup"></path>
                <path d="M12.9631041,36.1799403 L13.3248804,36.7681624 L13.7707903,36.2408562 L16.9207903,32.5158562 L16.1572097,31.8701438 L13.0072097,35.5951438 L13.8148959,35.6560597 L11.5238959,31.9310597 L10.6721041,32.4549403 L12.9631041,36.1799403 Z" id="Shape" sketch:type="MSShapeGroup"></path>
                <path d="M0.65,0.509 L0.15,0.509 L0.15,1.009 L0.15,53.2 L0.15,53.7 L0.65,53.7 L5.668,53.7 L7.658,53.7 L8.158,53.7 L8.158,53.2 L8.158,45.375 L7.658,45.875 L19.979,45.875 L19.479,45.375 L19.479,53.2 L19.479,53.7 L19.979,53.7 L27.248,53.7 L39.795,53.7 L40.0130388,53.7 L40.1614014,53.5402205 L53.2084014,39.4892205 L53.342,39.3453412 L53.342,39.149 L53.342,4.495 L52.342,4.495 L52.342,39.149 L52.4755986,38.8087795 L39.4285986,52.8597795 L39.795,52.7 L27.248,52.7 L19.979,52.7 L20.479,53.2 L20.479,45.375 L20.479,44.875 L19.979,44.875 L7.658,44.875 L7.158,44.875 L7.158,45.375 L7.158,53.2 L7.658,52.7 L5.668,52.7 L0.65,52.7 L1.15,53.2 L1.15,1.009 L0.65,1.509 L38.891,1.509 L38.891,0.509 L0.65,0.509 Z" id="Shape" sketch:type="MSShapeGroup"></path>
                <path d="M40.295,38.327 L39.795,38.827 L52.842,38.827 L52.842,37.827 L39.795,37.827 L39.295,37.827 L39.295,38.327 L39.295,52.866 L40.295,52.866 L40.295,38.327 Z" id="Shape" sketch:type="MSShapeGroup"></path>
            </g>
        </g>
    </g>
</svg>