<?xml version="1.0" encoding="UTF-8" standalone="no"?>
<svg width="55px" height="54px" viewBox="0 0 55 54" version="1.1" xmlns="http://www.w3.org/2000/svg" xmlns:xlink="http://www.w3.org/1999/xlink" xmlns:sketch="http://www.bohemiancoding.com/sketch/ns">
    <!-- Generator: Sketch 3.2.2 (9983) - http://www.bohemiancoding.com/sketch -->
    <title>admisiones-bachillerato</title>
    <desc>Created with Sketch.</desc>
    <defs></defs>
    <g id="Page-1" stroke="none" stroke-width="1" fill="none" fill-rule="evenodd" sketch:type="MSPage">
        <g id="Desktop" sketch:type="MSArtboardGroup" transform="translate(-140.000000, -314.000000)" fill="#666666">
            <g id="admisiones-bachillerato" sketch:type="MSLayerGroup" transform="translate(140.000000, 314.000000)">
                <path d="M25.4918993,36.5998994 C35.1347151,32.9051135 39.956728,22.0930006 36.261893,12.4510841 C32.5648041,2.80762127 21.7543262,-2.01348651 12.1120573,1.68211724 L11.4858379,1.92212908 L11.8946267,2.45377568 C11.9649366,2.54521653 12.0885561,2.70720647 12.2476584,2.91778227 C12.5128292,3.26874247 12.7779559,3.62451905 13.0250873,3.9629637 C13.072464,4.0279066 13.072464,4.0279066 13.119712,4.09293068 C13.6519886,4.82623255 14.0182936,5.37324946 14.0830505,5.53441576 C14.1428854,5.68468658 14.1766186,6.08541493 14.2134002,7.00412701 C14.2165913,7.08391423 14.2165913,7.08391423 14.2198308,7.16413681 C14.2583743,8.11316832 14.2961651,8.56495136 14.3981213,8.92295129 C14.4611722,9.14236246 14.4876031,9.62878575 14.4749797,10.2671315 C14.4684682,10.5964107 14.4523524,10.950035 14.4295605,11.3089822 C14.4112974,11.5966049 14.3930712,11.8252363 14.3810752,11.9564929 L14.4897275,11.6882056 L11.7167275,15.1282056 L9.81892831,17.6947823 L9.74385141,17.7963452 L9.72601251,17.9213786 L9.28301251,21.0263786 L9.19873255,21.6170993 L9.79508669,21.596708 L13.0120867,21.486708 L13.1479996,21.4630159 L16.2529996,20.4650159 L16.4255164,20.3685248 L17.9785164,19.0365248 L17.1887488,18.8426633 C17.2506845,18.9975335 17.3593873,19.2719358 17.4992401,19.6294153 C17.7323437,20.2252542 17.9654282,20.831414 18.182821,21.4112732 C18.236068,21.5535127 18.236068,21.5535127 18.2891103,21.6961127 C18.8089573,23.0960736 19.149,24.1340142 19.149,24.314 C19.149,24.3901934 19.0846401,24.7114416 18.9601132,25.2341093 C18.8936151,25.513217 18.5858089,26.7607073 18.5149836,27.0538256 C18.463881,27.2653191 18.4170461,27.4620798 18.372983,27.6508301 C17.8665209,29.8203297 17.7033363,30.9297847 17.9939129,31.4381298 C18.1392762,31.6919442 18.419005,32.3208765 18.7819567,33.1979224 C18.8257011,33.3037778 18.8257011,33.3037778 18.8693605,33.4099932 C19.0646135,33.8856036 19.2691815,34.3956721 19.4705552,34.9058075 C19.5913888,35.2119123 19.684238,35.4498437 19.7366777,35.5853981 L19.9341491,36.7149039 L20.7650183,36.2574859 C20.719408,36.2154124 20.6332332,36.1357167 20.5126546,36.0238799 C20.3115426,35.8373481 20.0874098,35.6287698 19.8460219,35.4032605 C19.156439,34.7590389 18.4669015,34.1083746 17.8236467,33.4923094 C17.7360163,33.4083421 17.7360163,33.4083421 17.6484925,33.3243066 C16.808336,32.5172092 16.1248463,31.8424045 15.6491296,31.3456335 C15.3854242,31.0702569 15.1908122,30.8548749 15.0751804,30.7101395 C15.0275795,30.650558 14.9983508,30.608721 14.9936984,30.5996007 C15.0126277,30.6367088 15.0275026,30.6809657 15.0294684,30.7583535 C15.0348318,30.9694983 14.8936999,31.1748582 14.6679743,31.2311445 C15.2516491,31.0857194 15.2417265,30.5390376 14.9163552,30.1895173 C14.7808738,30.0439806 14.5644692,29.8813067 14.2559333,29.6823743 C13.77166,29.370133 13.0763461,28.9790346 12.0890491,28.453094 C11.9525769,28.3804804 11.9525769,28.3804804 11.8158909,28.3080542 C11.6571625,28.2240233 10.1988644,27.4582974 9.85088799,27.2715414 C9.29875475,26.9752161 8.94917171,26.7702375 8.91134878,26.7322438 C8.78244049,26.6033337 8.57981623,26.367242 8.32930669,26.0569891 C8.28889152,26.00685 8.28889152,26.00685 8.24852691,25.956454 C8.08336055,25.749934 7.91035652,25.5280715 7.74024743,25.3061306 C7.63817375,25.1729554 7.55992359,25.0695794 7.51603606,25.0110481 L7.61349931,25.2610557 L7.27949931,21.9340557 L7.274859,22.0682022 L8.051859,17.5202022 L8.16053365,16.8840988 L7.51744628,16.9377297 L4.85544628,17.1597297 L5.30887187,17.3745189 L4.08787187,15.6005189 L3.26412813,16.1674811 L4.48512813,17.9414811 L4.64955073,18.180372 L4.93855372,18.1562703 L7.60055372,17.9342703 L7.066141,17.3517978 L6.289141,21.8997978 L6.28450069,22.0339443 L6.61850069,25.3609443 L6.63241263,25.4995223 L6.71596394,25.6109519 C6.76184245,25.6721386 6.84217775,25.7782692 6.94656236,25.9144595 C7.12055041,26.1414613 7.29762312,26.3685414 7.4675665,26.5810345 C7.50932085,26.6331657 7.50932085,26.6331657 7.55126829,26.6852058 C7.82288505,27.0215997 8.04321613,27.2783229 8.20344661,27.4385534 C8.34729427,27.5830523 8.67835531,27.7771705 9.37799758,28.1526626 C9.73072187,28.3419668 11.1928127,29.1096842 11.3480111,29.1918463 C11.483666,29.2637262 11.483666,29.2637262 11.6188909,29.3356762 C12.5827172,29.8491138 13.259957,30.2300458 13.7140431,30.5228236 C13.9569968,30.679471 14.1209677,30.8027299 14.1844152,30.8708864 C14.0734429,30.7516778 14.0661615,30.3505172 14.4261183,30.2608324 C14.17638,30.3231065 14.0237319,30.5452235 14.0297908,30.7837472 C14.0324411,30.8880798 14.0598276,30.9695622 14.1029033,31.0540059 C14.1453573,31.1372307 14.2074673,31.2261326 14.2938996,31.3343193 C14.4323593,31.5076281 14.6441597,31.7420329 14.9268832,32.0372693 C15.414298,32.5462562 16.1063522,33.2295165 16.9557163,34.0454592 C17.0438029,34.1300351 17.0438029,34.1300351 17.131968,34.2145148 C17.7785475,34.8337642 18.4709753,35.4871557 19.1633577,36.1339927 C19.4056576,36.360354 19.6306636,36.569745 19.8326248,36.7570643 C19.9538901,36.8695381 20.040461,36.9496001 20.0869817,36.9925141 L21.1869273,38.0071736 L20.9178509,36.5350961 L20.6948509,35.3150961 C20.6161079,35.0870446 20.5224459,34.8470305 20.4007077,34.5386338 C20.1977951,34.0246003 19.99161,33.5104997 19.7944397,33.0302191 C19.7502674,32.9227557 19.7502674,32.9227557 19.7059601,32.815538 C19.3245925,31.8939916 19.0368023,31.2469344 18.8618808,30.9415097 C18.7720099,30.784286 18.9485136,29.5842775 19.3467998,27.8781643 C19.3902366,27.6920968 19.4364828,27.4978096 19.4870108,27.2886938 C19.5569144,26.9993903 19.865247,25.7497668 19.932885,25.4658746 C20.0831165,24.8353188 20.149,24.5064654 20.149,24.314 C20.149,23.9473705 19.8283601,22.9686546 19.2265658,21.3480077 C19.1729524,21.203872 19.1729524,21.203872 19.119179,21.0602268 C18.8999468,20.475461 18.6652188,19.865027 18.4305099,19.2650847 C18.2896752,18.9050955 18.1800655,18.628404 18.1172512,18.4713367 L17.8578139,17.8226136 L17.3274836,18.2774752 L15.7744836,19.6094752 L15.9470004,19.5129841 L12.8420004,20.5109841 L12.9779133,20.487292 L9.76091331,20.597292 L10.2729875,21.1676214 L10.7159875,18.0626214 L10.6230717,18.2892177 L12.5080717,15.7392177 L15.2682725,12.3157944 L15.3631635,12.1980789 L15.3769248,12.0475071 C15.3897066,11.9076526 15.408647,11.6700618 15.4275506,11.3723511 C15.4511994,10.9999102 15.4679551,10.6322444 15.4747843,10.2869029 C15.4893902,9.54830348 15.4593319,8.99512275 15.3595511,8.64790349 C15.2892334,8.40099091 15.253575,7.97470121 15.2190071,7.12355674 C15.2157903,7.04389521 15.2157903,7.04389521 15.2125998,6.96412299 C15.1682405,5.85613959 15.1362642,5.47628192 15.0115264,5.16302642 C14.9005768,4.88688969 14.5300446,4.33356012 13.9289905,3.50550547 C13.8808799,3.4392944 13.8808799,3.4392944 13.8326983,3.37324808 C13.5820017,3.02992099 13.3137411,2.66993891 13.0455247,2.31494784 C12.8845946,2.10195288 12.7593,1.93776801 12.6873733,1.84422432 L12.4699427,2.61588276 C21.5964804,-0.882056099 31.8287382,3.68118505 35.3281339,12.8089861 C38.825306,21.9350883 34.2611961,32.1689205 25.1341007,35.6661006 C16.0071239,39.1632353 5.77510286,34.6004004 2.27586613,25.4730139 L1.34213387,25.8309861 C5.03903532,35.47396 15.8492365,40.2946266 25.4918993,36.5998994 Z" id="Shape" sketch:type="MSShapeGroup"></path>
                <path d="M0.852,52.452 L0.852,52.952 L1.352,52.952 L38.838,52.952 L39.0430989,52.952 L39.1891179,52.8079722 L53.5621179,38.6309722 L53.711,38.4841204 L53.711,38.275 L53.711,0.595 L53.711,0.095 L53.211,0.095 L19.645,0.095 L19.645,1.095 L53.211,1.095 L52.711,0.595 L52.711,38.275 L52.8598821,37.9190278 L38.4868821,52.0960278 L38.838,51.952 L1.352,51.952 L1.852,52.452 L1.852,24.796 L0.852,24.796 L0.852,52.452 Z" id="Shape" sketch:type="MSShapeGroup"></path>
                <path d="M38.838,37.775 L38.338,37.775 L38.338,38.275 L38.338,52.568 L38.338,53.7749874 L39.1915287,52.9215781 L53.4865287,38.6285781 L54.3402262,37.775 L53.133,37.775 L38.838,37.775 Z M52.7794713,37.9214219 L38.4844713,52.2144219 L39.338,52.568 L39.338,38.275 L38.838,38.775 L53.133,38.775 L52.7794713,37.9214219 Z" id="Shape" sketch:type="MSShapeGroup"></path>
                <path d="M30.3783221,14.7239798 L30.7136599,14.4062322 L27.6086599,15.2932322 L26.2949038,15.6208859 L26.1177,15.6651202 L26.01073,15.8131584 C25.970293,15.86912 25.9026159,15.9668282 25.8166562,16.0977876 C25.6742436,16.3147529 25.5318937,16.5475175 25.3984641,16.7880443 C25.2500001,17.0556729 25.1215773,17.3169645 25.0189867,17.5677306 C24.7615302,18.1970417 24.6724571,18.7269001 24.8366622,19.1660993 C25.2662938,20.3070708 25.7758615,21.0712787 26.4520264,21.3405264 C26.5110558,21.3640318 26.6167247,21.4958352 26.7967715,21.8067379 C26.8392912,21.8805038 26.8392912,21.8805038 26.8837588,21.9578794 C27.2420706,22.5794438 27.4789751,22.8669288 27.9194577,23.0141986 C28.3166903,23.1466097 28.6543698,23.1598217 29.4600778,23.1302764 C29.4975483,23.1289026 29.4975483,23.1289026 29.5347886,23.1275564 C29.9859333,23.1113609 30.2236422,23.1138823 30.4482893,23.1459747 C30.9327936,23.2147433 31.2729102,22.9530622 31.5114577,22.5353285 C31.5669703,22.4381172 31.5961429,22.3758218 31.6606737,22.228263 C31.6689083,22.2063735 31.6689083,22.2063735 31.6149322,22.2717486 C31.4895772,22.4007146 31.4895772,22.4007146 31.0678127,22.3782584 C30.8205618,22.1774559 30.8205618,22.1774559 30.7993197,22.0852453 C30.7935157,22.2329856 30.794,22.3552408 30.794,22.761 C30.794,23.4874355 30.8389868,24.0346271 30.9229342,24.5522497 C30.9441499,24.6830665 31.0064198,25.0224964 31.0103252,25.0455415 C31.032076,25.1738894 31.0402732,25.253996 31.0388105,25.3232542 C31.0379964,25.3617953 31.0340644,25.3985481 31.0264055,25.4374751 C31.0218918,25.4600314 30.8135209,25.6725311 30.4602719,25.9461537 C30.3899667,26.0006112 30.3141,26.058017 30.2227336,26.1261212 C30.1752996,26.1614783 29.9236167,26.3476745 29.8545626,26.3993569 C29.7137192,26.5047688 29.6074716,26.5870632 29.5150474,26.6634879 C29.1719465,26.9471949 29.021,27.1200261 29.021,27.42 C29.021,27.4536297 29.0068809,27.501098 28.8707009,27.9124985 C28.8117245,28.0906662 28.771095,28.2269265 28.7382728,28.3661126 C28.6675698,28.6659363 28.6471702,28.9298312 28.6963726,29.1803575 C28.7575791,29.4864053 28.8778054,29.7610226 29.0958588,30.1571261 C29.1434696,30.2430913 29.1434696,30.2430913 29.1903972,30.3268146 C29.3658777,30.6399017 29.4366632,30.7759492 29.4997617,30.9336953 C29.5412526,31.0378936 29.5959686,31.1436502 29.6623426,31.2512531 C29.7682193,31.4228962 29.9026553,31.5976512 30.0595204,31.7749584 C30.2753623,32.018928 30.4888288,32.2211539 30.6368862,32.3478698 L30.7263593,32.4244458 L30.8406035,32.4530391 L31.7276035,32.6750391 L31.9703965,31.7049609 L31.0833965,31.4829609 L31.2871138,31.5881302 C31.171172,31.4889008 30.9886395,31.31598 30.8084825,31.1123455 C30.6866778,30.9746677 30.585747,30.8434666 30.5134467,30.7262562 C30.4757725,30.6651802 30.4472568,30.6100643 30.4285264,30.5630264 C30.3433183,30.3500047 30.2599701,30.189812 30.0627228,29.8378894 C30.0164104,29.7552587 30.0164104,29.7552587 29.9718912,29.6748739 C29.7998435,29.3623417 29.7128108,29.1635442 29.6772903,28.9859419 C29.6605142,28.9005065 29.670673,28.7690891 29.7115767,28.5956325 C29.7363112,28.4907433 29.7695116,28.3793983 29.8200421,28.2267455 C30.0329711,27.5834864 30.021,27.6237333 30.021,27.42 C30.021,27.5320174 29.9998096,27.5706374 29.9835763,27.5892244 C30.014466,27.5538561 30.0714465,27.5009999 30.152297,27.4341454 C30.2298318,27.3700326 30.3247423,27.2965194 30.4537598,27.1999583 C30.520064,27.150334 30.770677,26.9649294 30.8203685,26.9278896 C30.9162889,26.8563909 30.9968217,26.7954544 31.0726401,26.7367263 C31.6465673,26.2921691 31.9338665,25.999177 32.0072903,25.6320581 C32.0264755,25.5345606 32.0365617,25.4402841 32.0385875,25.3443703 C32.0416306,25.2002878 32.0276433,25.0635993 31.9962677,24.8784566 C31.9906022,24.8450251 31.9292048,24.5103512 31.9100371,24.3921626 C31.8345879,23.9269402 31.794,23.4332542 31.794,22.761 C31.794,22.3430067 31.7935128,22.2200334 31.7904486,22.1007452 C31.7883497,22.019033 31.7850479,21.9593653 31.7789028,21.9089113 C31.7724298,21.8591028 31.7724298,21.8591028 31.7523816,21.7824697 C31.7229908,21.6693174 31.7229908,21.6693174 31.4660037,21.4609559 C31.0336565,21.4372385 31.0336565,21.4372385 30.8959197,21.5767515 C30.8286094,21.6581842 30.8286094,21.6581842 30.803721,21.7031198 C30.7840022,21.7387128 30.768028,21.7733448 30.7444567,21.8275806 C30.6944325,21.941968 30.6748338,21.9838192 30.6430736,22.0394363 C30.5851107,22.1409382 30.5692723,22.1531241 30.5892635,22.1559616 C30.2877764,22.1128918 30.0080089,22.1099243 29.4989131,22.1282002 C29.4610443,22.1295691 29.4610443,22.1295691 29.4234324,22.1309481 C28.749225,22.1556712 28.473827,22.1448961 28.2361139,22.0656584 C28.1176836,22.0260625 27.9833532,21.8630518 27.7501152,21.458453 C27.7068276,21.3831269 27.7068276,21.3831269 27.6621368,21.3055963 C27.3655312,20.7934213 27.1706203,20.5503041 26.8219736,20.4114736 C26.4903834,20.279435 26.109135,19.7076698 25.7729257,18.8148025 C25.7216236,18.6775811 25.774802,18.3612453 25.944528,17.9463774 C26.0308493,17.7353789 26.1423328,17.5085522 26.2729243,17.2731416 C26.3933785,17.056005 26.5230469,16.8439766 26.6526527,16.6465225 C26.729904,16.5288302 26.7891688,16.4432673 26.82127,16.3988416 L26.5370962,16.5911141 L27.8670962,16.2591141 L30.9883401,15.3677678 L31.2387635,15.2962298 L31.3236779,15.0500202 L33.5426779,8.61602025 L32.5973221,8.28997975 L30.3783221,14.7239798 Z" id="Shape" sketch:type="MSShapeGroup"></path>
            </g>
        </g>
    </g>
</svg>