<?xml version="1.0" encoding="UTF-8" standalone="no"?>
<svg width="55px" height="55px" viewBox="0 0 55 55" version="1.1" xmlns="http://www.w3.org/2000/svg" xmlns:xlink="http://www.w3.org/1999/xlink" xmlns:sketch="http://www.bohemiancoding.com/sketch/ns">
    <!-- Generator: Sketch 3.2.2 (9983) - http://www.bohemiancoding.com/sketch -->
    <title>admisiones-traslado</title>
    <desc>Created with Sketch.</desc>
    <defs></defs>
    <g id="Page-1" stroke="none" stroke-width="1" fill="none" fill-rule="evenodd" sketch:type="MSPage">
        <g id="Desktop" sketch:type="MSArtboardGroup" transform="translate(-225.000000, -397.000000)" fill="#666666">
            <g id="admisiones-traslado" sketch:type="MSLayerGroup" transform="translate(225.000000, 397.000000)">
                <path d="M1.789,2.142 L1.289,2.642 L38.775,2.642 L38.4238821,2.4979722 L52.7968821,16.6749722 L52.648,16.319 L52.648,54 L53.148,53.5 L4.082,53.5 L4.5816374,54.0190386 C4.58534736,53.9216768 4.60240061,53.724918 4.64246327,53.4431335 C4.71037956,52.9654379 4.8205763,52.4310675 4.98259995,51.8543371 C5.44682201,50.2019178 6.23251428,48.5485205 7.41551318,47.0053334 C8.21031949,45.9685321 9.16133151,45.0162798 10.2821087,44.1664098 C10.8081954,43.767314 11.3645264,43.4032336 11.9475562,43.0726406 C13.4747875,42.2066609 15.1152208,41.6039933 16.7560967,41.2195557 C17.3302175,41.0850461 17.8626793,40.9875536 18.3393064,40.9211975 C18.6220579,40.8818329 18.8209654,40.8617049 18.9218815,40.8548507 L18.388,40.356 L18.388,48.695 L18.388,50.0089014 L19.2615033,49.0274083 L31.5645033,35.2034083 L31.8804214,34.8484338 L31.5419663,34.5148783 L19.0389663,22.1928783 L18.188,21.354231 L18.188,22.549 L18.188,29.752 L18.688,29.752 L19.188,29.752 L18.6556622,29.2530468 C18.5140918,29.2724305 18.5140918,29.2724305 18.4313866,29.2864296 C18.2843101,29.3119235 18.1140335,29.3454006 17.9226271,29.3877583 C17.3807711,29.5076697 16.7747571,29.6747944 16.1186401,29.8968396 C14.2494032,30.5294327 12.3461963,31.4754455 10.5205852,32.7976792 C5.31400132,36.5686471 1.77084879,42.5850507 0.792120563,51.3042252 L1.78587944,51.4157748 C2.73303199,42.9778978 6.12727176,37.2143535 11.1071648,33.6075708 C12.8469423,32.3475037 14.6606954,31.445955 16.4392037,30.8440666 C17.0600556,30.6339559 17.6312627,30.4764302 18.1386971,30.3641362 C18.3148871,30.3251458 18.4700745,30.2946353 18.6021773,30.2717369 C18.7423837,30.2490319 19.188,29.752 19.188,29.752 L19.188,22.549 L18.3370337,22.9051217 L30.8400337,35.2271217 L30.8174967,34.5385917 L18.5144967,48.3625917 L19.388,48.695 L19.388,40.356 L19.388,39.8208885 L18.8541185,39.8571493 C18.7304388,39.8655495 18.508229,39.8880355 18.2014162,39.93075 C17.6954363,40.0011926 17.1329932,40.1041745 16.5279856,40.2459206 C14.7999232,40.6507849 13.0714182,41.2858086 11.4543071,42.2027525 C10.833459,42.5547895 10.2400016,42.9431665 9.6778089,43.3696527 C8.48493183,44.2741951 7.47045786,45.2899922 6.62187921,46.3969379 C5.35694745,48.047004 4.51682207,49.8149493 4.01986996,51.5838727 C3.84548265,52.2046122 3.72637822,52.7821781 3.65241943,53.3023742 C3.60735705,53.6193247 3.58734396,53.8502337 3.5823626,53.9809614 L3.5625847,54.5 L4.082,54.5 L53.148,54.5 L53.648,54.5 L53.648,54 L53.648,16.319 L53.648,16.1098796 L53.4991179,15.9630278 L39.1261179,1.7860278 L38.9800989,1.642 L38.775,1.642 L1.289,1.642 L0.789,1.642 L0.789,2.142 L0.789,51.36 L1.789,51.36 L1.789,2.142 Z" id="Shape" sketch:type="MSShapeGroup"></path>
                <path d="M38.775,15.819 L39.275,16.319 L39.275,2.026 L38.4214713,2.37957812 L52.7164713,16.6725781 L53.07,15.819 L38.775,15.819 Z M54.2772262,16.819 L53.4235287,15.9654219 L39.1285287,1.67242188 L38.275,0.819012637 L38.275,2.026 L38.275,16.319 L38.275,16.819 L38.775,16.819 L53.07,16.819 L54.2772262,16.819 Z" id="Shape" sketch:type="MSShapeGroup"></path>
            </g>
        </g>
    </g>
</svg>