<?xml version="1.0" encoding="UTF-8" standalone="no"?>
<svg width="54px" height="55px" viewBox="0 0 54 55" version="1.1" xmlns="http://www.w3.org/2000/svg" xmlns:xlink="http://www.w3.org/1999/xlink" xmlns:sketch="http://www.bohemiancoding.com/sketch/ns">
    <!-- Generator: Sketch 3.2.2 (9983) - http://www.bohemiancoding.com/sketch -->
    <title>admisiones-centro-pre</title>
    <desc>Created with Sketch.</desc>
    <defs></defs>
    <g id="Page-1" stroke="none" stroke-width="1" fill="none" fill-rule="evenodd" sketch:type="MSPage">
        <g id="Desktop" sketch:type="MSArtboardGroup" transform="translate(-225.000000, -312.000000)" fill="#666666">
            <g id="admisiones-centro-pre" sketch:type="MSLayerGroup" transform="translate(225.000000, 312.000000)">
                <path d="M1.275,53.533 L1.775,54.033 L1.775,16.353 L1.62614285,16.7089476 L15.9981429,2.5309476 L15.647,2.675 L53.133,2.675 L52.633,2.175 L52.633,37.872 L53.633,37.872 L53.633,2.175 L53.633,1.675 L53.133,1.675 L15.647,1.675 L15.4418806,1.675 L15.2958571,1.8190524 L0.923857145,15.9970524 L0.775,16.1439002 L0.775,16.353 L0.775,54.033 L0.775,54.533 L1.275,54.533 L32.396,54.533 L32.396,53.533 L1.275,53.533 Z" id="Shape" sketch:type="MSShapeGroup"></path>
                <path d="M32.7705313,53.4131389 C32.3786551,53.2268659 31.9411474,53.004377 31.4695087,52.7462626 C30.1212035,52.0083738 28.7728594,51.1346736 27.5166196,50.1308834 C23.9646838,47.2927323 21.85,44.0057526 21.85,40.316 C21.85,36.6123261 23.3386793,33.919568 25.8323669,32.0457246 C26.7093148,31.3867555 27.6510457,30.8782613 28.5924086,30.5026841 C28.9211154,30.3715393 29.2255682,30.2665802 29.4975218,30.1854651 C29.6574128,30.1377748 29.768555,30.1091016 29.8227062,30.0970399 C29.9644881,30.0705771 30.2582269,30.0246242 30.6550422,29.978324 C31.8472575,29.8392171 33.0887332,29.8038919 34.2394554,29.9352259 C35.8311669,30.1168908 37.0371872,30.599803 37.7188419,31.4180352 L38.0229216,31.7830409 L38.4029879,31.498009 C43.1539338,27.9350234 51.5419317,32.6595874 52.6462762,39.0619895 L53.6317238,38.8920105 C52.411335,31.8168448 43.2167304,26.6379573 37.8030121,30.697991 L38.4871581,30.7779648 C37.6087138,29.7235137 36.1757409,29.1497257 34.352851,28.941676 C33.115146,28.8004145 31.8012598,28.8378 30.539149,28.9850623 C30.1176524,29.0342423 29.8010662,29.0837695 29.6213468,29.1176596 C29.5287575,29.1380078 29.3948606,29.1725514 29.2116969,29.2271833 C28.9118927,29.3166053 28.579244,29.4312849 28.2218414,29.5738784 C27.2028918,29.9804105 26.1843102,30.5304008 25.2316331,31.2462754 C22.4978207,33.300557 20.85,36.2811739 20.85,40.316 C20.85,44.3647474 23.1261912,47.9027677 26.8923804,50.9121166 C28.1974843,51.9549514 29.5934371,52.8595012 30.9894288,53.6234874 C31.478294,53.8910293 31.9326828,54.1221029 32.3412265,54.3162986 C32.588316,54.4337492 32.7666494,54.5133862 32.8648413,54.5547629 L33.2531587,53.6332371 C33.1683975,53.59752 33.0036938,53.5239695 32.7705313,53.4131389 Z" id="Shape" sketch:type="MSShapeGroup"></path>
                <path d="M36.0764172,29.587524 L37.5740143,31.0853702 L36.9043526,29.0759191 C36.879346,29.0008816 36.8336204,28.8525517 36.7740382,28.6399495 C36.6737504,28.2821013 36.5732418,27.8778329 36.4793482,27.436228 C36.1064281,25.6822916 35.9464998,23.8927014 36.1185484,22.2355086 C36.3414963,20.0880476 37.1056455,18.3795099 38.5136184,17.2396068 C40.5072526,15.6263258 42.2258658,14.595487 43.6622881,14.0277467 C44.1540961,13.8333615 44.5729618,13.7099094 44.9183066,13.6424418 C45.1122034,13.6045616 45.2312402,13.593 45.275,13.593 L44.8162218,13.2918027 C44.8502512,13.3703326 44.9129853,13.5275375 44.9949284,13.7545317 C45.1331009,14.1372893 45.2716337,14.5722947 45.4010769,15.0505895 C46.0134682,17.3133853 46.2053625,19.6512859 45.7293734,21.8165665 C44.9276284,25.4637151 42.3321807,28.1223769 37.4091717,29.4133528 L37.6628283,30.3806472 C42.9460687,28.9952067 45.8230235,26.0481814 46.7060532,22.0312679 C47.2216994,19.6855864 47.0172157,17.194306 46.3663516,14.7893525 C46.2294823,14.2836185 46.0826803,13.8226465 45.935518,13.4149861 C45.8462603,13.1677294 45.7758381,12.991259 45.7337782,12.8941973 L45.6032602,12.593 L45.275,12.593 C44.9072584,12.593 44.243874,12.7226007 43.2947119,13.0977533 C41.7598842,13.704388 39.9542474,14.7874242 37.8844731,16.4623191 C36.245204,17.7894809 35.3720826,19.7416664 35.1238945,22.1322443 C34.9395588,23.9077875 35.1083364,25.7964012 35.501213,27.6441981 C35.5996967,28.1073913 35.7053066,28.5321783 35.8111372,28.9098047 C35.8752261,29.1384873 35.9256891,29.3021853 35.9556474,29.3920809 L36.7835828,28.880476 L30.7705828,22.866476 L30.0634172,23.573524 L36.0764172,29.587524 Z" id="Shape" sketch:type="MSShapeGroup"></path>
                <path d="M15.647,16.853 L16.147,16.853 L16.147,16.353 L16.147,2.059 L16.147,0.8518335 L15.2934342,1.70545898 L1.00043424,15.999459 L0.146952932,16.853 L1.354,16.853 L15.647,16.853 Z M1.70756576,16.706541 L16.0005658,2.41254102 L15.147,2.059 L15.147,16.353 L15.647,15.853 L1.354,15.853 L1.70756576,16.706541 Z" id="Shape" sketch:type="MSShapeGroup"></path>
            </g>
        </g>
    </g>
</svg>