<?xml version="1.0" encoding="UTF-8" standalone="no"?>
<svg width="54px" height="54px" viewBox="0 0 54 54" version="1.1" xmlns="http://www.w3.org/2000/svg" xmlns:xlink="http://www.w3.org/1999/xlink" xmlns:sketch="http://www.bohemiancoding.com/sketch/ns">
    <!-- Generator: Sketch 3.2.2 (9983) - http://www.bohemiancoding.com/sketch -->
    <title>admisiones-primeros-puestos</title>
    <desc>Created with Sketch.</desc>
    <defs></defs>
    <g id="Page-1" stroke="none" stroke-width="1" fill="none" fill-rule="evenodd" sketch:type="MSPage">
        <g id="Desktop" sketch:type="MSArtboardGroup" transform="translate(-140.000000, -398.000000)" fill="#666666">
            <g id="admisiones-primeros-puestos" sketch:type="MSLayerGroup" transform="translate(140.000000, 398.000000)">
                <path d="M53.2018365,1.33999997 L52.702,0.839885042 L52.69,53.032885 L53.190124,52.533 L12.875124,52.523 L13.3748382,53.0102819 L13.0428382,39.9622819 L13.0304428,39.4751267 L12.5431299,39.475 L1.00012995,39.472 L1.49999998,39.9721277 L1.50999998,0.828127733 L1.00990036,1.32799999 L6.02790036,1.32899999 L15.768846,1.33199998 L15.769154,0.332000024 L6.02815399,0.329000024 L1.01009964,0.32800001 L0.510127743,0.327900374 L0.510000016,0.827872267 L0.500000016,39.9718723 L0.499872283,40.47187 L0.999870051,40.472 L12.5428701,40.475 L12.0431618,39.9877181 L12.3751618,53.0357181 L12.3875574,53.5228791 L12.874876,53.523 L53.189876,53.533 L53.689885,53.533124 L53.69,53.033115 L53.702,0.840114958 L53.7021149,0.340163543 L53.2021635,0.340000027 L47.0871635,0.338000027 L47.0868365,1.33799997 L53.2018365,1.33999997 Z" id="Shape" sketch:type="MSShapeGroup"></path>
                <path d="M12.5051775,53.3594986 L13.2448225,52.6865014 L1.36982255,39.6355014 L0.630177452,40.3084986 L12.5051775,53.3594986 Z" id="Shape" sketch:type="MSShapeGroup"></path>
                <path d="M42.1525772,3.93408794 L41.8370226,4.15121042 L41.9645048,4.51241006 L44.0165048,10.3264101 L44.5008953,9.66016632 L38.3378953,9.50116632 L37.9549064,9.49128554 L37.8457312,9.85851688 L36.0887312,15.7685169 L36.8722004,15.5141851 L31.9792004,11.7631851 L31.6751122,11.5300694 L31.3709409,11.7630768 L26.4769409,15.5120768 L27.2603418,15.7667626 L25.5063418,9.85576257 L25.3973523,9.48846693 L25.0143499,9.49816005 L18.8503499,9.65416005 L19.3344098,10.3206518 L21.3894098,4.50765183 L21.5170975,4.14646016 L21.2015707,3.92918979 L16.1245707,0.433189787 L15.5574293,1.25681021 L20.6344293,4.75281021 L20.4465902,4.17434817 L18.3915902,9.98734817 L18.1494764,10.6722181 L18.8756501,10.65384 L25.0396501,10.49784 L24.5476582,10.1402374 L26.3016582,16.0512374 L26.5083293,16.7477213 L27.0850591,16.3059232 L31.9790591,12.5569232 L31.3707996,12.5568149 L36.2637996,16.3078149 L36.8402754,16.7497444 L37.0472688,16.0534831 L38.8042688,10.1434831 L38.3121047,10.5008337 L44.4751047,10.6598337 L45.201252,10.6785676 L44.9594952,9.99358994 L42.9074952,4.17958994 L42.7194228,4.75791206 L47.7974228,1.26391206 L47.2305772,0.440087942 L42.1525772,3.93408794 Z" id="Shape" sketch:type="MSShapeGroup"></path>
                <path d="M22.459,39.6088813 L22.4587497,40.6633132 L23.2753312,39.9962139 L32.7313312,32.2712139 L32.0705969,32.2464727 L40.4555969,40.2134727 L41.2997269,41.0155221 L41.3,39.8511173 L41.307,10.0021173 L40.307,10.0018827 L40.3,39.8508827 L41.1444031,39.4885273 L32.7594031,31.5215273 L32.4399388,31.2179885 L32.0986688,31.4967861 L22.6426688,39.2217861 L23.459,39.6091187 L23.466,10.1181187 L22.466,10.1178813 L22.459,39.6088813 Z" id="Shape" sketch:type="MSShapeGroup"></path>
                <path d="M32.0398775,8.37999999 C36.3989144,8.38106759 39.9339323,4.84737039 39.935,0.488122459 L38.935,0.487877541 C38.9340676,4.29486673 35.8468485,7.38093235 32.0401225,7.38000001 C28.2331333,7.37906761 25.1470676,4.29184854 25.148,0.485122459 L24.148,0.484877541 C24.1469324,4.84391436 27.6806296,8.37893233 32.0398775,8.37999999 Z" id="Shape" sketch:type="MSShapeGroup"></path>
                <path d="M32.8934917,19.386615 L32.04,19.0328879 L32.038,27.9548879 L32.5381471,27.455 L29.1401471,27.454 L29.1398615,28.454 L36.3618615,28.456 L36.3621385,27.456 L29.1401385,27.454 L29.1398529,28.454 L32.5378529,28.455 L33.0378879,28.4551471 L33.038,27.9551121 L33.04,19.0331121 L33.0402706,17.8259203 L32.1865083,18.679385 L29.3185083,21.546385 L30.0254917,22.253615 L32.8934917,19.386615 Z" id="Shape" sketch:type="MSShapeGroup"></path>
            </g>
        </g>
    </g>
</svg>