<?xml version="1.0" encoding="UTF-8" standalone="no"?>
<svg width="55px" height="54px" viewBox="0 0 55 54" version="1.1" xmlns="http://www.w3.org/2000/svg" xmlns:xlink="http://www.w3.org/1999/xlink" xmlns:sketch="http://www.bohemiancoding.com/sketch/ns">
    <!-- Generator: Sketch 3.2.2 (9983) - http://www.bohemiancoding.com/sketch -->
    <title>admisiones-alto-rendimiento</title>
    <desc>Created with Sketch.</desc>
    <defs></defs>
    <g id="Page-1" stroke="none" stroke-width="1" fill="none" fill-rule="evenodd" sketch:type="MSPage">
        <g id="Desktop" sketch:type="MSArtboardGroup" transform="translate(-55.000000, -314.000000)" fill="#666666">
            <g id="admisiones-alto-rendimiento" sketch:type="MSLayerGroup" transform="translate(55.000000, 314.000000)">
                <path d="M1.452,52.461 L1.952,52.961 L1.952,13.818 L1.452,14.318 L12.994,14.318 L13.4813649,14.318 L13.4938363,13.8307947 L13.8278363,0.782794705 L13.328,1.27 L53.644,1.27 L53.144,0.77 L53.144,52.961 L53.644,52.461 L28.049,52.461 L28.049,53.461 L53.644,53.461 L54.144,53.461 L54.144,52.961 L54.144,0.77 L54.144,0.27 L53.644,0.27 L13.328,0.27 L12.8406351,0.27 L12.8281637,0.757205295 L12.4941637,13.8052053 L12.994,13.318 L1.452,13.318 L0.952,13.318 L0.952,13.818 L0.952,52.961 L0.952,53.461 L1.452,53.461 L6.47,53.461 L6.47,52.461 L1.452,52.461 Z" id="Shape" sketch:type="MSShapeGroup"></path>
                <path d="M28.4894147,13.0497169 L27.549,12.813 L27.549,52.711 L28.549,52.711 L28.549,12.813 L28.549,10.8266298 L27.6085853,12.5762831 L6.02958529,52.7242831 L6.91041471,53.1977169 L28.4894147,13.0497169 Z" id="Shape" sketch:type="MSShapeGroup"></path>
                <path d="M27.045,34.141 L27.045,33.141 L17.26,33.141 L17.26,34.141 L27.045,34.141 Z" id="Shape" sketch:type="MSShapeGroup"></path>
                <path d="M34.072,20.845 L34.072,21.845 L53.142,21.845 L53.142,20.845 L34.072,20.845 Z" id="Shape" sketch:type="MSShapeGroup"></path>
                <path d="M43.106,31.132 L44.106,31.132 L44.106,11.559 L43.106,11.559 L43.106,31.132 Z" id="Shape" sketch:type="MSShapeGroup"></path>
                <path d="M13.6977699,1.10655638 L12.9582301,0.433443617 L1.08223007,13.4814436 L1.82176993,14.1545564 L13.6977699,1.10655638 Z" id="Shape" sketch:type="MSShapeGroup"></path>
            </g>
        </g>
    </g>
</svg>