<?xml version="1.0" encoding="UTF-8" standalone="no"?>
<svg width="30px" height="28px" viewBox="0 0 30 28" version="1.1" xmlns="http://www.w3.org/2000/svg" xmlns:xlink="http://www.w3.org/1999/xlink" xmlns:sketch="http://www.bohemiancoding.com/sketch/ns">
    <!-- Generator: Sketch 3.2 (9961) - http://www.bohemiancoding.com/sketch -->
    <title>Group</title>
    <desc>Created with Sketch.</desc>
    <defs></defs>
    <g id="Page-1" stroke="none" stroke-width="1" fill="none" fill-rule="evenodd" sketch:type="MSPage">
        <g id="Desktop" sketch:type="MSArtboardGroup" transform="translate(-351.000000, -690.000000)" fill="#666666">
            <g id="Group" sketch:type="MSLayerGroup" transform="translate(351.000000, 690.000000)">
                <path d="M1.42283951,0.307317073 L1.17283951,0.557317073 L28.8271605,0.557317073 L28.5771605,0.307317073 L28.5771605,27.6243902 L28.8271605,27.3743902 L23.7111111,27.3743902 L23.9611111,27.6243902 L23.9611111,11.7463415 L23.8874699,11.5691478 L19.3245069,7.0276844 L19.1481481,6.95487805 L6.32345679,6.95487805 L6.07345679,6.95487805 L6.07345679,7.20487805 L6.07345679,27.6243902 L6.32345679,27.3743902 L1.17283951,27.3743902 L1.42283951,27.6243902 L1.42283951,0.307317073 Z M0.922839506,27.8743902 L1.17283951,27.8743902 L6.32345679,27.8743902 L6.57345679,27.8743902 L6.57345679,27.6243902 L6.57345679,7.20487805 L6.32345679,7.45487805 L19.1481481,7.45487805 L18.9717894,7.3820717 L23.5347524,11.9235351 L23.4611111,11.7463415 L23.4611111,27.6243902 L23.4611111,27.8743902 L23.7111111,27.8743902 L28.8271605,27.8743902 L29.0771605,27.8743902 L29.0771605,27.6243902 L29.0771605,0.307317073 L29.0771605,0.0573170732 L28.8271605,0.0573170732 L1.17283951,0.0573170732 L0.922839506,0.0573170732 L0.922839506,0.307317073 L0.922839506,27.6243902 L0.922839506,27.8743902 Z" id="Shape" sketch:type="MSShapeGroup"></path>
                <path d="M18.8981481,11.8146341 L18.8981481,12.0646341 L19.1481481,12.0646341 L23.7111111,12.0646341 L23.7111111,11.5646341 L19.1481481,11.5646341 L19.3981481,11.8146341 L19.3981481,7.30731707 L18.8981481,7.30731707 L18.8981481,11.8146341 Z" id="Shape" sketch:type="MSShapeGroup"></path>
                <path d="M14.308642,10.5621951 L14.058642,10.3121951 L14.058642,15.297561 L14.308642,15.047561 L9.2617284,15.047561 L9.5117284,15.297561 L9.5117284,10.3121951 L9.2617284,10.5621951 L14.308642,10.5621951 Z M9.0117284,10.0621951 L9.0117284,10.3121951 L9.0117284,15.297561 L9.0117284,15.547561 L9.2617284,15.547561 L14.308642,15.547561 L14.558642,15.547561 L14.558642,15.297561 L14.558642,10.3121951 L14.558642,10.0621951 L14.308642,10.0621951 L9.2617284,10.0621951 L9.0117284,10.0621951 Z" id="Rectangle-path" sketch:type="MSShapeGroup"></path>
                <path id="Shape" sketch:type="MSShapeGroup"></path>
                <path id="Shape" sketch:type="MSShapeGroup"></path>
                <path id="Shape" sketch:type="MSShapeGroup"></path>
                <path id="Shape" sketch:type="MSShapeGroup"></path>
            </g>
        </g>
    </g>
</svg>