<?xml version="1.0" encoding="UTF-8" standalone="no"?>
<svg width="30px" height="29px" viewBox="0 0 30 29" version="1.1" xmlns="http://www.w3.org/2000/svg" xmlns:xlink="http://www.w3.org/1999/xlink" xmlns:sketch="http://www.bohemiancoding.com/sketch/ns">
    <!-- Generator: Sketch 3.2 (9961) - http://www.bohemiancoding.com/sketch -->
    <title>Group</title>
    <desc>Created with Sketch.</desc>
    <defs></defs>
    <g id="Page-1" stroke="none" stroke-width="1" fill="none" fill-rule="evenodd" sketch:type="MSPage">
        <g id="Desktop" sketch:type="MSArtboardGroup" transform="translate(-455.000000, -689.000000)" fill="#666666">
            <g id="Group" sketch:type="MSLayerGroup" transform="translate(455.000000, 689.000000)">
                <path d="M18.7067901,9.13375 C18.7067901,7.22355829 17.1232645,5.6775 15.1728395,5.6775 C13.2224145,5.6775 11.6388889,7.22355829 11.6388889,9.13375 C11.6388889,11.0439417 13.2224145,12.59 15.1728395,12.59 C17.1232645,12.59 18.7067901,11.0439417 18.7067901,9.13375 Z M12.1388889,9.13375 C12.1388889,7.50241575 13.4959128,6.1775 15.1728395,6.1775 C16.8497662,6.1775 18.2067901,7.50241575 18.2067901,9.13375 C18.2067901,10.7650843 16.8497662,12.09 15.1728395,12.09 C13.4959128,12.09 12.1388889,10.7650843 12.1388889,9.13375 Z" id="Oval" sketch:type="MSShapeGroup"></path>
                <path d="M0.991975309,28 L0.991975309,28.25 L1.24197531,28.25 L9.4,28.25 L9.65,28.25 L9.65,28 L9.65,18.38125 C9.65,16.5631787 11.1614405,15.0875 13.0296296,15.0875 L14.4123457,15.0875 L14.1628391,14.8218005 L13.5406169,24.7105505 L13.6154756,24.9051302 L14.9981917,26.2551302 L15.1728395,26.4256458 L15.3474873,26.2551302 L16.7302034,24.9051302 L16.8051153,24.7114195 L16.217461,14.8226695 L15.9679012,15.0875 L17.7654321,15.0875 C19.6285994,15.0875 21.1450617,16.558341 21.1450617,18.3475 L21.1450617,27.96625 L21.1450617,28.21625 L21.3950617,28.21625 L28.8962963,28.21625 L29.1462963,28.21625 L29.1462963,27.96625 L29.1462963,1 L29.1462963,0.75 L28.8962963,0.75 L1.24197531,0.75 L0.991975309,0.75 L0.991975309,1 L0.991975309,28 Z M1.24197531,1.25 L28.8962963,1.25 L28.6462963,1 L28.6462963,27.96625 L28.8962963,27.71625 L21.3950617,27.71625 L21.6450617,27.96625 L21.6450617,18.3475 C21.6450617,16.2787231 19.9013818,14.5875 17.7654321,14.5875 L15.9679012,14.5875 L15.7026035,14.5875 L15.7183415,14.8523305 L16.3059958,24.7410805 L16.3809077,24.5473698 L14.9981917,25.8973698 L15.3474873,25.8973698 L13.9647713,24.5473698 L14.03963,24.7419495 L14.6618522,14.8531995 L14.6785706,14.5875 L14.4123457,14.5875 L13.0296296,14.5875 C10.8879422,14.5875 9.15,16.2843213 9.15,18.38125 L9.15,28 L9.4,27.75 L1.24197531,27.75 L1.49197531,28 L1.49197531,1 L1.24197531,1.25 Z" id="Shape" sketch:type="MSShapeGroup"></path>
            </g>
        </g>
    </g>
</svg>