<?xml version="1.0" encoding="UTF-8" standalone="no"?>
<svg width="29px" height="29px" viewBox="0 0 29 29" version="1.1" xmlns="http://www.w3.org/2000/svg" xmlns:xlink="http://www.w3.org/1999/xlink" xmlns:sketch="http://www.bohemiancoding.com/sketch/ns">
    <!-- Generator: Sketch 3.2 (9961) - http://www.bohemiancoding.com/sketch -->
    <title>Group</title>
    <desc>Created with Sketch.</desc>
    <defs></defs>
    <g id="Page-1" stroke="none" stroke-width="1" fill="none" fill-rule="evenodd" sketch:type="MSPage">
        <g id="Desktop" sketch:type="MSArtboardGroup" transform="translate(-661.000000, -690.000000)" fill="#666666">
            <g id="Group" sketch:type="MSLayerGroup" transform="translate(661.000000, 690.000000)">
                <path d="M14.5,4.15617284 C16.5744986,4.15617284 18.26,2.44125754 18.26,0.311111111 L17.76,0.311111111 C17.76,2.16703287 16.2964014,3.65617284 14.5,3.65617284 C12.7156787,3.65617284 11.24,2.14473235 11.24,0.311111111 L10.74,0.311111111 C10.74,2.41823061 12.4368213,4.15617284 14.5,4.15617284 Z" id="Shape" sketch:type="MSShapeGroup"></path>
                <path d="M0.75,27.9654321 L0.75,28.2154321 L1,28.2154321 L28,28.2154321 L28.25,28.2154321 L28.25,27.9654321 L28.25,0.311111111 L28.25,0.0611111111 L28,0.0611111111 L22.43125,0.0611111111 L22.2829649,0.109836357 L20.3592149,1.52712031 L20.1859014,1.65480549 L20.2864409,1.84515487 L21.4001909,3.95379684 L21.5779064,3.59082303 L19.4179064,3.97106995 L19.2141188,4.00694477 L19.2112736,4.21384646 L19.1775236,6.66816745 L19.4972317,6.43152686 L17.2359817,5.77473674 L17.0205351,5.71215931 L16.9350909,5.91960198 L16.0238409,8.13194766 L16.4228598,8.04189562 L14.6678598,6.45177216 L14.5,6.29968221 L14.3321402,6.45177216 L12.5771402,8.04189562 L12.9761591,8.13194766 L12.0649091,5.91960198 L11.9794649,5.71215931 L11.7640183,5.77473674 L9.50276825,6.43152686 L9.8225,6.67160494 L9.8225,4.21728395 L9.8225,4.00688923 L9.61519634,3.97095689 L7.42144634,3.59070997 L7.59980915,3.95379684 L8.71355915,1.84515487 L8.81409856,1.65480549 L8.64078511,1.52712031 L6.71703511,0.109836357 L6.56875,0.0611111111 L1,0.0611111111 L0.75,0.0611111111 L0.75,0.311111111 L0.75,27.9654321 Z M1,0.561111111 L6.56875,0.561111111 L6.42046489,0.512385865 L8.34421489,1.92966982 L8.27144085,1.61163526 L7.15769085,3.72027723 L6.99695883,4.02458814 L7.33605366,4.0833641 L9.52980366,4.46361101 L9.3225,4.21728395 L9.3225,6.67160494 L9.3225,7.00455052 L9.64223175,6.91168302 L11.9034817,6.25489289 L11.6025909,6.11002765 L12.5138409,8.32237333 L12.6492946,8.65122956 L12.9128598,8.41242537 L14.6678598,6.82230191 L14.3321402,6.82230191 L16.0871402,8.41242537 L16.3507054,8.65122956 L16.4861591,8.32237333 L17.3974091,6.11002765 L17.0965183,6.25489289 L19.3577683,6.91168302 L19.6729633,7.00323283 L19.6774764,6.67504243 L19.7112264,4.22072144 L19.5045936,4.46349795 L21.6645936,4.08325104 L22.0025978,4.0237487 L21.8423091,3.72027723 L20.7285591,1.61163526 L20.6557851,1.92966982 L22.5795351,0.512385865 L22.43125,0.561111111 L28,0.561111111 L27.75,0.311111111 L27.75,27.9654321 L28,27.7154321 L1,27.7154321 L1.25,27.9654321 L1.25,0.311111111 L1,0.561111111 Z" id="Shape" sketch:type="MSShapeGroup"></path>
                <path d="M9.3225,14.8641975 L9.3225,15.4781191 L9.75138025,15.0388453 L14.6788802,9.99193176 L14.3211198,9.99193176 L19.2486198,15.0388453 L19.6775,15.4781191 L19.6775,14.8641975 L19.6775,6.36049383 L19.1775,6.36049383 L19.1775,14.8641975 L19.6063802,14.6895497 L14.6788802,9.64263614 L14.5,9.45942089 L14.3211198,9.64263614 L9.39361975,14.6895497 L9.8225,14.8641975 L9.8225,6.39506173 L9.3225,6.39506173 L9.3225,14.8641975 Z" id="Shape" sketch:type="MSShapeGroup"></path>
                <path d="M10.605,18.5975309 L10.605,19.2114525 L11.0338802,18.7721787 L14.6788802,15.0388453 L14.3219339,15.0396753 L17.9669339,18.7384407 L18.395,19.1728211 L18.395,18.562963 L18.395,13.3777778 L17.895,13.3777778 L17.895,18.562963 L18.3230661,18.3874852 L14.6780661,14.6887198 L14.4991699,14.5071847 L14.3211198,14.6895497 L10.6761198,18.4228831 L11.105,18.5975309 L11.105,13.3777778 L10.605,13.3777778 L10.605,18.5975309 Z" id="Shape" sketch:type="MSShapeGroup"></path>
            </g>
        </g>
    </g>
</svg>