<?xml version="1.0" encoding="UTF-8" standalone="no"?>
<svg width="29px" height="29px" viewBox="0 0 29 29" version="1.1" xmlns="http://www.w3.org/2000/svg" xmlns:xlink="http://www.w3.org/1999/xlink" xmlns:sketch="http://www.bohemiancoding.com/sketch/ns">
    <!-- Generator: Sketch 3.2 (9961) - http://www.bohemiancoding.com/sketch -->
    <title>Group</title>
    <desc>Created with Sketch.</desc>
    <defs></defs>
    <g id="Page-1" stroke="none" stroke-width="1" fill="none" fill-rule="evenodd" sketch:type="MSPage">
        <g id="Desktop" sketch:type="MSArtboardGroup" transform="translate(-558.000000, -690.000000)" fill="#666666">
            <g id="Group" sketch:type="MSLayerGroup" transform="translate(558.000000, 690.000000)">
                <path d="M1.25,0.311111111 L1,0.561111111 L28,0.561111111 L27.75,0.311111111 L27.75,27.9654321 L28,27.7154321 L20.3725,27.7154321 L20.6225,27.9654321 L20.6225,19.6345679 C20.6225,17.4928805 18.9256787,15.7549383 16.82875,15.7549383 L16.6401276,15.7549383 L16.5883526,15.9363156 L14.2596026,24.0943403 L14.7403202,24.0940704 L12.4115702,15.9706136 L12.3596522,15.7895062 L12.17125,15.7895062 C10.0743213,15.7895062 8.3775,17.5274484 8.3775,19.6691358 L8.3775,28 L8.6275,27.75 L1,27.75 L1,28 L1.25,28 L1.25,0.311111111 Z M0.75,28.25 L1,28.25 L8.6275,28.25 L8.8775,28.25 L8.8775,28 L8.8775,19.6691358 C8.8775,17.8009467 10.3531787,16.2895062 12.17125,16.2895062 L11.9309298,16.1083987 L14.2596798,24.2318555 L14.5005103,25.0719528 L14.7403974,24.2315856 L17.0691474,16.073561 L16.82875,16.2549383 C18.6468213,16.2549383 20.1225,17.7663788 20.1225,19.6345679 L20.1225,27.9654321 L20.1225,28.2154321 L20.3725,28.2154321 L28,28.2154321 L28.25,28.2154321 L28.25,27.9654321 L28.25,0.311111111 L28.25,0.0611111111 L28,0.0611111111 L1,0.0611111111 L0.75,0.0611111111 L0.75,0.311111111 L0.75,27.9654321 L0.75,28.25 Z" id="Shape" sketch:type="MSShapeGroup"></path>
                <path d="M17.25375,10.5432099 C17.25375,12.2163711 15.9347853,13.5771605 14.2975,13.5771605 C12.6481787,13.5771605 11.34125,12.2385595 11.34125,10.5432099 L11.34125,9.78271605 L10.84125,9.78271605 L10.84125,10.5432099 C10.84125,12.5120578 12.3693213,14.0771605 14.2975,14.0771605 C16.214481,14.0771605 17.75375,12.4890808 17.75375,10.5432099 L17.75375,9.78271605 L17.25375,9.78271605 L17.25375,10.5432099 Z" id="Shape" sketch:type="MSShapeGroup"></path>
                <path id="Shape" sketch:type="MSShapeGroup"></path>
                <path id="Shape" sketch:type="MSShapeGroup"></path>
                <path d="M19.9475,6.04938272 L19.9475,5.79938272 L19.6975,5.79938272 L8.72875,5.79938272 L8.72875,6.29938272 L19.6975,6.29938272 L19.4475,6.04938272 L19.4475,8.71111111 L19.9475,8.71111111 L19.9475,6.04938272 Z" id="Shape" sketch:type="MSShapeGroup"></path>
                <path d="M20.3525,9.05679012 C20.3525,8.6909451 20.0606041,8.39197531 19.6975,8.39197531 C19.3343959,8.39197531 19.0425,8.6909451 19.0425,9.05679012 C19.0425,9.42263515 19.3343959,9.72160494 19.6975,9.72160494 C20.0606041,9.72160494 20.3525,9.42263515 20.3525,9.05679012 Z M19.5425,9.05679012 C19.5425,8.96444336 19.6132534,8.89197531 19.6975,8.89197531 C19.7817466,8.89197531 19.8525,8.96444336 19.8525,9.05679012 C19.8525,9.14913689 19.7817466,9.22160494 19.6975,9.22160494 C19.6132534,9.22160494 19.5425,9.14913689 19.5425,9.05679012 Z" id="Oval" sketch:type="MSShapeGroup"></path>
            </g>
        </g>
    </g>
</svg>