<?xml version="1.0" encoding="UTF-8" standalone="no"?>
<svg width="29px" height="29px" viewBox="0 0 29 29" version="1.1" xmlns="http://www.w3.org/2000/svg" xmlns:xlink="http://www.w3.org/1999/xlink" xmlns:sketch="http://www.bohemiancoding.com/sketch/ns">
    <!-- Generator: Sketch 3.2 (9961) - http://www.bohemiancoding.com/sketch -->
    <title>Group</title>
    <desc>Created with Sketch.</desc>
    <defs></defs>
    <g id="Page-1" stroke="none" stroke-width="1" fill="none" fill-rule="evenodd" sketch:type="MSPage">
        <g id="Desktop" sketch:type="MSArtboardGroup" transform="translate(-763.000000, -690.000000)" fill="#666666">
            <g id="Group" sketch:type="MSLayerGroup" transform="translate(763.000000, 690.000000)">
                <path d="M10.4450617,9.88641975 L10.3725303,10.0625019 L14.7626538,5.63781049 L14.5851852,5.7117284 L28.7234568,5.7117284 L28.9751403,5.7117284 L28.9734512,5.46005058 L28.9388833,0.309433297 L28.9372167,0.0611111111 L28.6888889,0.0611111111 L1.0691358,0.0611111111 L0.819135802,0.0611111111 L0.819135802,0.311111111 L0.819135802,27.9654321 L0.819135802,28.2154321 L1.0691358,28.2154321 L28.6888889,28.2154321 L28.9388889,28.2154321 L28.9388889,27.9654321 L28.9388889,22.8839506 L28.9388889,22.6339506 L28.6888889,22.6339506 L10.1950617,22.6339506 L10.4450617,22.8839506 L10.4450617,9.88641975 Z M9.94506173,23.1339506 L10.1950617,23.1339506 L28.6888889,23.1339506 L28.4388889,22.8839506 L28.4388889,27.9654321 L28.6888889,27.7154321 L1.0691358,27.7154321 L1.3191358,27.9654321 L1.3191358,0.311111111 L1.0691358,0.561111111 L28.6888889,0.561111111 L28.4388945,0.312788926 L28.4734624,5.46340621 L28.7234568,5.2117284 L14.5851852,5.2117284 L14.4077166,5.2856463 L10.0175932,9.71033765 L9.94506173,9.88641975 L9.94506173,22.8839506 L9.94506173,23.1339506 Z" id="Shape" sketch:type="MSShapeGroup"></path>
                <path id="Shape" sketch:type="MSShapeGroup"></path>
                <path id="Shape" sketch:type="MSShapeGroup"></path>
                <path id="Shape" sketch:type="MSShapeGroup"></path>
                <path id="Shape" sketch:type="MSShapeGroup"></path>
                <path id="Shape" sketch:type="MSShapeGroup"></path>
                <path id="Shape" sketch:type="MSShapeGroup"></path>
                <path id="Shape" sketch:type="MSShapeGroup"></path>
                <path id="Shape" sketch:type="MSShapeGroup"></path>
                <path id="Shape" sketch:type="MSShapeGroup"></path>
                <path id="Shape" sketch:type="MSShapeGroup"></path>
                <path d="M14.7580247,10.1364198 L15.0080247,10.1364198 L15.0080247,9.88641975 L15.0080247,5.5308642 L14.5080247,5.5308642 L14.5080247,9.88641975 L14.7580247,9.63641975 L10.2296296,9.63641975 L10.2296296,10.1364198 L14.7580247,10.1364198 Z" id="Shape" sketch:type="MSShapeGroup"></path>
            </g>
        </g>
    </g>
</svg>