<?xml version="1.0" encoding="UTF-8" standalone="no"?>
<svg width="24px" height="21px" viewBox="0 0 24 21" version="1.1" xmlns="http://www.w3.org/2000/svg" xmlns:xlink="http://www.w3.org/1999/xlink" xmlns:sketch="http://www.bohemiancoding.com/sketch/ns">
    <!-- Generator: Sketch 3.2 (9961) - http://www.bohemiancoding.com/sketch -->
    <title>Group</title>
    <desc>Created with Sketch.</desc>
    <defs></defs>
    <g id="Page-1" stroke="none" stroke-width="1" fill="none" fill-rule="evenodd" sketch:type="MSPage">
        <g id="Desktop" sketch:type="MSArtboardGroup" transform="translate(-686.000000, -889.000000)" fill="#666666">
            <g id="Group" sketch:type="MSLayerGroup" transform="translate(686.000000, 889.000000)">
                <path d="M23.8857143,2.29090909 C22.9571429,2.67272727 22.0285714,3.05454545 21.1,3.05454545 C22.0285714,2.48181818 22.9571429,1.52727273 23.3285714,0.190909091 C22.4,0.763636364 21.2857143,1.14545455 20.1714286,1.33636364 C19.2428571,0.572727273 17.9428571,0 16.6428571,0 C13.8571429,0 11.8142857,2.29090909 11.8142857,4.96363636 C11.8142857,5.34545455 11.8142857,5.72727273 12,6.10909091 C7.91428571,5.91818182 4.38571429,3.81818182 1.97142857,0.954545455 C1.41428571,1.71818182 1.04285714,2.48181818 1.04285714,3.43636364 C1.04285714,5.15454545 1.97142857,6.68181818 3.27142857,7.63636364 C2.52857143,7.63636364 1.78571429,7.44545455 1.04285714,7.06363636 L1.04285714,7.06363636 C1.04285714,9.54545455 2.71428571,11.4545455 4.94285714,12.0272727 C4.57142857,12.2181818 4.01428571,12.2181818 3.64285714,12.2181818 L2.71428571,12.2181818 C3.27142857,14.1272727 5.12857143,15.6545455 7.35714286,15.6545455 C5.68571429,16.9909091 3.64285714,17.7545455 1.22857143,17.7545455 L0.114285714,17.7545455 C2.34285714,19.0909091 4.75714286,20.0454545 7.54285714,20.0454545 C16.4571429,20.0454545 21.4714286,12.4090909 21.4714286,5.72727273 L21.4714286,5.15454545 C22.4,4.2 23.1428571,3.43636364 23.8857143,2.29090909 L23.8857143,2.29090909 Z" id="Shape" sketch:type="MSShapeGroup"></path>
            </g>
        </g>
    </g>
</svg>