<?xml version="1.0" encoding="UTF-8" standalone="no"?>
<svg width="20px" height="28px" viewBox="0 0 20 28" version="1.1" xmlns="http://www.w3.org/2000/svg" xmlns:xlink="http://www.w3.org/1999/xlink" xmlns:sketch="http://www.bohemiancoding.com/sketch/ns">
    <!-- Generator: Sketch 3.2 (9961) - http://www.bohemiancoding.com/sketch -->
    <title>Group</title>
    <desc>Created with Sketch.</desc>
    <defs></defs>
    <g id="Page-1" stroke="none" stroke-width="1" fill="none" fill-rule="evenodd" sketch:type="MSPage">
        <g id="Desktop" sketch:type="MSArtboardGroup" transform="translate(-514.000000, -888.000000)" fill="#666666">
            <g id="Group" sketch:type="MSLayerGroup" transform="translate(514.000000, 888.000000)">
                <path d="M19.3333333,7.04242424 L6.70588235,0.424242424 C5.05882353,-0.127272727 1.49019608,1.52727273 0.666666667,2.90606061 C0.117647059,3.73333333 0.117647059,4.28484848 0.117647059,4.56060606 L0.392156863,19.1757576 C0.392156863,19.4515152 0.666666667,20.0030303 1.21568627,20.0030303 C2.03921569,20.5545455 12.4705882,26.8969697 12.745098,27.1727273 C13.0196078,27.1727273 13.0196078,27.4484848 13.2941176,27.4484848 L13.8431373,27.4484848 C14.1176471,27.1727273 14.3921569,26.8969697 14.3921569,26.6212121 L14.3921569,11.1787879 C14.3921569,10.9030303 14.1176471,10.6272727 13.8431373,10.3515152 L2.31372549,4.00909091 C2.31372549,3.73333333 2.8627451,3.18181818 3.96078431,2.63030303 C5.05882353,2.07878788 5.60784314,2.35454545 5.88235294,2.35454545 C5.88235294,2.35454545 16.8627451,8.14545455 17.1372549,8.42121212 C17.4117647,8.6969697 17.4117647,8.6969697 17.4117647,8.97272727 L17.4117647,23.5878788 C17.4117647,24.4151515 18.2352941,24.6909091 18.7843137,24.6909091 C19.3333333,24.6909091 19.8823529,24.1393939 19.8823529,23.5878788 L19.8823529,7.86969697 C19.6078431,7.59393939 19.6078431,7.31818182 19.3333333,7.04242424 L19.3333333,7.04242424 L19.3333333,7.04242424 Z" id="Shape" sketch:type="MSShapeGroup"></path>
            </g>
        </g>
    </g>
</svg>