<?xml version="1.0" encoding="UTF-8" standalone="no"?>
<svg width="26px" height="26px" viewBox="0 0 26 26" version="1.1" xmlns="http://www.w3.org/2000/svg" xmlns:xlink="http://www.w3.org/1999/xlink" xmlns:sketch="http://www.bohemiancoding.com/sketch/ns">
    <!-- Generator: Sketch 3.2 (9961) - http://www.bohemiancoding.com/sketch -->
    <title>Group</title>
    <desc>Created with Sketch.</desc>
    <defs></defs>
    <g id="Page-1" stroke="none" stroke-width="1" fill="none" fill-rule="evenodd" sketch:type="MSPage">
        <g id="Desktop" sketch:type="MSArtboardGroup" transform="translate(-614.000000, -809.000000)" fill="#666666">
            <g id="Group" sketch:type="MSLayerGroup" transform="translate(614.000000, 809.000000)">
                <path d="M10.1244729,9.82879691 C9.9347644,9.63688251 9.74195454,9.44137626 9.47966095,9.17508545 C9.15658242,8.84700762 8.98585805,8.6736553 8.83236438,8.51794351 C8.30722181,7.98521217 7.91306411,7.58737869 7.52284271,7.19715729 L7.03226694,6.70658151 L6.85350602,7.37693494 C6.72201068,7.87004248 6.6063939,8.25653287 6.33797435,9.12144031 C6.0663939,9.99653287 5.94867735,10.3900425 5.81350602,10.8969349 L6.2,11 L6.48284271,10.7171573 C6.36354027,10.5978548 6.3199544,10.5559454 6.25607376,10.5027115 C6.17022178,10.4311682 6.08396108,10.3747669 5.97888544,10.3222291 L5.8,10.68 L6.09038107,10.4049021 C5.59617384,9.88323895 3.7323172,7.88394636 3.9220483,8.08667274 C3.03539199,7.13928655 2.35960317,6.43391775 1.68284271,5.75715729 C1.53395076,5.60826533 1.51579994,5.51751125 1.61947332,5.20649111 C1.71452651,4.89793589 2.41660269,2.54391577 2.66179199,1.75931 L1.9695544,1.89223705 C3.21929747,3.43038237 4.07168785,4.50891714 4.92,5.64 L5.39864865,6.2781982 L5.6237462,5.51286653 C5.79000485,4.94758712 5.92312304,4.50496913 6.22280976,3.51600296 C6.52312304,2.52496913 6.65667152,2.08092046 6.8237462,1.51286653 L6.08998638,1.59362455 C7.2047958,3.60885696 7.62159896,4.38318461 10.1050721,9.02571331 C10.9387773,10.5842161 11.5074245,11.641734 12.0885502,12.7110053 L12.1571573,12.8028427 C12.0554178,12.7011032 12.0554178,12.5494361 12.1147806,12.450498 C12.1359739,12.4192689 12.1359739,12.4192689 12.1571573,12.3971573 L12.44,12.68 L12.7161903,12.3906578 C11.9408682,11.6505776 11.1656602,10.8820911 10.1244729,9.82879691 Z M12.4465013,13.2391842 L12.7228427,12.9628427 C12.752915,12.9318422 12.752915,12.9318422 12.8007749,12.8620946 C12.9134711,12.6742676 12.9134711,12.4277857 12.7228427,12.2371573 L12.44,12.52 L12.7914498,12.3289947 C12.2113505,11.261612 11.643424,10.2054344 10.8104834,8.64836077 C8.32483742,4.00177029 7.9074378,3.22633454 6.79001362,1.20637545 L6.3264637,0.36841982 L6.0562538,1.28713347 C5.88999515,1.85241288 5.75687696,2.29503087 5.45719024,3.28399704 C5.15687696,4.27503087 5.02332848,4.71907954 4.8562538,5.28713347 L5.56,5.16 C4.70431215,4.01908286 3.84615707,2.93325399 2.5904456,1.38776295 L2.12049713,0.809364828 L1.89820801,1.52069 C1.65108962,2.31146884 0.948330631,4.6677784 0.857688397,4.96236566 C0.664200061,5.54248875 0.746049245,5.95173467 1.11715729,6.32284271 C1.78655067,6.9922361 2.4568095,7.69183285 3.3379517,8.63332726 C3.14609189,8.42832637 5.01281493,10.4306936 5.50961893,10.9550979 L5.62111456,11.0377709 C5.67103892,11.0627331 5.7054925,11.0852604 5.74392624,11.1172885 C5.7820456,11.1490546 5.81645973,11.1821452 5.91715729,11.2828427 L6.40773306,11.7734185 L6.58649398,11.1030651 C6.71798932,10.6099575 6.8336061,10.2234671 7.10202565,9.35855969 C7.3736061,8.48346713 7.49132265,8.08995752 7.62649398,7.58306506 L6.95715729,7.76284271 C7.34578204,8.15146747 7.73872075,8.54807059 8.26263562,9.07955649 C8.41597667,9.23511345 8.58654258,9.40830488 8.90971405,9.73647705 C9.17231252,10.0030774 9.36542154,10.198887 9.55552711,10.3912031 C10.6016908,11.4495314 11.3818461,12.2229224 12.1638097,12.9693422 L12.4465013,13.2391842 Z" id="Shape" sketch:type="MSShapeGroup"></path>
                <path d="M15.3955271,15.6912031 C15.5852356,15.8831175 15.7780455,16.0786237 16.040339,16.3449145 C16.3634176,16.6729924 16.5341419,16.8463447 16.6876356,17.0020565 C17.2127782,17.5347878 17.6069359,17.9326213 17.9971573,18.3228427 L18.4877331,18.8134185 L18.666494,18.1430651 C18.7979893,17.6499575 18.9136061,17.2634671 19.1820257,16.3985597 C19.4536061,15.5234671 19.5713227,15.1299575 19.706494,14.6230651 L19.32,14.52 L19.0371573,14.8028427 C19.1564597,14.9221452 19.2000456,14.9640546 19.2639262,15.0172885 C19.3497782,15.0888318 19.4360389,15.1452331 19.5411146,15.1977709 L19.72,14.84 L19.4296189,15.1150979 C19.9238262,15.6367611 21.7876828,17.6360536 21.5979517,17.4333273 C22.484608,18.3807135 23.1603968,19.0860823 23.8371573,19.7628427 C23.9860492,19.9117347 24.0042001,20.0024888 23.9005267,20.3135089 C23.8054735,20.6220641 23.1033973,22.9760842 22.858208,23.76069 L23.5504456,23.6277629 C22.3007025,22.0896176 21.4483121,21.0110829 20.6,19.88 L20.1213513,19.2418018 L19.8962538,20.0071335 C19.7299952,20.5724129 19.596877,21.0150309 19.2971902,22.003997 C18.996877,22.9950309 18.8633285,23.4390795 18.6962538,24.0071335 L19.4300136,23.9263754 C18.3152042,21.911143 17.898401,21.1368154 15.4149279,16.4942867 C14.5812227,14.9357839 14.0125755,13.878266 13.4314498,12.8089947 L13.08,13 L13.48,13 L13.48,12.84 L13.08,12.84 L12.8038097,13.1293422 C13.5791318,13.8694224 14.3543398,14.6379089 15.3955271,15.6912031 Z M12.68,11.9052034 L12.68,12.84 L12.68,13 L12.7285502,13.1910053 C13.3086495,14.258388 13.876576,15.3145656 14.7095166,16.8716392 C17.1951626,21.5182297 17.6125622,22.2936655 18.7299864,24.3136246 L19.1935363,25.1515802 L19.4637462,24.2328665 C19.6300048,23.6675871 19.763123,23.2249691 20.0628098,22.236003 C20.363123,21.2449691 20.4966715,20.8009205 20.6637462,20.2328665 L19.96,20.36 C20.8156879,21.5009171 21.6738429,22.586746 22.9295544,24.1322371 L23.3995029,24.7106352 L23.621792,23.99931 C23.8689104,23.2085312 24.5716694,20.8522216 24.6623116,20.5576343 C24.8557999,19.9775112 24.7739508,19.5682653 24.4028427,19.1971573 C23.7334493,18.5277639 23.0631905,17.8281671 22.1820483,16.8866727 C22.3739081,17.0916736 20.5071851,15.0893064 20.0103811,14.5649021 L19.8988854,14.4822291 C19.8489611,14.4572669 19.8145075,14.4347396 19.7760738,14.4027115 C19.7379544,14.3709454 19.7035403,14.3378548 19.6028427,14.2371573 L19.1122669,13.7465815 L18.933506,14.4169349 C18.8020107,14.9100425 18.6863939,15.2965329 18.4179743,16.1614403 C18.1463939,17.0365329 18.0286773,17.4300425 17.893506,17.9369349 L18.5628427,17.7571573 C18.174218,17.3685325 17.7812793,16.9719294 17.2573644,16.4404435 C17.1040233,16.2848865 16.9334574,16.1116951 16.610286,15.783523 C16.3476875,15.5169226 16.1545785,15.321113 15.9644729,15.1287969 C14.9183092,14.0704686 14.1381539,13.2970776 13.3561903,12.5506578 L12.68,11.9052034 Z" id="Shape" sketch:type="MSShapeGroup"></path>
                <path d="M15.6912031,10.1244729 C15.8831175,9.9347644 16.0786237,9.74195454 16.3449145,9.47966095 C16.6729924,9.15658242 16.8463447,8.98585805 17.0020565,8.83236438 C17.5347878,8.30722181 17.9326213,7.91306411 18.3228427,7.52284271 L18.8134185,7.03226694 L18.1430651,6.85350602 C17.6499575,6.72201068 17.2634671,6.6063939 16.3985597,6.33797435 C15.5234671,6.0663939 15.1299575,5.94867735 14.6230651,5.81350602 L14.52,6.2 L14.8028427,6.48284271 C14.9221452,6.36354027 14.9640546,6.3199544 15.0172885,6.25607376 C15.0888318,6.17022178 15.1452331,6.08396108 15.1977709,5.97888544 L14.84,5.8 L15.1150979,6.09038107 C15.6367611,5.59617384 17.6360536,3.7323172 17.4333273,3.9220483 C18.3807135,3.03539199 19.0860823,2.35960317 19.7628427,1.68284271 C19.9117347,1.53395076 20.0024888,1.51579994 20.3135089,1.61947332 C20.6220641,1.71452651 22.9760842,2.41660269 23.76069,2.66179199 L23.6277629,1.9695544 C22.0896176,3.21929747 21.0110829,4.07168785 19.88,4.92 L19.2418018,5.39864865 L20.0071335,5.6237462 C20.5724129,5.79000485 21.0150309,5.92312304 22.003997,6.22280976 C22.9950309,6.52312304 23.4390795,6.65667152 24.0071335,6.8237462 L23.9263754,6.08998638 C21.911143,7.2047958 21.1368154,7.62159896 16.4942867,10.1050721 C14.9357839,10.9387773 13.878266,11.5074245 12.8089947,12.0885502 L12.7171573,12.1571573 C12.7789751,12.0953395 12.7731495,12.1 12.92,12.1 C13.0668505,12.1 13.0610249,12.0953395 13.1228427,12.1571573 L12.84,12.44 L13.1293422,12.7161903 C13.8694224,11.9408682 14.6379089,11.1656602 15.6912031,10.1244729 Z M12.2808158,12.4465013 L12.5571573,12.7228427 C12.5869365,12.7530415 12.5869365,12.7530415 12.637622,12.7973475 C12.7148546,12.8591336 12.8016956,12.9 12.92,12.9 C13.0383044,12.9 13.1251454,12.8591336 13.202378,12.7973475 C13.2530635,12.7530415 13.2530635,12.7530415 13.2828427,12.7228427 L13,12.44 L13.1910053,12.7914498 C14.258388,12.2113505 15.3145656,11.643424 16.8716392,10.8104834 C21.5182297,8.32483742 22.2936655,7.9074378 24.3136246,6.79001362 L25.1515802,6.3264637 L24.2328665,6.0562538 C23.6675871,5.88999515 23.2249691,5.75687696 22.236003,5.45719024 C21.2449691,5.15687696 20.8009205,5.02332848 20.2328665,4.8562538 L20.36,5.56 C21.5009171,4.70431215 22.586746,3.84615707 24.1322371,2.5904456 L24.7106352,2.12049713 L23.99931,1.89820801 C23.2085312,1.65108962 20.8522216,0.948330631 20.5576343,0.857688397 C19.9775112,0.664200061 19.5682653,0.746049245 19.1971573,1.11715729 C18.5277639,1.78655067 17.8281671,2.4568095 16.8866727,3.3379517 C17.0916736,3.14609189 15.0893064,5.01281493 14.5649021,5.50961893 L14.4822291,5.62111456 C14.4572669,5.67103892 14.4347396,5.7054925 14.4027115,5.74392624 C14.3709454,5.7820456 14.3378548,5.81645973 14.2371573,5.91715729 L13.7465815,6.40773306 L14.4169349,6.58649398 C14.9100425,6.71798932 15.2965329,6.8336061 16.1614403,7.10202565 C17.0365329,7.3736061 17.4300425,7.49132265 17.9369349,7.62649398 L17.7571573,6.95715729 C17.3685325,7.34578204 16.9719294,7.73872075 16.4404435,8.26263562 C16.2848865,8.41597667 16.1116951,8.58654258 15.783523,8.90971405 C15.5169226,9.17231252 15.321113,9.36542154 15.1287969,9.55552711 C14.0704686,10.6016908 13.2970776,11.3818461 12.5506578,12.1638097 L12.2808158,12.4465013 Z" id="Shape" sketch:type="MSShapeGroup"></path>
                <path d="M9.82879691,15.4755271 C9.63688251,15.6652356 9.44137626,15.8580455 9.17508545,16.120339 C8.84700762,16.4434176 8.6736553,16.6141419 8.51794351,16.7676356 C7.98521217,17.2927782 7.58737869,17.6869359 7.19715729,18.0771573 L6.70658151,18.5677331 L7.37693494,18.746494 C7.87004248,18.8779893 8.25653287,18.9936061 9.12144031,19.2620257 C9.99653287,19.5336061 10.3900425,19.6513227 10.8969349,19.786494 L11,19.4 L10.7171573,19.1171573 C10.5978548,19.2364597 10.5559454,19.2800456 10.5027115,19.3439262 C10.4311682,19.4297782 10.3747669,19.5160389 10.3222291,19.6211146 L10.68,19.8 L10.4049021,19.5096189 C9.88323895,20.0038262 7.88394636,21.8676828 8.08667274,21.6779517 C7.13928655,22.564608 6.43391775,23.2403968 5.75715729,23.9171573 C5.60826533,24.0660492 5.51751125,24.0842001 5.20649111,23.9805267 C4.89793589,23.8854735 2.54391577,23.1833973 1.75931,22.938208 L1.89223705,23.6304456 C3.43038237,22.3807025 4.50891714,21.5283121 5.64,20.68 L6.2781982,20.2013513 L5.51286653,19.9762538 C4.94758712,19.8099952 4.50496913,19.676877 3.51600296,19.3771902 C2.52496913,19.076877 2.08092046,18.9433285 1.51286653,18.7762538 L1.59362455,19.5100136 C3.60885696,18.3952042 4.38318461,17.978401 9.02571331,15.4949279 C10.5842161,14.6612227 11.641734,14.0925755 12.7110053,13.5114498 L12.8028427,13.4428427 C12.6794925,13.5661929 12.28,13.5661929 12.28,13.16 L12.68,13.16 L12.3906578,12.8838097 C11.6505776,13.6591318 10.8820911,14.4343398 9.82879691,15.4755271 Z M13.08,13.3202631 L13.08,13.16 C13.08,12.5938071 12.5205075,12.5938071 12.2371573,12.8771573 L12.52,13.16 L12.3289947,12.8085502 C11.261612,13.3886495 10.2054344,13.956576 8.64836077,14.7895166 C4.00177029,17.2751626 3.22633454,17.6925622 1.20637545,18.8099864 L0.36841982,19.2735363 L1.28713347,19.5437462 C1.85241288,19.7100048 2.29503087,19.843123 3.28399704,20.1428098 C4.27503087,20.443123 4.71907954,20.5766715 5.28713347,20.7437462 L5.16,20.04 C4.01908286,20.8956879 2.93325399,21.7538429 1.38776295,23.0095544 L0.809364828,23.4795029 L1.52069,23.701792 C2.31146884,23.9489104 4.6677784,24.6516694 4.96236566,24.7423116 C5.54248875,24.9357999 5.95173467,24.8539508 6.32284271,24.4828427 C6.9922361,23.8134493 7.69183285,23.1431905 8.63332726,22.2620483 C8.42832637,22.4539081 10.4306936,20.5871851 10.9550979,20.0903811 L11.0377709,19.9788854 C11.0627331,19.9289611 11.0852604,19.8945075 11.1172885,19.8560738 C11.1490546,19.8179544 11.1821452,19.7835403 11.2828427,19.6828427 L11.7734185,19.1922669 L11.1030651,19.013506 C10.6099575,18.8820107 10.2234671,18.7663939 9.35855969,18.4979743 C8.48346713,18.2263939 8.08995752,18.1086773 7.58306506,17.973506 L7.76284271,18.6428427 C8.15146747,18.254218 8.54807059,17.8612793 9.07955649,17.3373644 C9.23511345,17.1840233 9.40830488,17.0134574 9.73647705,16.690286 C10.0030774,16.4276875 10.198887,16.2345785 10.3912031,16.0444729 C11.4495314,14.9983092 12.2229224,14.2181539 12.9693422,13.4361903 L13.08,13.3202631 Z" id="Shape" sketch:type="MSShapeGroup"></path>
            </g>
        </g>
    </g>
</svg>