<?xml version="1.0" encoding="UTF-8" standalone="no"?>
<svg width="25px" height="27px" viewBox="0 0 25 27" version="1.1" xmlns="http://www.w3.org/2000/svg" xmlns:xlink="http://www.w3.org/1999/xlink" xmlns:sketch="http://www.bohemiancoding.com/sketch/ns">
    <!-- Generator: Sketch 3.2 (9961) - http://www.bohemiancoding.com/sketch -->
    <title>Group</title>
    <desc>Created with Sketch.</desc>
    <defs></defs>
    <g id="Page-1" stroke="none" stroke-width="1" fill="none" fill-rule="evenodd" sketch:type="MSPage">
        <g id="Desktop" sketch:type="MSArtboardGroup" transform="translate(-561.000000, -808.000000)" fill="#666666">
            <g id="Group" sketch:type="MSLayerGroup" transform="translate(560.000000, 808.000000)">
                <path d="M23.4673916,13.4104319 C23.4516598,13.3805018 23.7119333,13.8748208 23.7817735,14.0083177 C24.0288314,14.4805596 24.2004265,14.8216269 24.3559696,15.1559407 C24.5428868,15.5576881 24.6932391,15.9238777 24.8149769,16.2806804 C25.2191245,17.4652002 24.7202607,18.5482555 23.4619832,19.2713726 C22.4490303,19.7987884 21.3175195,20.0060606 19.7903226,20.0060606 L18.3387097,20.0060606 L18.0940825,20.0060606 L17.9826333,20.2238255 C17.8405337,20.5014796 17.7427461,20.7316332 17.5348124,21.2540061 C17.2411144,21.9918363 17.0987846,22.301339 16.8792732,22.6230229 C16.3320116,23.5132376 15.7156637,24.2902095 15.0925647,24.8313196 C13.9466803,25.8108611 12.5690687,25.791905 11.5214643,24.7684272 C11.0462631,24.3041701 10.6553718,23.822237 9.99614244,22.928148 C10.007064,22.9429605 9.70877186,22.5375869 9.62409378,22.423272 C9.37176664,22.0826317 9.17403252,21.8235362 8.97299271,21.5735601 L8.85290604,21.4242424 L8.66129032,21.4242424 C7.97517294,21.4242424 7.31199043,21.4639103 5.72808844,21.582943 C5.31681028,21.5818182 4.87468664,21.5098279 4.43031188,21.3651144 C2.66768645,20.8625669 1.85808433,19.4928613 2.35102589,17.8416992 C2.55072588,17.2573235 2.81193882,16.6799923 3.23107635,15.861023 C3.3160607,15.6949687 3.40243858,15.5283658 3.57733642,15.1917349 C3.89140086,14.5859394 4.07952878,14.2087387 4.26732081,13.7959376 L4.37036801,13.5694212 L4.21270606,13.3768825 C4.10714626,13.2479716 3.58589408,12.6663823 3.4541738,12.5101832 C3.25026893,12.2683849 3.08568188,12.0513095 2.94985259,11.8389877 C2.89754795,11.7438317 2.90844059,11.7629676 2.71385812,11.4221556 C2.13464039,10.4076532 1.90120748,9.88788134 1.79835664,9.23474734 C1.59664706,8.05216826 2.15449571,7.0852306 3.37006451,6.41722029 C4.61730379,5.77606737 6.00679197,5.64362953 8.05971637,5.83464333 C8.21516299,5.83636364 8.27429347,5.83788386 8.34013864,5.84431674 C8.4111519,5.85125452 8.46217954,5.86306168 8.48572348,5.87456254 L8.86017999,6.05747887 L9.02759513,5.67583999 C9.1883107,5.30947344 9.25962262,5.14805789 9.34844661,4.95128889 C9.49638896,4.62355681 9.62300917,4.35642213 9.74317312,4.12162904 C9.99925099,3.62126842 10.2464918,3.25259182 10.8390309,2.44214185 C12.4352757,0.673103562 14.3255518,0.692142144 15.8530033,2.53971928 C16.1992701,2.94574285 16.4969298,3.42471497 16.8536011,4.12162904 L16.9301486,4.22551216 C17.2772624,4.56463179 17.4949469,4.98997423 17.7182027,5.64431672 L17.8106091,5.91515152 L18.0967742,5.91515152 L20.9193548,5.91515152 C21.2208465,5.91515152 21.4729322,5.95209353 22.0523253,6.06530343 C23.9418807,6.56316694 24.812536,8.01305988 24.2475069,9.80711298 C24.0922807,10.4596148 23.8589318,11.0257521 23.4559868,11.8177687 C23.3934611,11.9406674 23.178743,12.3557907 23.1439237,12.4238255 L23.0506582,12.6060606 L23.1439237,12.7882957 C23.239991,12.9760056 23.3381463,13.16454 23.4673916,13.4104319 Z M23.8560763,12.7882957 C23.8896614,12.7226725 24.104983,12.3063826 24.1690132,12.1805268 C24.5984087,11.3365197 24.8531476,10.7184872 25.0183196,10.019226 C25.7169846,7.80441996 24.5748574,5.9024478 22.2307834,5.28588531 C21.5754549,5.15699738 21.2899062,5.11515152 20.9193548,5.11515152 L18.0967742,5.11515152 L18.4753457,5.38598631 C18.2147305,4.62214698 17.9485441,4.10203487 17.4892062,3.65327572 L17.5657538,3.75715883 C17.1831777,3.00962847 16.8554837,2.48232732 16.4656184,2.02526341 C14.6282151,-0.197300081 12.1649457,-0.222109766 10.2189214,1.9383525 C9.57608889,2.81407484 9.31257697,3.20701441 9.03102042,3.75715883 C8.90404598,4.0052592 8.77217222,4.28347747 8.61929533,4.62214088 C8.52890785,4.82237344 8.45685059,4.98547606 8.29498551,5.35446304 L8.66129032,5.51515152 L8.83685716,5.15574049 C8.71322369,5.09534741 8.57566572,5.06351821 8.41792587,5.0481075 C8.31816045,5.03836072 8.24048217,5.03636364 8.09677419,5.03636364 C5.94268336,4.8342091 4.41669274,4.97965754 2.99450579,5.71093836 C1.48873332,6.53825551 0.746345842,7.82506046 1.00892233,9.36423611 C1.13073272,10.1379789 1.39343934,10.722933 2.01911679,11.8188097 C2.21164637,12.156026 2.20093164,12.1372027 2.26364988,12.249538 C2.4330278,12.5156335 2.6178405,12.7593847 2.84260039,13.0259137 C2.98623008,13.1962354 3.5022379,13.7719733 3.59374556,13.8837236 L3.5391308,13.4646684 C3.35842851,13.8618849 3.17531205,14.2290376 2.86710803,14.8235289 C2.6925435,15.159513 2.60503025,15.3283057 2.51892365,15.4965528 C2.0837265,16.3469016 1.80859311,16.9549997 1.58917047,17.5981075 C0.960564795,19.7026454 2.03054016,21.5128571 4.19683519,22.1301417 C4.70595852,22.2962327 5.23157681,22.3818182 5.75806452,22.3818182 C7.3492999,22.2633624 8.00332169,22.2242424 8.66129032,22.2242424 L8.34958793,22.0749247 C8.5428496,22.3152294 8.73469417,22.5666077 8.98124896,22.8994553 C9.0650349,23.0125658 9.36248543,23.4167957 9.35224466,23.4029065 C10.0357001,24.3298524 10.4477015,24.8378123 10.9624067,25.3406637 C12.3111156,26.6583114 14.156801,26.6837083 15.6147529,25.4373804 C16.309538,24.834033 16.9744401,23.9958533 17.5505294,23.057817 C17.8044412,22.6865398 17.9621114,22.3436788 18.2780909,21.5498727 C18.4766087,21.0511547 18.5680685,20.8358941 18.694786,20.5882957 L18.3387097,20.8060606 L19.7903226,20.8060606 C21.4351687,20.8060606 22.6873863,20.5766771 23.8461247,19.9729159 C25.4319974,19.0619263 26.1082605,17.5937295 25.5721198,16.02235 C25.4404726,15.6365039 25.2795215,15.2445004 25.0813064,14.8184701 C24.9194958,14.4706851 24.7429497,14.1197771 24.490628,13.6374736 C24.4202103,13.5028729 24.1593393,13.0074191 24.1755295,13.0382213 C24.0475208,12.7946821 23.9505935,12.6085062 23.8560763,12.4238255 L23.8560763,12.7882957 Z M18.2841924,11.909721 C18.2598912,11.5456841 18.2587417,11.5317583 18.1727463,10.5235801 C18.1741935,10.1813649 17.8600575,9.72101292 17.5465346,9.5678617 C16.6636203,9.09708216 15.6872878,8.62015853 14.7913755,8.22230435 C14.4304639,8.10253763 14.021149,8.10253763 13.6987204,8.20753863 C12.3165186,8.95019036 10.8562082,9.77101935 9.26843479,10.6834938 C8.90470845,10.9196533 8.66451613,11.3554515 8.66451613,11.7393939 L8.66451613,15.0484848 C8.66451613,15.4642633 9.02140362,16.0066362 9.42452683,16.1379159 C11.4348532,17.0651285 12.3335974,17.4844937 13.4050783,18.0078959 C14.3297641,18.5009352 15.1416975,18.3788991 16.2022814,17.7572042 C17.9039237,16.9272561 18.6654974,15.7793173 18.4119201,14.0451559 L18.3465332,13.8775684 C18.3267691,13.848605 18.3153226,13.7982819 18.3153226,13.7090909 C18.3153226,13.6643823 18.3176872,13.6216451 18.3242584,13.5349761 C18.3330013,13.4196658 18.3354839,13.3780294 18.3354839,13.3151515 C18.3354839,12.867926 18.3181924,12.4190481 18.2841924,11.909721 Z M17.526548,13.4744936 C17.5185024,13.5806087 17.5153226,13.6380798 17.5153226,13.7090909 C17.5153226,13.9449 17.5609997,14.1457132 17.6857248,14.3284922 L18.016129,14.1030303 L17.620338,14.1609047 C17.8182657,15.5144903 17.2644369,16.3492902 15.8244332,17.0527102 C14.9534081,17.5619577 14.4194294,17.6422163 13.7687593,17.2954791 C12.6771553,16.761971 11.7748243,16.3409321 9.71547448,15.3941452 C9.61349374,15.3581021 9.46451613,15.1316963 9.46451613,15.0484848 L9.46451613,11.7393939 C9.46451613,11.6280982 9.56625929,11.4434983 9.68604659,11.3654792 C11.2496386,10.467617 12.7045733,9.64980964 14.0133913,8.93943434 C14.1078832,8.91564419 14.3437297,8.91564419 14.505172,8.96821894 C15.3449702,9.34347784 16.3041216,9.81200875 17.1828536,10.2802785 C17.2447812,10.3108053 17.3741935,10.5004532 17.3741935,10.5575758 C17.4610164,11.5924841 17.462158,11.6063132 17.4859689,11.9630062 C17.51886,12.4557208 17.5354839,12.8872688 17.5354839,13.3151515 C17.5354839,13.3499378 17.5336135,13.381307 17.526548,13.4744936 Z M7.71574092,11.0155452 C7.89742875,10.8388124 8.01290323,10.5755772 8.01290323,10.3212121 C8.07550072,9.88971259 8.13876011,9.50913922 8.2890742,8.65739581 C8.44117947,7.79550286 8.50560824,7.40789441 8.57374544,6.90863462 L8.62542609,6.5299564 L8.24949283,6.46109226 C6.80727594,6.19690435 5.4733768,6.23762869 4.18965256,6.6295536 C2.57803798,7.18498891 1.99187479,8.3823766 2.65106229,9.85439082 C2.91231992,10.3660591 3.1833959,10.8152159 3.6181865,11.4845618 C3.68166821,11.5822899 3.90829597,11.9292926 3.95324132,11.998378 C4.23304015,12.4284565 4.42271089,12.7304311 4.60633686,13.0443758 L4.84207081,13.4474095 L5.20415652,13.1526205 C6.05548267,12.4595206 6.70419925,11.9049662 7.71574092,11.0155452 Z M5.29688895,12.6404726 C5.10554938,12.31334 4.90995174,12.0019292 4.62381961,11.5621158 C4.57829763,11.492144 4.35187794,11.1454599 4.28907156,11.0487715 C3.86806416,10.4006443 3.60911471,9.97158047 3.37220538,9.50867399 C2.92140175,8.50067348 3.26761959,7.79343533 4.4368429,7.39027212 C5.57680241,7.04250599 6.78258581,7.00569305 8.10534588,7.24799865 L7.78109327,6.80045629 C7.71482186,7.28604498 7.65156247,7.66661835 7.50124838,8.51836177 C7.34914311,9.38025472 7.28471434,9.76786316 7.21657715,10.267123 C7.21290323,10.3557359 7.18724867,10.4142179 7.17208408,10.4290333 C6.18289752,11.2980641 5.54129152,11.84654 4.69906928,12.532228 L5.29688895,12.6404726 Z M2.86802723,18.1900697 C2.65237861,19.1381395 2.95038145,19.9850914 3.79306034,20.4424646 C5.08001899,21.182201 6.47688224,21.2195898 8.42357444,20.7969544 L8.80513183,20.7141166 L8.73154047,20.3306685 C8.55001464,19.3848272 8.46932085,18.9660143 8.36841417,18.4484547 C8.23512783,17.764817 8.11738155,17.1728683 8.00477618,16.6228082 C8.01290323,16.440432 7.83097986,16.1205115 7.65049657,15.9441848 C7.02081971,15.4047452 6.32768318,14.9344859 5.39582975,14.3882504 L5.10891791,14.2200679 L4.89118803,14.4714589 C3.82540373,15.702014 3.17591684,16.836475 2.86802723,18.1900697 Z M4.99126703,15.0784163 C5.8857893,15.602769 6.54245573,16.0482851 7.11105357,16.5343501 C7.13272982,16.5567612 7.21290323,16.6977498 7.21290323,16.7030303 C7.33307928,17.3305949 7.45035604,17.920183 7.58319873,18.6015453 C7.68390496,19.1180767 7.76450149,19.5363849 7.94587888,20.4814527 L8.25384492,20.0151668 C6.48299187,20.3996267 5.26721868,20.367085 4.18317811,19.7440998 C3.67477431,19.4680234 3.50653689,18.9898769 3.64810181,18.367506 C3.92320012,17.1580738 4.50927369,16.1343771 5.49590874,14.9952078 L4.99126703,15.0784163 Z M11.931588,6.62650701 C12.666987,6.85102655 13.2437499,7.01729928 13.8023818,7.16283702 C13.9159789,7.22716002 14.0500009,7.22716002 14.2900911,7.18806655 C14.349381,7.17841249 14.3711209,7.17575758 14.3870968,7.17575758 L14.510957,7.15609773 C14.6784467,7.10155364 14.8557875,7.04116302 15.077244,6.96379054 C15.1913518,6.92392357 15.5915533,6.78278765 15.6585876,6.75927823 C16.1538091,6.58560054 16.496045,6.47204632 16.8383102,6.3717315 L17.2249809,6.25840183 L17.108826,5.87257039 C16.6261042,4.26911487 15.9864953,3.13652261 14.9645362,2.29170307 C13.8654108,1.41306011 12.6672961,1.41306011 11.8223684,2.4219664 C11.3129839,2.86857788 10.883384,3.41782291 10.3062879,4.30487672 C10.2357814,4.41325216 9.76288686,5.15306197 9.61746396,5.3740656 L9.32462223,5.81910616 L9.83369073,5.97616231 C10.072125,6.04972326 11.5385789,6.50652014 11.931588,6.62650701 Z M10.2857618,5.81381319 C10.4347578,5.58737948 10.9091956,4.84515539 10.9768662,4.74113899 C11.51817,3.9091014 11.9095806,3.4086816 12.394655,2.97786068 C12.9763989,2.28997019 13.6811842,2.28997019 14.4599254,2.91244827 C15.336647,3.63727507 15.9015819,4.63763769 16.3427869,6.10318718 L16.6133027,5.60402607 C16.2547231,5.70912251 15.9011304,5.82644492 15.3938318,6.00435813 C15.3257225,6.02824455 14.9261361,6.16916355 14.813381,6.20855794 C14.5968348,6.28421483 14.4244879,6.34290484 14.2632365,6.39541742 L14.3870968,6.77575758 L14.3870968,6.37575758 C14.3134669,6.37575758 14.2635223,6.38185687 14.1615218,6.39846544 C14.0790313,6.41189722 14.0696842,6.41189722 14.0787926,6.41634655 L14.0002401,6.38770058 C13.4577079,6.24633708 12.8908877,6.08293066 12.1651861,5.86137178 C11.7747851,5.74218116 10.3099315,5.2858828 10.0695351,5.21171647 L10.2857618,5.81381319 Z M16.3459897,19.5185752 C15.1861614,19.2275177 14.9977875,19.195146 14.5341251,19.308392 C13.3195973,19.6378569 12.8508204,19.8386157 10.0255551,21.1460782 L9.59693372,21.3444335 L9.8631442,21.7345528 C9.99325979,21.9252313 10.0942831,22.0840042 10.3197587,22.4468231 C10.7891321,23.2021042 11.0127523,23.5298095 11.3471965,23.9032288 C12.6496851,25.3575052 14.2325191,25.3312954 15.4278863,23.8041232 C15.8454946,23.273738 16.1724911,22.7315907 16.6384708,21.8487948 C16.6904423,21.750335 16.9639834,21.2273536 17.0436766,21.0769274 C17.2028655,20.7764476 17.3380255,20.5295802 17.4756809,20.2904955 L17.7681751,19.7824812 L17.1884857,19.6953522 C16.9307654,19.656616 16.6845458,19.6035355 16.3459897,19.5185752 Z M16.7823836,19.8913227 C16.6394336,20.1396033 16.4999927,20.3942897 16.3367546,20.7024126 C16.2558246,20.8551735 15.9819039,21.3788806 15.9309828,21.4753505 C15.4858507,22.3186506 15.1799433,22.825833 14.7986279,23.3101267 C13.9134568,24.4409972 12.9175585,24.4574881 11.943126,23.3694985 C11.6503302,23.0425811 11.4438428,22.7399833 10.9992377,22.0245574 C10.7677241,21.6520227 10.6626542,21.4868899 10.5239526,21.283629 L10.3615417,21.8721037 C13.1337089,20.5892136 13.5924956,20.3927333 14.7337952,20.0830069 C14.9982768,20.0185426 15.1672861,20.0475865 16.1512684,20.2945157 C16.5126932,20.3852148 16.781533,20.4431719 17.0695789,20.486466 L16.7823836,19.8913227 Z M23.0120499,18.96175 C24.1866013,18.4836894 24.6640394,17.5508043 24.2847512,16.3465069 C24.0834285,15.7561006 23.8330444,15.2296408 23.4406296,14.5218672 C23.3497086,14.3578789 23.0234399,13.7814394 22.9621566,13.6716741 L22.7162052,13.2311478 L22.3433898,13.5710952 C21.9430801,13.9361129 21.5374201,14.2888186 21.028021,14.7188207 C20.8996438,14.8271886 20.0189561,15.5645403 19.7681008,15.777849 C19.4633714,16.0369682 19.2032551,16.2635236 18.9579223,16.4847692 C18.8779241,16.5624793 18.820438,16.6432124 18.7595627,16.7472908 C18.720803,16.813558 18.6918421,16.8683776 18.6277946,16.9935225 L18.5880799,17.1178831 C18.4665365,17.9490932 18.4123077,18.3464417 18.3444976,18.942678 L18.299065,19.342154 L18.6987682,19.3855427 C20.485451,19.579491 21.785237,19.4861196 23.0120499,18.96175 Z M19.1393734,19.0330795 C19.2059718,18.4474977 19.25927,18.0569674 19.379662,17.233632 L18.983871,17.1757576 L19.3399473,17.3579927 C19.3968676,17.2467739 19.4216701,17.1998258 19.4501148,17.151194 C19.477949,17.1036058 19.498804,17.0743173 19.5053353,17.0679364 C19.7326343,16.8633834 19.9871002,16.6417493 20.2863347,16.3873025 C20.5343653,16.1763957 21.4135021,15.4403425 21.5440556,15.3301376 C22.0606109,14.8940946 22.4735125,14.5350926 22.8824167,14.1622382 L22.2636499,14.0616592 C22.3266945,14.1745791 22.6521688,14.7496151 22.7409714,14.9097826 C23.1124087,15.5797206 23.3443815,16.0674685 23.5246543,16.5958319 C23.7722125,17.3822404 23.5094938,17.8955769 22.7040269,18.2234589 C21.6207585,18.6864087 20.4476064,18.7706833 18.7851028,18.5902149 L19.1393734,19.0330795 Z M23.1549331,11.1403542 C23.242193,10.9527332 23.2855868,10.8592061 23.3294094,10.7635056 C23.5491662,10.2835976 23.6894821,9.93751582 23.8017331,9.57196308 C24.1777101,8.1045038 23.5988332,7.09635811 22.1722474,6.63178106 C21.0569622,6.3200897 19.9200676,6.33992383 18.5793269,6.62060876 L18.180988,6.70400128 L18.271253,7.10083937 C18.3346135,7.37939482 18.3582074,7.50085357 18.4696553,8.09970025 C18.5525455,8.54509697 18.6052611,8.80062405 18.6770024,9.08098034 L18.7067453,9.16070362 C18.7211769,9.18894081 18.7776372,9.30969651 18.7885857,9.3321588 C18.9035156,9.56795316 19.0140667,9.71749867 19.2115299,9.81395648 L19.3870968,9.45454545 L19.121474,9.75361825 C19.5415368,10.1266988 20.0116752,10.4970333 20.5932196,10.9203617 C20.8287749,11.0918314 21.0792394,11.2697393 21.3918826,11.4885216 C21.5592974,11.6056757 22.1430502,12.0118342 22.2227047,12.0674199 L22.6324636,12.3533642 L22.8217878,11.8909544 C22.9108215,11.6734962 23.0007205,11.4725812 23.1549331,11.1403542 Z M22.6805211,11.411368 C22.6000484,11.3552113 22.0169011,10.9494741 21.850557,10.8330693 C21.5416511,10.6169022 21.2949807,10.4416894 21.0640384,10.2735777 C20.5017679,9.86427944 20.0509624,9.50917377 19.6527196,9.15547266 L19.5626636,9.09513443 C19.574682,9.10100521 19.5488681,9.06608615 19.5077106,8.98164592 C19.5023672,8.97068304 19.4411375,8.83972681 19.4205925,8.79958308 L19.4525731,8.88480393 C19.3858679,8.62410322 19.3359914,8.38233809 19.2561512,7.95333005 C19.1424646,7.34245451 19.1180075,7.21655215 19.0513276,6.92340305 L18.7432537,7.40363367 C19.9684955,7.14712851 20.9809885,7.12946467 21.9408445,7.3973933 C22.9560055,7.72836916 23.2964592,8.32128795 23.0318411,9.3553833 C22.9371254,9.6622999 22.8084279,9.97972568 22.6020422,10.4304338 C22.5591901,10.5240147 22.5167675,10.6154486 22.4292963,10.8035291 C22.2702713,11.1461235 22.1763028,11.3561334 22.081438,11.5878335 L22.6805211,11.411368 Z M8.92339221,18.1617797 C8.96107695,18.3327151 9.0012123,18.5173941 9.07690308,18.8661781 C9.11644749,19.0477565 9.14793102,19.1907578 9.17898538,19.3292627 C9.25694488,19.6769682 9.32771881,19.9754162 9.40280888,20.2688591 L9.51340551,20.7010573 L9.93102062,20.5441353 C10.3643507,20.3813082 10.7018739,20.2605088 11.4552952,19.9955236 C12.2139706,19.7286906 12.5552109,19.6065608 12.9955367,19.441105 L13.8342554,19.1259501 L13.0396731,18.7119326 C11.9112489,18.1239666 10.7408749,17.5803735 9.30237246,16.9655227 L8.57370628,16.6540731 L8.75587399,17.4252866 C8.81051898,17.6566281 8.86366107,17.8908434 8.92339221,18.1617797 Z M8.98795012,17.7011439 C10.4090815,18.30857 11.5616665,18.8439007 12.6700043,19.4214007 L12.7141407,18.6922283 C12.2808106,18.8550554 11.9432874,18.9758549 11.1898661,19.24084 C10.4311907,19.507673 10.0899504,19.6298029 9.64962454,19.7952586 L10.1778363,20.0705348 C10.1049324,19.7856351 10.0359397,19.4946985 9.95960482,19.154239 C9.9289639,19.0175781 9.89780664,18.8760587 9.85858079,18.6959431 C9.78306189,18.3479468 9.7426184,18.1618498 9.70463198,17.9895461 C9.64410225,17.7149874 9.59010708,17.4770123 9.53444859,17.2413801 L8.98795012,17.7011439 Z M20.4084155,11.5020307 C20.2966118,11.413066 20.1932481,11.3298606 20.0937026,11.248585 C19.9101705,11.098737 19.7385064,10.9545177 19.5687257,10.8070771 L18.9064516,10.2319467 L18.9064516,11.1090909 L18.9064516,15.0484848 L18.9064516,15.9984821 L19.5859804,15.3346031 C19.82579,15.1003164 20.0687048,14.869796 20.3615695,14.5971405 C20.5051428,14.4634746 21.0079275,13.9988208 21.1080199,13.9058037 C21.397274,13.6369962 21.6240112,13.4222966 21.844045,13.2073303 L22.1676175,12.8912097 L21.8142682,12.6087639 C21.497835,12.3558265 20.5597129,11.6224213 20.4084155,11.5020307 Z M21.2849873,12.6350939 C21.0704332,12.8447068 20.8482084,13.0551335 20.5634258,13.3197855 C20.4645187,13.4117011 19.9613772,13.8766846 19.8164472,14.0116137 C19.5192434,14.2883089 19.2718802,14.5230507 19.0269228,14.7623666 L19.7064516,15.0484848 L19.7064516,11.1090909 L19.0441776,11.4111047 C19.2203276,11.5640764 19.3981601,11.7134779 19.587749,11.8682711 C19.6900378,11.9517866 19.7959858,12.0370723 19.9102942,12.1280299 C20.0654388,12.2514819 21.0026258,12.9841562 21.3147641,13.2336604 L21.2849873,12.6350939 Z M10.5893702,6.80356825 C10.2715743,6.72918314 9.98354473,6.66883203 9.6989895,6.61828624 L9.3083716,6.54890045 L9.23578432,6.93893611 C9.07236107,7.81706371 8.91219248,8.51252974 8.67924624,9.34699493 L8.42105908,10.2718787 L9.25949691,9.80380538 C9.73055075,9.54083091 10.0870716,9.3403883 10.8738246,8.89694573 C11.6596523,8.45402466 12.015497,8.25396222 12.4853034,7.99168417 L13.3742576,7.4954091 L12.3852297,7.25384654 C12.1668964,7.20052027 10.9361297,6.88473275 10.5893702,6.80356825 Z M12.0953418,7.29316432 C11.624288,7.55613879 11.2677671,7.7565814 10.4810141,8.20002396 C9.69518643,8.64294503 9.33934173,8.84300748 8.86953535,9.10528553 L9.44978601,9.56209598 C9.68919001,8.70449768 9.85463384,7.98612608 10.0222802,7.08530631 L9.55907502,7.40595618 C9.8283348,7.45378503 10.1024994,7.511231 10.4070456,7.5825148 C10.7437446,7.66132447 11.9693043,7.97577602 12.1954154,8.03100195 L12.0953418,7.29316432 Z M7.8516129,12.4484848 L7.8516129,11.4984876 L7.17208408,12.1623666 C7.03093553,12.3002645 6.89022526,12.4310283 6.72450899,12.5797118 C6.63700591,12.658221 6.3452624,12.9161004 6.30123645,12.9553723 C6.13550363,13.1032086 6.0072599,13.2215767 5.88176149,13.3441848 L5.52468698,13.6930358 L5.94298567,13.9654792 C6.13211132,14.0886592 6.26640745,14.1886236 6.56013025,14.4181902 C6.87124616,14.6613509 7.01920809,14.7714875 7.23330825,14.9109338 L7.8516129,15.3136437 L7.8516129,14.5757576 L7.8516129,12.4484848 Z M7.66991756,14.2405814 C7.48079191,14.1174014 7.34649577,14.017437 7.05277298,13.7878704 C6.74165706,13.5447097 6.59369513,13.4345731 6.37959498,13.2951268 L6.44081915,13.9164212 C6.55636017,13.8035412 6.67631075,13.6928276 6.83376953,13.5523719 C6.87561574,13.5150444 7.16854964,13.2561128 7.25876461,13.1751704 C7.43232823,13.0194461 7.58107164,12.881217 7.73114173,12.7346031 L7.0516129,12.4484848 L7.0516129,14.5757576 L7.66991756,14.2405814 Z M16.5376923,8.3893694 C16.8682062,8.56549778 17.0242788,8.64984742 17.2566321,8.77956296 L17.9864836,9.18701595 L17.8459164,8.36303662 C17.8036629,8.11535449 17.7696966,7.96104857 17.6950771,7.65486464 C17.6478035,7.46088812 17.6271578,7.37213886 17.6015504,7.2470506 L17.522044,6.85867396 L17.1329704,6.93469657 C16.680474,7.02311163 16.3455189,7.10922769 15.8761397,7.26208409 L15.005812,7.54551203 L15.8050192,7.99168417 C16.043096,8.1245949 16.2028836,8.21095233 16.5376923,8.3893694 Z M16.1238603,8.0227644 C16.5617392,7.88016625 16.8652249,7.8021409 17.2863844,7.71984888 L16.8178045,7.40749486 C16.8459605,7.54503285 16.8683255,7.64117249 16.9178261,7.84428687 C16.9883679,8.13373931 17.0189177,8.2725243 17.0573094,8.49756944 L17.6465937,8.0810431 C17.4085169,7.94813237 17.2487293,7.86177495 16.9139206,7.68335787 C16.5834067,7.50722949 16.4273341,7.42287985 16.1949808,7.29316432 L16.1238603,8.0227644 Z" id="Shape" sketch:type="MSShapeGroup"></path>
                <path d="M13.3976763,15.5157394 C12.1865968,15.5151515 11.1580645,14.5103066 11.1580645,13.3151515 C11.1580645,12.1456747 12.1634509,11.1839058 13.4410334,11.1145636 C14.6521129,11.1151515 15.6806452,12.1199964 15.6806452,13.3151515 C15.6806452,14.4846284 14.6752588,15.4463972 13.3976763,15.5157394 Z M13.4193548,10.3151515 C11.7120039,10.4072311 10.3580645,11.7024314 10.3580645,13.3151515 C10.3580645,14.95636 11.7488871,16.3151515 13.4193548,16.3151515 C15.1267058,16.2230719 16.4806452,14.9278716 16.4806452,13.3151515 C16.4806452,11.673943 15.0898226,10.3151515 13.4193548,10.3151515 Z M13.5,11.6545455 C12.5455366,11.6545455 11.8096774,12.3109434 11.8096774,13.2363636 C11.8096774,14.0732257 12.448775,14.7912615 13.2902214,14.8940199 C14.2095329,14.9938493 14.9940406,14.3232141 15.106443,13.4447042 C15.1096774,12.4751766 14.4665655,11.7571184 13.5431673,11.6568815 L13.5,11.6545455 Z M13.4568327,12.4522094 C13.9738812,12.5083361 14.3096774,12.883265 14.3096774,13.3939394 C14.2541201,13.8026764 13.8479409,14.1498981 13.381877,14.0993058 C12.9461896,14.046063 12.6096774,13.6679865 12.6096774,13.2363636 C12.6096774,12.7744321 12.9682883,12.4545455 13.5,12.4545455 L13.4568327,12.4522094 Z" id="Shape" sketch:type="MSShapeGroup"></path>
            </g>
        </g>
    </g>
</svg>