<?xml version="1.0" encoding="UTF-8" standalone="no"?>
<svg width="23px" height="23px" viewBox="0 0 23 23" version="1.1" xmlns="http://www.w3.org/2000/svg" xmlns:xlink="http://www.w3.org/1999/xlink" xmlns:sketch="http://www.bohemiancoding.com/sketch/ns">
    <!-- Generator: Sketch 3.2 (9961) - http://www.bohemiancoding.com/sketch -->
    <title>Group</title>
    <desc>Created with Sketch.</desc>
    <defs></defs>
    <g id="Page-1" stroke="none" stroke-width="1" fill="none" fill-rule="evenodd" sketch:type="MSPage">
        <g id="Desktop" sketch:type="MSArtboardGroup" transform="translate(-505.000000, -810.000000)" fill="#666666">
            <g id="Group" sketch:type="MSLayerGroup" transform="translate(505.000000, 810.000000)">
                <path d="M15.8714286,21.9714286 L16.2714286,22.3714286 L16.2714286,17.1071429 L16.2714286,16.7071429 L15.8714286,16.7071429 L13.2,16.7071429 L12.8,16.7071429 L12.8,17.1071429 L12.8,22.3714286 L13.2,21.9714286 L0.471428571,21.9714286 L0.871428571,22.3714286 L0.871428571,1.07857143 L0.471428571,1.47857143 L5.73571429,1.47857143 L5.33571429,1.07857143 L5.33571429,9.09285714 L5.33571429,9.83435181 L5.95538544,9.42713933 C8.70686884,7.61902167 11.3012101,5.88946081 13.9741237,4.08131337 L13.35,3.75 L13.35,9.09285714 L13.35,9.83435181 L13.9696712,9.42713933 C15.1169867,8.6731891 16.0049596,8.08011496 17.9801653,6.75348425 C19.9531739,5.42832925 20.8396058,4.83628434 21.9839569,4.08428219 L21.3642857,3.75 L21.3642857,22.3714286 L21.7642857,21.9714286 L15.8714286,21.9714286 Z M22.1642857,22.7714286 L22.1642857,22.3714286 L22.1642857,3.75 L22.1642857,3.00850534 L21.5446146,3.41571781 C20.397299,4.16966804 19.5093261,4.76274218 17.5341204,6.08937289 C15.5611118,7.41452789 14.6746799,8.0065728 13.5303288,8.75857495 L14.15,9.09285714 L14.15,3.75 L14.15,2.99648528 L13.5258763,3.41868663 C10.8559327,5.2248249 8.26455973,6.9524069 5.51604313,8.75857495 L6.13571429,9.09285714 L6.13571429,1.07857143 L6.13571429,0.678571429 L5.73571429,0.678571429 L0.471428571,0.678571429 L0.0714285714,0.678571429 L0.0714285714,1.07857143 L0.0714285714,22.3714286 L0.0714285714,22.7714286 L0.471428571,22.7714286 L13.2,22.7714286 L13.6,22.7714286 L13.6,22.3714286 L13.6,17.1071429 L13.2,17.5071429 L15.8714286,17.5071429 L15.4714286,17.1071429 L15.4714286,22.3714286 L15.4714286,22.7714286 L15.8714286,22.7714286 L21.7642857,22.7714286 L22.1642857,22.7714286 Z" id="Shape" sketch:type="MSShapeGroup"></path>
                <path d="M17.8357143,20.0857143 L18.2357143,20.4857143 L18.2357143,15.3 L18.2357143,14.9 L17.8357143,14.9 L11.1571429,14.9 L10.7571429,14.9 L10.7571429,15.3 L10.7571429,20.4071429 L11.1571429,20.0071429 C9.7829744,20.0071429 8.81669135,19.997164 6.81208879,19.9678998 C6.74249803,19.9668838 6.74249803,19.9668838 6.67291333,19.9658685 C4.79476415,19.9384759 3.82302902,19.9285714 2.51428571,19.9285714 L2.91428571,20.3285714 L2.91428571,3.67142857 L2.51428571,4.07142857 L4.08571429,4.07142857 L3.68571429,3.67142857 L3.68571429,12.6285714 L3.68571429,13.3842904 L4.31063829,12.959342 C5.13195991,12.4008433 6.03285903,11.7685759 8.24512996,10.2052378 C10.4525019,8.64536166 11.352198,8.01393857 12.1677812,7.45934203 L11.5428571,7.12857143 L11.5428571,12.2357143 L11.5428571,12.9321291 L12.1444056,12.5812258 C12.2075786,12.5443749 12.2075786,12.5443749 12.491249,12.3785549 C12.7669989,12.2172688 13.0742485,12.0372624 13.4051274,11.8430404 C14.3505404,11.288094 15.2959736,10.7303713 16.1785139,10.2058792 C16.2364887,10.1714208 16.2364887,10.1714208 16.2944506,10.1369535 C18.2056799,9.00029472 19.5268949,8.19460051 20.0266115,7.85104534 L19.4,7.52142857 L19.4,20.4857143 L19.8,20.0857143 L17.8357143,20.0857143 Z M20.2,20.8857143 L20.2,20.4857143 L20.2,7.52142857 L20.2,6.76101638 L19.5733885,7.1918118 C19.094829,7.52082142 17.7768388,8.3245491 15.8855232,9.4493647 C15.8276715,9.48376646 15.8276715,9.48376646 15.7698042,9.51816094 C14.8886499,10.0418294 13.9444104,10.5988479 13.0001506,11.1531173 C12.669644,11.3471209 12.36275,11.5269189 12.0873453,11.688003 C11.8041139,11.8535664 11.8041139,11.8535664 11.7413087,11.8902027 L12.3428571,12.2357143 L12.3428571,7.12857143 L12.3428571,6.3728525 L11.7179331,6.79780083 C10.8966115,7.35629953 9.9957124,7.98856691 7.78344146,9.55190504 C5.57606954,11.1117812 4.67637342,11.7432043 3.86079028,12.2978008 L4.48571429,12.6285714 L4.48571429,3.67142857 L4.48571429,3.27142857 L4.08571429,3.27142857 L2.51428571,3.27142857 L2.11428571,3.27142857 L2.11428571,3.67142857 L2.11428571,20.3285714 L2.11428571,20.7285714 L2.51428571,20.7285714 C3.81814645,20.7285714 4.78672351,20.7384437 6.66124669,20.7657834 C6.7308203,20.7667985 6.7308203,20.7667985 6.80041121,20.7678145 C8.80867104,20.7971322 9.7780375,20.8071429 11.1571429,20.8071429 L11.5571429,20.8071429 L11.5571429,20.4071429 L11.5571429,15.3 L11.1571429,15.7 L17.8357143,15.7 L17.4357143,15.3 L17.4357143,20.4857143 L17.4357143,20.8857143 L17.8357143,20.8857143 L19.8,20.8857143 L20.2,20.8857143 Z" id="Shape" sketch:type="MSShapeGroup"></path>
            </g>
        </g>
    </g>
</svg>