<?xml version="1.0" encoding="UTF-8" standalone="no"?>
<svg width="29px" height="29px" viewBox="0 0 29 29" version="1.1" xmlns="http://www.w3.org/2000/svg" xmlns:xlink="http://www.w3.org/1999/xlink" xmlns:sketch="http://www.bohemiancoding.com/sketch/ns">
    <!-- Generator: Sketch 3.2 (9961) - http://www.bohemiancoding.com/sketch -->
    <title>Group</title>
    <desc>Created with Sketch.</desc>
    <defs></defs>
    <g id="Page-1" stroke="none" stroke-width="1" fill="none" fill-rule="evenodd" sketch:type="MSPage">
        <g id="Desktop" sketch:type="MSArtboardGroup" transform="translate(-716.000000, -807.000000)" fill="#666666">
            <g id="Group" sketch:type="MSLayerGroup" transform="translate(716.000000, 807.000000)">
                <path d="M5.87922103,21.2950487 L5.85578049,20.92 L5.48,20.92 L2.44,20.92 C1.7009139,20.92 1.72,20.9390861 1.72,20.2 C1.72,18.772857 1.58623364,18.92 2.92,18.92 L5.56,18.92 L5.96,18.92 L5.96,18.52 L5.96,16.2 L5.96,15.8 L5.56,15.8 L2.44,15.8 C1.7809139,15.8 1.8,15.8190861 1.8,15.16 C1.73050651,13.6911182 1.62635871,13.8 3.08,13.8 L5.64,13.8 L6.04,13.8 L6.04,13.4 L6.04,11.08 L6.04,10.68 L5.64,10.68 L2.6,10.68 C1.81719533,10.68 1.86677209,10.7326753 1.79882179,9.8493214 L1.8,9.08 C1.8,8.69665012 1.9035537,8.6 2.28,8.6 L5.4,8.6 L5.69761226,8.6 L5.78313051,8.31493915 C5.82202953,8.18527575 5.8584896,8.04897121 5.89731757,7.8910708 C5.92380847,7.78334113 5.94735669,7.68295136 5.99398093,7.48200296 C6.15297063,6.80061853 6.25680417,6.50065497 6.42728851,6.29607376 C6.55788639,6.1393563 6.792137,6.04344724 7.34771741,5.91063918 C8.03730438,5.74579767 8.11544454,5.7254638 8.41669723,5.61591737 L8.68,5.52017091 L8.68,5.24 L8.68,2.44 C8.68,1.66342174 8.61587798,1.72 9.48,1.72 L9.96,1.72 C10.7428047,1.72 10.6932279,1.66732469 10.7611782,2.5506786 L10.76,5.56 L10.76,5.96 L11.16,5.96 L13.48,5.96 L13.88,5.96 L13.88,5.56 L13.88,2.52 C13.88,1.7009139 13.8609139,1.72 14.68,1.72 L15.32,1.72 C15.7390861,1.72 15.88,1.8609139 15.88,2.28 L15.88,5.48 L15.88,5.88 L16.28,5.88 L18.68,5.88 L19.08,5.88 L19.08,5.48 L19.08,2.28 C19.08,1.7809139 19.2209139,1.64 19.72,1.64 C21.2590861,1.64 21.08,1.4609139 21.08,3 L21.08,5.32 L21.08,5.61761226 L21.3650608,5.70313051 C21.4928156,5.74145694 21.6262989,5.77725389 21.7879294,5.81744072 C21.8652854,5.83667404 21.9360232,5.85377992 22.0804341,5.88846802 C22.8295487,6.06892274 23.1405315,6.18621697 23.3571573,6.40284271 C23.5756948,6.62138027 23.6970127,6.94768993 23.8705255,7.7044388 C23.993373,8.24021909 23.9975421,8.25788816 24.0540945,8.46524696 L24.1344817,8.76 L24.44,8.76 L27.4,8.76 C28.0590861,8.76 28.04,8.7409139 28.04,9.4 L28.04,10.2 C28.04,10.6955578 27.9135215,10.8145964 27.4441726,10.7624465 L24.28,10.76 L23.88,10.76 L23.88,11.16 L23.88,13.48 L23.88,13.88 L24.28,13.88 L27.4,13.88 C28.0654812,13.88 28.0596737,13.8745555 28.1216427,14.5562143 L28.12,15.08 C28.12,15.8990861 28.1390861,15.88 27.32,15.88 L24.28,15.88 L23.88,15.88 L23.88,16.28 L23.88,18.6 L23.88,19 L24.28,19 L27.32,19 C28.1390861,19 28.04,18.9009139 28.04,19.72 L28.04,20.36 C28.04,21.0580166 28.1021606,21 27.4,21 L24.36,21 L24.0160407,21 L23.9645138,21.3400778 C23.8834133,21.8753412 23.8514477,22.0791536 23.8109845,22.3084451 C23.5801533,23.6164886 23.5206871,23.661518 21.9202456,23.7746113 C21.8189005,23.7817727 21.734954,23.7874482 21.5333924,23.8008859 L21.16,23.8257788 L21.16,24.2 L21.16,27.16 C21.16,27.301752 21.1126899,27.535937 21.0422013,27.7385918 C21.0098086,27.8317207 20.9758082,27.9082217 20.9485443,27.9529041 C20.969626,27.9183536 21.0106146,27.88 21.16,27.88 C20.5550581,27.9447542 20.0948257,27.9191857 19.0441726,27.8024465 C19.1948262,27.8 19.2390714,27.8505659 19.2829092,27.9340664 C19.2692772,27.9081008 19.2502404,27.859725 19.231792,27.80069 C19.1883987,27.6618315 19.16,27.5045464 19.16,27.4 L19.16,24.2 L19.16,23.8 L18.76,23.8 L16.44,23.8 L16.04,23.8 L16.04,24.2 L16.04,27.32 C16.04,28.0187887 16.0212841,28.04 15.4,28.04 L15.24,28.04 C13.8924801,28.04 14.04,28.1734704 14.04,26.92 L14.04,24.2 L14.04,23.8 L13.64,23.8 L11.32,23.8 L10.92,23.8 L10.92,24.2 L10.92,27.32 C10.92,27.9790861 10.9390861,27.96 10.28,27.96 C8.81111821,28.0294935 8.92,28.1336413 8.92,26.68 L8.90313051,26.5650608 C8.80154884,26.2264553 8.74029438,25.8498538 8.70898348,25.4115012 C8.68496394,25.0752276 8.68,24.8005563 8.68,24.2 L8.68,23.838005 L8.31980149,23.8019851 C6.02171334,23.5721763 6.02153037,23.5719982 5.87922103,21.2950487 Z M7.88,24.2 C7.88,24.8194437 7.88519735,25.1070305 7.91101652,25.4684988 C7.94621505,25.9612783 8.01660906,26.3940711 8.13686949,26.7949392 L8.12,26.68 C8.12,28.589837 8.39234571,28.8503416 10.2990261,28.7595473 C11.3809139,28.76 11.72,28.4209139 11.72,27.32 L11.72,24.2 L11.32,24.6 L13.64,24.6 L13.24,24.2 L13.24,26.92 C13.24,28.6341487 13.4675199,28.84 15.24,28.84 L15.4,28.84 C16.4869512,28.84 16.84,28.439878 16.84,27.32 L16.84,24.2 L16.44,24.6 L18.76,24.6 L18.36,24.2 L18.36,27.4 C18.36,27.9320592 18.5687315,28.6 19,28.6 C20.0651743,28.7208143 20.5649419,28.7485791 21.2041726,28.6775535 C21.6504717,28.68 21.96,27.7901061 21.96,27.16 L21.96,24.2 L21.5866076,24.5991141 C21.7886378,24.5856457 21.8738562,24.5798842 21.976636,24.5726214 C23.9186996,24.4353878 24.2987943,24.1475704 24.5988114,22.4474733 C24.6408401,22.2093104 24.6733214,22.0022098 24.7554862,21.4599222 L24.36,21.8 L27.4,21.8 C28.5321251,21.8 28.84,21.5126501 28.84,20.36 L28.84,19.72 C28.84,18.4590861 28.5809139,18.2 27.32,18.2 L24.28,18.2 L24.68,18.6 L24.68,16.28 L24.28,16.68 L27.32,16.68 C28.5809139,16.68 28.92,16.3409139 28.92,15.08 L28.92,14.52 C28.8193325,13.3945128 28.4838521,13.08 27.4,13.08 L24.28,13.08 L24.68,13.48 L24.68,11.16 L24.28,11.56 L27.4,11.56 C28.3085903,11.663416 28.84,11.1632657 28.84,10.2 L28.84,9.4 C28.84,8.2990861 28.5009139,7.96 27.4,7.96 L24.44,7.96 L24.8259055,8.25475304 C24.7736144,8.06301887 24.7696697,8.04630092 24.6502909,7.52564866 C24.4423585,6.61878395 24.2872365,6.20155108 23.9228427,5.83715729 C23.5621547,5.47646932 23.166265,5.32715053 22.2677874,5.11071565 C22.1233419,5.07601599 22.0553974,5.05958558 21.9809595,5.0410778 C21.8306874,5.00371508 21.7088032,4.97102869 21.5949392,4.93686949 L21.88,5.32 L21.88,3 C21.88,1.0190861 21.7009139,0.84 19.72,0.84 C18.7790861,0.84 18.28,1.3390861 18.28,2.28 L18.28,5.48 L18.68,5.08 L16.28,5.08 L16.68,5.48 L16.68,2.28 C16.68,1.4190861 16.1809139,0.92 15.32,0.92 L14.68,0.92 C13.4190861,0.92 13.08,1.2590861 13.08,2.52 L13.08,5.56 L13.48,5.16 L11.16,5.16 L11.56,5.56 L11.56,2.52 C11.4604894,1.21099992 11.1866071,0.92 9.96,0.92 L9.48,0.92 C8.19478869,0.92 7.88,1.19775473 7.88,2.44 L7.88,5.24 L8.14330277,4.86408263 C7.88365611,4.9584996 7.81342345,4.97677576 7.16172259,5.13256082 C6.43763553,5.30564936 6.09404581,5.44632506 5.81271149,5.78392624 C5.53173385,6.12109941 5.40379705,6.4906946 5.21490796,7.30021926 C5.16819887,7.50149309 5.14575502,7.59717475 5.12046021,7.70004031 C5.08460068,7.84586907 5.05147258,7.96971721 5.01686949,8.08506085 L5.4,7.8 L2.28,7.8 C1.47358916,7.8 1,8.24201655 1,9.08 L1,9.88 C1.09951063,11.1890001 1.3733929,11.48 2.6,11.48 L5.64,11.48 L5.24,11.08 L5.24,13.4 L5.64,13 L3.08,13 C1.17016303,13 0.909658442,13.2723457 1.00045274,15.1790261 C1,16.2609139 1.3390861,16.6 2.44,16.6 L5.56,16.6 L5.16,16.2 L5.16,18.52 L5.56,18.12 L2.92,18.12 C1.12649364,18.12 0.92,18.347143 0.92,20.2 C0.92,21.3809139 1.2590861,21.72 2.44,21.72 L5.48,21.72 L5.08077897,21.3449513 C5.24824196,24.0243591 5.56238304,24.3302333 8.24019851,24.5980149 L7.88,24.2 Z M21.24,21.64 L21.64,21.64 L21.64,21.24 L21.64,8.28 L21.64,7.88 L21.24,7.88 L13.8,7.88 L13.1107281,7.88 L13.4527027,8.47845558 C13.5177365,8.59226473 13.5757036,8.7090114 13.6372684,8.84686313 C13.6726181,8.92601558 13.784503,9.18955171 13.793172,9.20949044 C13.9358713,9.53769892 14.052764,9.73844946 14.2371573,9.92284271 C14.5859946,10.3628056 14.9861261,10.7826968 15.6628075,11.4432667 C16.0367541,11.8068351 16.2197188,11.9854042 16.3971573,12.1628427 C16.7186155,12.4843009 16.84,12.7810187 16.84,13.24 C16.84,13.7141681 17.0180162,14.1973549 17.32,14.6 C17.6985966,15.1690051 17.6811179,15.8331967 17.2771573,16.2371573 C16.8108729,16.6439789 16.0896643,16.6439789 15.6828427,16.2371573 C15.2080065,15.8204984 15.1899442,15.116072 15.6210307,14.6234018 C16.3160211,13.8291271 16.3160211,13.0303357 15.6028427,12.3171573 C15.4997234,12.2140379 15.3944053,12.1051636 15.2486078,11.9518509 C15.0666911,11.7599631 14.9688616,11.656906 14.8783332,11.5627565 C14.5660238,11.2379547 14.3193264,10.9983058 14.0603165,10.7762974 C13.1583568,9.96437612 12.8185588,9.3291017 12.991121,8.52381164 L13.0367167,8.31103132 L12.8828427,8.15715729 C12.907612,8.19030769 12.92,8.22127778 12.92,8.28 L12.92,7.88 L12.52,7.88 L8.36,7.88 L7.96,7.88 L7.96,8.28 L7.96,21.24 L7.96,21.64 L8.36,21.64 L14.76,21.64 L15.0808686,21.64 L15.1504748,21.3267722 C15.3344872,20.4987165 15.1604097,19.9547243 14.5628427,19.3571573 C14.3433432,19.1611231 14.1490108,18.9712654 13.8881202,18.7032272 C13.8216056,18.6348902 13.5959275,18.401208 13.5671602,18.3715417 C13.1344288,17.9252874 12.8538223,17.6595616 12.5255762,17.4042591 C12.1865614,17.060876 12.04,16.7544294 12.04,16.28 C12.04,15.769285 11.8380929,15.1924074 11.5228427,14.8771573 C11.1135694,14.3459176 11.1135694,13.692116 11.5228427,13.2828427 C11.9523258,12.8533596 12.6741008,12.8163455 13.1365982,13.2210307 C13.6205068,13.6444507 13.6711236,14.2855979 13.2442591,14.8344238 C12.4759033,15.7948084 12.497574,16.4232595 13.3571573,17.2828427 C13.4736156,17.3993011 13.5912285,17.5212499 13.8351154,17.7755254 C14.2875379,18.2443997 14.5826931,18.5191994 14.9275047,18.7654934 C15.9248784,19.6759283 16.1863046,20.1987808 15.898208,21.12069 L15.7359236,21.64 L16.28,21.64 L21.24,21.64 Z M16.661792,21.35931 C17.0660031,20.0658346 16.668455,19.2707384 15.4290691,18.144024 C15.0981149,17.9042349 14.8314039,17.6559178 14.4108105,17.2200301 C14.1687715,16.967639 14.0452733,16.8395878 13.9228427,16.7171573 C13.3567117,16.1510263 13.3508735,15.9817205 13.8723475,15.329878 C14.55932,14.4466888 14.4708007,13.3254433 13.6634018,12.6189693 C12.8791172,11.9327203 11.6801066,11.994208 10.9571573,12.7171573 C10.2464306,13.427884 10.2464306,14.5340824 10.9242591,15.4055762 C11.1095994,15.5952849 11.24,15.9678579 11.24,16.28 C11.24,16.9837524 11.4801053,17.4857907 11.9971573,18.0028427 C12.3258792,18.2624284 12.5842229,18.5070721 12.9928398,18.9284583 C13.0205967,18.9570826 13.2470059,19.1915219 13.3148427,19.2612173 C13.5880243,19.5418832 13.7947481,19.743847 14.0142545,19.9389637 C14.4066491,20.3323346 14.492398,20.6002999 14.3695252,21.1532278 L14.76,20.84 L8.36,20.84 L8.76,21.24 L8.76,8.28 L8.36,8.68 L12.52,8.68 L12.52,8.28 L12.12,8.28 C12.12,8.40872222 12.162388,8.51469231 12.2271799,8.61188008 C12.2587164,8.65918482 12.2900183,8.69570369 12.3171573,8.72284271 L12.6,8.44 L12.208879,8.35618836 C11.9621064,9.50779409 12.4326746,10.3875521 13.5324141,11.3773177 C13.7756736,11.5859799 14.0056429,11.8093786 14.3016668,12.1172435 C14.3901157,12.2092303 14.4858089,12.3100369 14.6688922,12.5031491 C14.8189155,12.6609056 14.9283536,12.774039 15.0371573,12.8828427 C15.4439789,13.2896643 15.4439789,13.6108729 15.0189693,14.0965982 C14.3061412,14.9112589 14.3371739,16.1215344 15.1365982,16.8210307 C15.8303357,17.5160211 17.0291271,17.5160211 17.8234018,16.8210307 C18.5350984,16.1105871 18.5636819,15.0244126 17.9728201,14.1381199 C17.7571562,13.8495416 17.64,13.5315462 17.64,13.24 C17.64,12.5700925 17.4352307,12.0695453 16.9628427,11.5971573 C16.7813923,11.4157069 16.594357,11.2331649 16.2216369,10.8708074 C15.5669127,10.2316718 15.1848088,9.83069863 14.8323475,9.39012198 C14.7066299,9.26094448 14.6326361,9.13386825 14.526828,8.89050956 C14.5208231,8.87669829 14.4067175,8.60793149 14.3677316,8.52063687 C14.2961331,8.36031847 14.2267767,8.2206335 14.1472973,8.08154442 L13.8,8.68 L21.24,8.68 L20.84,8.28 L20.84,21.24 L21.24,20.84 L16.28,20.84 L16.661792,21.35931 Z" id="Shape" sketch:type="MSShapeGroup"></path>
            </g>
        </g>
    </g>
</svg>