<?xml version="1.0" encoding="UTF-8" standalone="no"?>
<svg width="28px" height="27px" viewBox="0 0 28 27" version="1.1" xmlns="http://www.w3.org/2000/svg" xmlns:xlink="http://www.w3.org/1999/xlink" xmlns:sketch="http://www.bohemiancoding.com/sketch/ns">
    <!-- Generator: Sketch 3.2 (9961) - http://www.bohemiancoding.com/sketch -->
    <title>Group</title>
    <desc>Created with Sketch.</desc>
    <defs></defs>
    <g id="Page-1" stroke="none" stroke-width="1" fill="none" fill-rule="evenodd" sketch:type="MSPage">
        <g id="Desktop" sketch:type="MSArtboardGroup" transform="translate(-666.000000, -808.000000)" fill="#666666">
            <g id="Group" sketch:type="MSLayerGroup" transform="translate(667.000000, 808.000000)">
                <path d="M10.8637351,23.2038404 C10.4046576,22.17559 9.37019883,21.6374479 7.65179765,21.5971687 L7.43908922,21.5921828 L7.31606691,21.7657779 C7.10425005,22.0646696 5.82120607,23.721587 5.50939771,24.1406236 L6.11425897,24.0976867 C5.50157495,23.4801511 5.29953114,23.2710696 4.02854106,21.9473726 C3.97881654,21.8955906 3.97881654,21.8955906 3.92906808,21.8438065 C3.34489811,21.2358108 2.93223458,20.8110535 2.49001655,20.3653337 L2.44254278,20.9696672 L2.20606061,21.0470588 C2.60828161,20.8481754 2.78093691,20.71877 2.96606592,20.5776188 C3.10952095,20.4682419 4.45139691,19.4213264 4.72461854,19.2246227 L4.90047254,19.098018 L4.89048388,18.8815611 C4.74277169,15.6806013 3.26650721,14.9460415 0.177290076,15.4073273 L0.636363636,15.8029412 L0.636363636,10.8794118 L0.191845559,11.2769267 C1.77246647,11.453942 2.55812223,11.4500411 3.32545152,11.1293608 C4.37316743,10.691502 4.92943884,9.68908081 4.96957991,8.03026485 L4.97454225,7.8251976 L4.81090807,7.70150015 C4.2991253,7.31462364 3.80398559,6.881229 2.63238671,5.81844038 L2.63835941,6.40544159 C3.7025314,5.39988031 4.45674332,4.65236586 6.27183473,2.82290156 L5.68787706,2.80574964 C5.82825533,2.96492573 5.94738825,3.12157512 6.17792727,3.44139556 C6.86338479,4.39246835 7.21552122,4.75992805 7.81992383,4.98145118 C8.36085648,5.16334581 8.72489749,5.07641273 9.90159181,4.64727331 C10.3125247,4.49740644 10.5535682,4.41884969 10.8057711,4.36018814 L11.1151515,4.28822732 L11.1151515,3.97058824 L11.1151515,0.476470588 L10.7151515,0.876470588 L15.4424242,0.876470588 L15.0434249,0.504746635 C15.0623184,0.771350249 15.0673172,0.995594787 15.070797,1.50978349 C15.0711913,1.56805022 15.0711913,1.56805022 15.0716162,1.62653582 C15.0802955,2.78127505 15.1400457,3.36497785 15.3879168,3.96457919 C15.5666566,4.38499281 15.9380903,4.59156686 16.7384566,4.87081055 C16.762919,4.87934536 17.2268571,5.03774153 17.3624005,5.08647059 C17.6282035,5.18202913 17.83651,5.26768112 18.019984,5.36014456 L18.310828,5.50671806 L18.5133058,5.25161665 C18.622353,5.11422829 18.7515759,4.9520396 18.9979812,4.6428355 C19.1991343,4.39015961 19.3508526,4.19858673 19.4995636,4.00902183 C19.8855423,3.5170068 20.2041122,3.09766965 20.4940707,2.69581953 L19.8773403,2.73476214 C20.0443505,2.91361553 20.2275138,3.11002924 20.5655086,3.47251589 C20.8371036,3.7636881 21.0348165,3.97524576 21.2296529,4.18297041 C21.3240096,4.28352587 21.3240096,4.28352587 21.4184874,4.38402136 C22.1879237,5.20204516 22.8496378,5.88967988 23.5887713,6.63466626 L23.8727273,6.35294118 L23.6315162,6.03385309 C23.4726658,6.15393428 22.5948293,6.67676337 22.3890292,6.81504985 C21.229619,7.6907171 21.0072259,8.63216429 21.7070517,9.954728 C22.3225782,11.0921659 22.7934269,11.4437045 23.9036474,11.3576267 C24.2092879,11.3236324 24.496328,11.317343 24.885117,11.3288685 C24.9757827,11.3315562 25.049268,11.3342748 25.216852,11.3408684 C25.5549252,11.3541444 25.7168925,11.3588235 25.9212121,11.3588235 L25.5212121,10.9588235 L25.5212121,15.8029412 L25.9212121,15.4029412 C25.6859004,15.4029412 25.4960203,15.3985915 25.066757,15.3854806 C24.183863,15.3585143 23.7877804,15.3585143 23.2847134,15.4046098 C22.6362849,15.5329651 22.0130672,15.9726719 21.9046193,16.5192052 C21.8718943,16.62304 21.8018311,16.7526599 21.6200051,17.043196 C21.5828171,17.1025999 21.5828171,17.1025999 21.5449237,17.1637845 C21.0156703,18.0232226 20.99508,18.6458244 21.812273,19.292989 C22.7425697,20.1141915 23.1502166,20.4720502 23.6112284,20.8703323 L23.5887713,20.285922 C22.6630138,21.2190102 22.6630138,21.2190102 21.7766501,22.1123926 C20.8902865,23.0057749 20.8902865,23.0057749 19.9645289,23.9388631 L20.5468492,23.9541699 C20.4127607,23.8040029 20.273585,23.6452717 20.1276336,23.4762973 C19.7603858,23.0511183 18.6831438,21.7624492 18.66229,21.7379271 L18.5386069,21.5924876 L18.3477454,21.5971796 C16.7029654,21.6376139 15.705723,22.196971 15.2701355,23.2429115 C14.951913,24.007033 14.9479753,24.794841 15.1238077,26.3307882 L15.5212121,25.8852941 L10.6363636,25.8852941 L11.0339551,26.3291239 C11.2102357,24.7300356 11.2026245,23.9628914 10.8637351,23.2038404 Z M10.1898452,26.6852941 L10.6363636,26.6852941 L15.5212121,26.6852941 L15.9696159,26.6852941 L15.9186166,26.2398 C15.7586813,24.8427187 15.7621822,24.1422996 16.0086524,23.5504708 C16.3106884,22.8252167 17.0149643,22.4301856 18.3674061,22.396938 L18.0528615,22.2561905 C18.0698259,22.2761391 19.149841,23.5681254 19.5222088,23.9992321 C19.670906,24.1713854 19.8129495,24.3333874 19.9501205,24.4870065 L20.23315,24.803974 L20.5324408,24.5023133 C21.4581984,23.5692251 21.4581984,23.5692251 22.344562,22.6758427 C23.2309256,21.7824604 23.2309256,21.7824604 24.1566832,20.8493721 L24.4585286,20.5451365 L24.1342262,20.2649619 C23.6760461,19.8691262 23.2695515,19.5122791 22.3251832,18.6794135 C21.8777942,18.3243953 21.8839271,18.1389507 22.22612,17.5832743 C22.2613683,17.5263594 22.2613683,17.5263594 22.2981508,17.4675995 C22.5193082,17.1142166 22.6107194,16.9451018 22.680348,16.7111687 C22.7219574,16.5104334 23.0764424,16.260329 23.4002556,16.1950536 C23.8176068,16.1591327 24.1918946,16.1591327 25.042334,16.1851077 C25.4797373,16.1984673 25.6750423,16.2029412 25.9212121,16.2029412 L26.3212121,16.2029412 L26.3212121,15.8029412 L26.3212121,10.9588235 L26.3212121,10.5588235 L25.9212121,10.5588235 C25.7306196,10.5588235 25.5761229,10.5543602 25.2482434,10.5414845 C25.0795199,10.5348428 25.0029598,10.5320104 24.9088224,10.5292198 C24.4856038,10.5166736 24.163808,10.5237245 23.8282092,10.5613086 C23.0998262,10.6175478 22.8909811,10.4616228 22.4123961,9.5772691 C21.9000692,8.60901218 22.0215009,8.09496065 22.8533323,7.46614691 C23.0075949,7.36323663 23.9126156,6.82421698 24.1139384,6.67202926 L24.4789886,6.39607362 L24.1566832,6.07121609 C23.4229658,5.33168866 22.766074,4.64906528 22.001214,3.83590661 C21.9071458,3.73584688 21.9071458,3.73584688 21.8131501,3.63567619 C21.6189148,3.42859236 21.4216533,3.21751775 21.1505189,2.92683929 C20.8126613,2.56449971 20.6292764,2.36784845 20.4620536,2.18876727 L20.1300053,1.83317232 L19.8453232,2.22770989 C19.5624726,2.61970913 19.2500315,3.03097896 18.8701334,3.51524287 C18.7228078,3.70304178 18.5721629,3.89325927 18.3720946,4.14457259 C18.1260756,4.45329128 17.9962834,4.6161945 17.8866942,4.7542657 L18.380016,4.6457378 C18.1629899,4.5363655 17.9268142,4.43925422 17.6330488,4.33364291 C17.4902553,4.2823074 17.0210656,4.12211824 17.0019932,4.11546396 C16.4326722,3.91683079 16.1762764,3.77423545 16.125681,3.65524471 C15.9322241,3.18721873 15.8794978,2.67213228 15.8715936,1.620523 C15.8711723,1.56253801 15.8711723,1.56253801 15.8707787,1.50436946 C15.8671816,0.972851903 15.8619395,0.737691933 15.8414236,0.448194541 L15.8150805,0.0764705882 L15.4424242,0.0764705882 L10.7151515,0.0764705882 L10.3151515,0.0764705882 L10.3151515,0.476470588 L10.3151515,3.97058824 L10.6245319,3.58098833 C10.3320777,3.64901219 10.0671417,3.73535557 9.627492,3.89569544 C8.66686961,4.24603361 8.36034842,4.31923095 8.08496726,4.22671035 C7.69664537,4.08422679 7.41714401,3.79256287 6.86550995,3.02717449 C6.58136237,2.63297057 6.45105746,2.46163101 6.28788052,2.2766033 L6.00506883,1.95592076 L5.70392285,2.25945138 C3.89477183,4.08292825 3.14485152,4.82618921 2.08891332,5.82397018 L1.77489204,6.12069631 L2.09488601,6.41097139 C3.2869235,7.49230042 3.78976359,7.93243518 4.32848587,8.33967632 L4.16981403,8.01091162 C4.13672317,9.37838044 3.74305481,10.0877851 3.01697272,10.3912274 C2.42231721,10.6397444 1.7214229,10.6432244 0.280881714,10.4818968 L-0.163636364,10.4321148 L-0.163636364,10.8794118 L-0.163636364,15.8029412 L-0.163636364,16.2671045 L0.295437197,16.198555 C2.97580636,15.7983189 3.97018494,16.2931018 4.09133431,18.9184389 L4.25719964,18.5753773 C3.96919945,18.7827207 2.61325459,19.8406126 2.48101287,19.94144 C2.29966816,20.0797058 2.13097328,20.2061429 1.96957843,20.3244504 L2.20606061,20.2470588 L1.59496509,20.5990539 L1.92210467,20.9287839 C2.36073511,21.3708877 2.77073273,21.792901 3.35219252,22.3980759 C3.401839,22.4497539 3.401839,22.4497539 3.45148367,22.5014527 C4.72601437,23.8288372 4.92929704,24.0392007 5.54634709,24.6611369 L5.87372512,24.9911072 L6.15120835,24.6181999 C6.45394544,24.2113541 7.74519173,22.5438443 7.96878158,22.2283398 L7.63305083,22.396949 C9.06919281,22.4306121 9.81581285,22.8190158 10.1332346,23.5299831 C10.3920363,24.1096521 10.3987857,24.7899388 10.2387722,26.2414644 L10.1898452,26.6852941 Z M13.0787879,19.4588235 C16.4524455,19.4588235 19.1515152,16.8168554 19.1515152,13.5 C19.2355991,10.1998461 16.4668636,7.38235294 13.1575758,7.38235294 C9.88387277,7.21260738 7.16363636,9.92776493 7.16363636,13.3411765 C7.16363636,16.7384488 9.78478309,19.4588235 13.0787879,19.4588235 Z M13.1369281,8.18181968 C16.0185044,8.18235294 18.4243821,10.6305984 18.3516445,13.4898275 C18.3515152,16.3711536 16.0144012,18.6588235 13.0787879,18.6588235 C10.2333987,18.6588235 7.96363636,16.3031354 7.96363636,13.3411765 C7.96363636,10.3769752 10.309325,8.03566616 13.1369281,8.18181968 Z M13.1441444,17.9497744 C15.6769372,17.95 17.7333333,15.931156 17.7333333,13.4205882 C17.7333333,10.8843838 15.7304088,8.81176471 13.2363636,8.81176471 C10.6943906,8.72613562 8.66060606,10.7760248 8.66060606,13.3411765 C8.66060606,15.9285043 10.5540733,17.8627551 13.1441444,17.9497744 Z M13.2229323,9.61153914 C15.2823421,9.61176471 16.9333333,11.3202044 16.9333333,13.4205882 C16.9333333,15.4859945 15.2383759,17.15 13.1575758,17.15 C11.0099084,17.0776185 9.46060606,15.4949456 9.46060606,13.3411765 C9.46060606,11.221034 11.1273103,9.54113193 13.2229323,9.61153914 Z" id="Shape" sketch:type="MSShapeGroup"></path>
            </g>
        </g>
    </g>
</svg>