<?xml version="1.0" encoding="UTF-8" standalone="no"?>
<svg width="32px" height="32px" viewBox="0 0 32 32" version="1.1" xmlns="http://www.w3.org/2000/svg" xmlns:xlink="http://www.w3.org/1999/xlink" xmlns:sketch="http://www.bohemiancoding.com/sketch/ns">
    <!-- Generator: Sketch 3.2.1 (9971) - http://www.bohemiancoding.com/sketch -->
    <title>inscripcion-descargar-documento</title>
    <desc>Created with Sketch.</desc>
    <defs></defs>
    <g id="Page-1" stroke="none" stroke-width="1" fill="none" fill-rule="evenodd" sketch:type="MSPage">
        <g id="Desktop" sketch:type="MSArtboardGroup" transform="translate(-841.000000, -310.000000)" fill="#979797">
            <g id="inscripcion-descargar-documento" sketch:type="MSLayerGroup" transform="translate(841.000000, 310.000000)">
                <path d="M30.4,31.1 L30.9,30.6 L1,30.6 L1.5,31.1 L1.5,1.2 L1,1.7 L6.6,1.7 L6.10000498,1.19776788 L6.00000498,23.5977679 L5.99776287,24.1 L6.5,24.1 L25.4,24.1 L25.9,24.1 L25.9,23.6 L25.9,1.2 L25.4,1.7 L30.9,1.7 L30.4,1.2 L30.4,31.1 Z M31.4,0.7 L30.9,0.7 L25.4,0.7 L24.9,0.7 L24.9,1.2 L24.9,23.6 L25.4,23.1 L6.5,23.1 L6.99999502,23.6022321 L7.09999502,1.20223212 L7.10223713,0.7 L6.6,0.7 L1,0.7 L0.5,0.7 L0.5,1.2 L0.5,31.1 L0.5,31.6 L1,31.6 L30.9,31.6 L31.4,31.6 L31.4,31.1 L31.4,1.2 L31.4,0.7 Z" id="Shape" sketch:type="MSShapeGroup"></path>
                <path d="M16.8,4.6 L15.8,4.6 L15.8,19.3 L16.8,19.3 L16.8,4.6 Z" id="Shape" sketch:type="MSShapeGroup"></path>
                <path d="M11.7,3.6 L11.7,4.6 L20.7,4.6 L20.7,3.6 L11.7,3.6 Z" id="Shape" sketch:type="MSShapeGroup"></path>
                <path d="M20.6280938,13.0583325 L19.7719062,12.5416675 L16.2719062,18.3416675 L17.1280938,18.8583325 L20.6280938,13.0583325 Z" id="Shape" sketch:type="MSShapeGroup"></path>
                <path d="M12.9124662,12.9173843 L12.0875338,13.4826157 L15.7875338,18.8826157 L16.6124662,18.3173843 L12.9124662,12.9173843 Z" id="Shape" sketch:type="MSShapeGroup"></path>
            </g>
        </g>
    </g>
</svg>