<?xml version="1.0" encoding="UTF-8" standalone="no"?>
<svg width="33px" height="32px" viewBox="0 0 33 32" version="1.1" xmlns="http://www.w3.org/2000/svg" xmlns:xlink="http://www.w3.org/1999/xlink" xmlns:sketch="http://www.bohemiancoding.com/sketch/ns">
    <!-- Generator: Sketch 3.2.1 (9971) - http://www.bohemiancoding.com/sketch -->
    <title>inscripcion-promedio</title>
    <desc>Created with Sketch.</desc>
    <defs></defs>
    <g id="Page-1" stroke="none" stroke-width="1" fill="none" fill-rule="evenodd" sketch:type="MSPage">
        <g id="Desktop" sketch:type="MSArtboardGroup" transform="translate(-840.000000, -373.000000)" fill="#979797">
            <g id="inscripcion-promedio" sketch:type="MSLayerGroup" transform="translate(840.000000, 373.000000)">
                <path d="M8.79997288,6.59479195 L8.3,7.1 L31.3,7.1 L31.8,7.1 L31.8,6.6 L31.8,1 L31.8,0.5 L31.3,0.5 L0.9,0.5 L0.4,0.5 L0.4,1 L0.4,31.4 L0.4,31.9 L0.9,31.9 L31.3,31.9 L31.8,31.9 L31.8,31.4 L31.8,25.8 L31.8,25.3 L31.3,25.3 L8.5,25.3 L8.99997288,25.7947919 L8.79997288,6.59479195 Z M8.00518121,26.3 L8.5,26.3 L31.3,26.3 L30.8,25.8 L30.8,31.4 L31.3,30.9 L0.9,30.9 L1.4,31.4 L1.4,1 L0.9,1.5 L31.3,1.5 L30.8,1 L30.8,6.6 L31.3,6.1 L8.3,6.1 L7.79476454,6.1 L7.80002712,6.60520805 L8.00002712,25.8052081 L8.00518121,26.3 Z" id="Path" sketch:type="MSShapeGroup"></path>
                <path d="M20.1906227,15.1310379 L20.1906227,14.270775 C21.0010193,14.1918133 21.5662105,14.0598661 21.8862133,13.8749294 C22.2062161,13.6899927 22.4451756,13.2525929 22.603099,12.5627168 L23.4882971,12.5627168 L23.4882971,21.4521 L22.2914096,21.4521 L22.2914096,15.1310379 L20.1906227,15.1310379 Z" id="Path" sketch:type="MSShapeGroup"></path>
                <path d="M27.6462344,19.176767 C27.7210402,19.8167725 28.0181812,20.2593671 28.5376662,20.5045641 C28.8036425,20.6292405 29.1111731,20.6915777 29.460267,20.6915777 C30.1252078,20.6915777 30.6176722,20.479631 30.937675,20.0557312 C31.2576778,19.6318315 31.4176768,19.1622241 31.4176768,18.6468949 C31.4176768,18.0235129 31.2275481,17.541438 30.8472851,17.2006559 C30.467022,16.8598737 30.010921,16.6894852 29.4789684,16.6894852 C29.0924715,16.6894852 28.761045,16.7642899 28.484679,16.9139016 C28.208313,17.0635132 27.9724703,17.2713041 27.7771439,17.5372805 L26.8046729,17.4811764 L27.4841559,12.674925 L32.1220949,12.674925 L32.1220949,13.7596043 L28.3257174,13.7596043 L27.9454562,16.2406523 C28.1532503,16.0827289 28.3506516,15.9642881 28.5376662,15.8853264 C28.8701366,15.7481823 29.2545498,15.6796113 29.6909172,15.6796113 C30.5096256,15.6796113 31.2036472,15.9435058 31.7730027,16.4713025 C32.3423583,16.9990993 32.6270318,17.668186 32.6270318,18.4785826 C32.6270318,19.3222263 32.3662543,20.0661177 31.8446913,20.7102791 C31.3231283,21.3544405 30.4909258,21.6765164 29.3480588,21.6765164 C28.6207798,21.6765164 27.977667,21.4718424 27.4187011,21.0624882 C26.8597352,20.653134 26.5470099,20.0245665 26.4805158,19.176767 L27.6462344,19.176767 Z" id="Path" sketch:type="MSShapeGroup"></path>
                <path d="M16.1,10 L15.1,10 L15.1,15.5 L16.1,15.5 L16.1,10 Z" id="Shape" sketch:type="MSShapeGroup"></path>
                <path d="M18.3,13.3 L18.3,12.3 L12.8,12.3 L12.8,13.3 L18.3,13.3 Z" id="Shape" sketch:type="MSShapeGroup"></path>
            </g>
        </g>
    </g>
</svg>