<?xml version="1.0" encoding="UTF-8" standalone="no"?>
<svg width="32px" height="32px" viewBox="0 0 32 32" version="1.1" xmlns="http://www.w3.org/2000/svg" xmlns:xlink="http://www.w3.org/1999/xlink" xmlns:sketch="http://www.bohemiancoding.com/sketch/ns">
    <!-- Generator: Sketch 3.2.1 (9971) - http://www.bohemiancoding.com/sketch -->
    <title>inscripcion-dni</title>
    <desc>Created with Sketch.</desc>
    <defs></defs>
    <g id="Page-1" stroke="none" stroke-width="1" fill="none" fill-rule="evenodd" sketch:type="MSPage">
        <g id="Desktop" sketch:type="MSArtboardGroup" transform="translate(-905.000000, -310.000000)" fill="#979797">
            <g id="inscripcion-dni" sketch:type="MSLayerGroup" transform="translate(905.000000, 310.000000)">
                <path d="M20.3,10 C20.3,7.73563253 18.4643675,5.9 16.2,5.9 C13.9356325,5.9 12.1,7.73563253 12.1,10 C12.1,12.2643675 13.9356325,14.1 16.2,14.1 C18.4643675,14.1 20.3,12.2643675 20.3,10 Z M13.1,10 C13.1,8.28791728 14.4879173,6.9 16.2,6.9 C17.9120827,6.9 19.3,8.28791728 19.3,10 C19.3,11.7120827 17.9120827,13.1 16.2,13.1 C14.4879173,13.1 13.1,11.7120827 13.1,10 Z" id="Oval" sketch:type="MSShapeGroup"></path>
                <path d="M0.3,31.4 L0.3,31.9 L0.8,31.9 L9.8,31.9 L10.3,31.9 L10.3,31.4 L10.3,20.5 C10.3,18.5761424 11.8761424,17 13.8,17 L15.3,17 L17.1,17 L19.1,17 C21.0238576,17 22.6,18.5761424 22.6,20.5 L22.6,31.4 L22.6,31.9 L23.1,31.9 L31.4,31.9 L31.9,31.9 L31.9,31.4 L31.9,0.8 L31.9,0.3 L31.4,0.3 L0.8,0.3 L0.3,0.3 L0.3,0.8 L0.3,31.4 Z M0.8,1.3 L31.4,1.3 L30.9,0.8 L30.9,31.4 L31.4,30.9 L23.1,30.9 L23.6,31.4 L23.6,20.5 C23.6,18.0238576 21.5761424,16 19.1,16 L17.1,16 L15.3,16 L13.8,16 C11.3238576,16 9.3,18.0238576 9.3,20.5 L9.3,31.4 L9.8,30.9 L0.8,30.9 L1.3,31.4 L1.3,0.8 L0.8,1.3 Z" id="Shape" sketch:type="MSShapeGroup"></path>
            </g>
        </g>
    </g>
</svg>