<?xml version="1.0" encoding="UTF-8" standalone="no"?>
<svg width="32px" height="31px" viewBox="0 0 32 31" version="1.1" xmlns="http://www.w3.org/2000/svg" xmlns:xlink="http://www.w3.org/1999/xlink" xmlns:sketch="http://www.bohemiancoding.com/sketch/ns">
    <!-- Generator: Sketch 3.2.1 (9971) - http://www.bohemiancoding.com/sketch -->
    <title>inscripcion-certificado</title>
    <desc>Created with Sketch.</desc>
    <defs></defs>
    <g id="Page-1" stroke="none" stroke-width="1" fill="none" fill-rule="evenodd" sketch:type="MSPage">
        <g id="Desktop" sketch:type="MSArtboardGroup" transform="translate(-777.000000, -311.000000)" fill="#979797">
            <g id="inscripcion-certificado" sketch:type="MSLayerGroup" transform="translate(777.000000, 311.000000)">
                <path d="M1.7,0.5 L1.2,1 L31.1,1 L30.6,0.5 L30.6,30.4 L31.1,29.9 L25.5,29.9 L25.999995,30.4022321 L26.099995,8.00223212 L26.1022371,7.5 L25.6,7.5 L6.7,7.5 L6.2,7.5 L6.2,8 L6.2,30.4 L6.7,29.9 L1.2,29.9 L1.7,30.4 L1.7,0.5 Z M0.7,30.9 L1.2,30.9 L6.7,30.9 L7.2,30.9 L7.2,30.4 L7.2,8 L6.7,8.5 L25.6,8.5 L25.100005,7.99776788 L25.000005,30.3977679 L24.9977629,30.9 L25.5,30.9 L31.1,30.9 L31.6,30.9 L31.6,30.4 L31.6,0.5 L31.6,1.11022302e-16 L31.1,1.11022302e-16 L1.2,1.11022302e-16 L0.7,0 L0.7,0.5 L0.7,30.4 L0.7,30.9 Z" id="Shape" sketch:type="MSShapeGroup"></path>
                <path d="M23.4,20.7 L23.4,19.7 L9.1,19.7 L9.1,20.7 L23.4,20.7 Z" id="Shape" sketch:type="MSShapeGroup"></path>
                <path d="M23.4,24.1 L23.4,23.1 L9.1,23.1 L9.1,24.1 L23.4,24.1 Z" id="Shape" sketch:type="MSShapeGroup"></path>
                <path d="M23.4,27.4 L23.4,26.4 L9.1,26.4 L9.1,27.4 L23.4,27.4 Z" id="Shape" sketch:type="MSShapeGroup"></path>
                <path d="M23.3,17.6 L23.3,16.6 L9.1,16.6 L9.1,17.6 L23.3,17.6 Z" id="Shape" sketch:type="MSShapeGroup"></path>
            </g>
        </g>
    </g>
</svg>