<?xml version="1.0" encoding="UTF-8" standalone="no"?>
<svg width="32px" height="32px" viewBox="0 0 32 32" version="1.1" xmlns="http://www.w3.org/2000/svg" xmlns:xlink="http://www.w3.org/1999/xlink" xmlns:sketch="http://www.bohemiancoding.com/sketch/ns">
    <!-- Generator: Sketch 3.2.1 (9971) - http://www.bohemiancoding.com/sketch -->
    <title>inscripcion-resolucion</title>
    <desc>Created with Sketch.</desc>
    <defs></defs>
    <g id="Page-1" stroke="none" stroke-width="1" fill="none" fill-rule="evenodd" sketch:type="MSPage">
        <g id="Desktop" sketch:type="MSArtboardGroup" transform="translate(-905.000000, -373.000000)" fill="#979797">
            <g id="inscripcion-resolucion" sketch:type="MSLayerGroup" transform="translate(905.000000, 373.000000)">
                <path d="M1.8,1.2 L1.3,1.7 L31.2,1.7 L30.7,1.2 L30.7,31.1 L31.2,30.6 L25.6,30.6 L26.099995,31.1022321 L26.199995,8.70223212 L26.2022371,8.2 L25.7,8.2 L6.8,8.2 L6.3,8.2 L6.3,8.7 L6.3,31.1 L6.8,30.6 L1.3,30.6 L1.8,31.1 L1.8,1.2 Z M0.8,31.6 L1.3,31.6 L6.8,31.6 L7.3,31.6 L7.3,31.1 L7.3,8.7 L6.8,9.2 L25.7,9.2 L25.200005,8.69776788 L25.100005,31.0977679 L25.0977629,31.6 L25.6,31.6 L31.2,31.6 L31.7,31.6 L31.7,31.1 L31.7,1.2 L31.7,0.7 L31.2,0.7 L1.3,0.7 L0.8,0.7 L0.8,1.2 L0.8,31.1 L0.8,31.6 Z" id="Shape" sketch:type="MSShapeGroup"></path>
                <path d="M23.5,21.4 L23.5,20.4 L9.2,20.4 L9.2,21.4 L23.5,21.4 Z" id="Shape" sketch:type="MSShapeGroup"></path>
                <path d="M23.5,24.7 L23.5,23.7 L9.2,23.7 L9.2,24.7 L23.5,24.7 Z" id="Shape" sketch:type="MSShapeGroup"></path>
                <path d="M23.5,28 L23.5,27 L9.2,27 L9.2,28 L23.5,28 Z" id="Shape" sketch:type="MSShapeGroup"></path>
                <path d="M23.7,14.8 C23.7,12.9774603 22.2225397,11.5 20.4,11.5 C18.5774603,11.5 17.1,12.9774603 17.1,14.8 C17.1,16.6225397 18.5774603,18.1 20.4,18.1 C22.2225397,18.1 23.7,16.6225397 23.7,14.8 Z M18.1,14.8 C18.1,13.5297451 19.1297451,12.5 20.4,12.5 C21.6702549,12.5 22.7,13.5297451 22.7,14.8 C22.7,16.0702549 21.6702549,17.1 20.4,17.1 C19.1297451,17.1 18.1,16.0702549 18.1,14.8 Z" id="Oval" sketch:type="MSShapeGroup"></path>
            </g>
        </g>
    </g>
</svg>