<?xml version="1.0" encoding="UTF-8" standalone="no"?>
<svg width="23px" height="30px" viewBox="0 0 23 30" version="1.1" xmlns="http://www.w3.org/2000/svg" xmlns:xlink="http://www.w3.org/1999/xlink" xmlns:sketch="http://www.bohemiancoding.com/sketch/ns">
    <!-- Generator: Sketch 3.2 (9961) - http://www.bohemiancoding.com/sketch -->
    <title>Group</title>
    <desc>Created with Sketch.</desc>
    <defs></defs>
    <g id="Page-1" stroke="none" stroke-width="1" fill="none" fill-rule="evenodd" sketch:type="MSPage">
        <g id="Desktop" sketch:type="MSArtboardGroup" transform="translate(-607.000000, -533.000000)" fill="#666666">
            <g id="Group" sketch:type="MSLayerGroup" transform="translate(607.000000, 533.000000)">
                <path d="M6.55767196,28 L6.55767196,29.244084 L7.4412254,28.3682539 L12.1555111,23.695177 L11.4254413,23.695177 L16.139727,28.3682539 L17.0232804,29.244084 L17.0232804,28 L17.0232804,17.9269231 L15.9862434,17.9269231 L15.9862434,28 L16.8697968,27.6317461 L12.1555111,22.9586691 L11.7904762,22.5968251 L11.4254413,22.9586691 L6.71115555,27.6317461 L7.59470899,28 L7.59470899,17.9269231 L6.55767196,17.9269231 L6.55767196,28 Z" id="Shape" sketch:type="MSShapeGroup"></path>
                <path d="M19.6033584,8.65733993 L19.7847903,9.35504529 L21.2514569,6.75889145 L21.6094267,6.12524742 L20.8936184,5.99384904 L18.0650469,5.47461827 L18.4899471,5.98461538 L18.4899471,2.97307692 L18.4899471,2.2873107 L17.8301329,2.47418115 L14.8967996,3.30495038 L15.5112327,3.59170848 L14.2540898,0.787862331 L13.9555725,0.122069579 L13.4250028,0.622957104 L11.2250028,2.69988018 L11.9280664,2.69173055 L9.62330453,0.61480747 L9.0764416,0.122005045 L8.79659875,0.80288777 L7.6442178,3.60673392 L8.26510518,3.30495038 L5.33177185,2.47418115 L4.67195767,2.2873107 L4.67195767,2.97307692 L4.67195767,5.98461538 L5.09685784,5.47461827 L2.26828641,5.99384904 L1.55247808,6.12524742 L1.91044784,6.75889145 L3.37711451,9.35504529 L3.53061095,8.67564047 L1.01632523,10.4410251 L0.368548097,10.8958564 L1.04426069,11.3080447 L3.76807021,12.9695831 L3.58663832,12.2718778 L2.11997165,14.8680316 L1.76200189,15.5016757 L2.47781022,15.633074 L5.30638165,16.1523048 L4.88148148,15.6423077 L4.88148148,18.6538462 L4.88148148,19.3396124 L5.54129566,19.1527419 L8.47462899,18.3219727 L7.85374161,18.0201892 L9.00612256,20.8240353 L9.27854123,21.4868543 L9.82292187,21.0208171 L12.1276838,19.0477402 L11.4532686,19.0477402 L13.7580305,21.0208171 L14.3024112,21.4868543 L14.5748298,20.8240353 L15.7272108,18.0201892 L15.1063234,18.3219727 L18.0396567,19.1527419 L18.6994709,19.3396124 L18.6994709,18.6538462 L18.6994709,15.6423077 L18.2745707,16.1523048 L21.1031422,15.633074 L21.8189505,15.5016757 L21.4609807,14.8680316 L19.9943141,12.2718778 L19.8408176,12.9512826 L22.3551033,11.185898 L23.0028805,10.7310667 L22.3271679,10.3188784 L19.6033584,8.65733993 Z M21.7591824,10.3371789 L19.2448967,12.1025636 L18.8601819,12.3726878 L19.0914002,12.7819684 L20.5580669,15.3781222 L20.9159055,14.6130798 L18.087334,15.1323106 L17.6624339,15.210308 L17.6624339,15.6423077 L17.6624339,18.6538462 L18.322248,18.1549504 L15.3889147,17.3241812 L14.9438651,17.1981356 L14.7680273,17.6259647 L13.6156464,20.4298108 L14.4324457,20.2330291 L12.1276838,18.2599521 L11.7904762,17.9712731 L11.4532686,18.2599521 L9.1485067,20.2330291 L9.96530601,20.4298108 L8.81292506,17.6259647 L8.63708729,17.1981356 L8.19203768,17.3241812 L5.25870434,18.1549504 L5.91851852,18.6538462 L5.91851852,15.6423077 L5.91851852,15.210308 L5.49361835,15.1323106 L2.66504692,14.6130798 L3.02288549,15.3781222 L4.48955216,12.7819684 L4.73619238,12.3453893 L4.30812026,12.084263 L1.58431074,10.4227245 L1.61224619,11.2897441 L4.12653191,9.52435953 L4.51124663,9.25423531 L4.28002835,8.84495471 L2.81336168,6.24880086 L2.45552311,7.01384327 L5.28409454,6.4946125 L5.70899471,6.41661509 L5.70899471,5.98461538 L5.70899471,2.97307692 L5.04918053,3.4719727 L7.98251387,4.30274193 L8.42756348,4.42878744 L8.60340125,4.00095838 L9.7557822,1.19711223 L8.92907642,1.38519253 L11.2338383,3.46211561 L11.5891286,3.78228345 L11.936902,3.45396597 L14.136902,1.3770429 L13.3078149,1.21213767 L14.5649578,4.01598382 L14.7482746,4.42484129 L15.1793909,4.30274193 L18.1127242,3.4719727 L17.4529101,2.97307692 L17.4529101,5.98461538 L17.4529101,6.41661509 L17.8778102,6.4946125 L20.7063816,7.01384327 L20.3485431,6.24880086 L18.8818764,8.84495471 L18.6352362,9.28153378 L19.0633083,9.54266007 L21.7871178,11.2041985 L21.7591824,10.3371789 Z M6.65151563,10.8467149 C6.74720467,8.13334044 8.94450834,5.98390313 11.6857143,5.98390313 C14.4120785,5.98390313 16.624025,8.11881413 16.7199129,10.7802082 C16.6242239,13.4935826 14.4269202,15.6430199 11.6857143,15.6430199 C8.9593501,15.6430199 6.7474036,13.5081089 6.65151563,10.8467149 Z M17.7563003,10.7795652 C17.6402955,7.52375946 14.9704183,4.9468661 11.6857143,4.9468661 C8.38285674,4.9468661 5.73011756,7.54181763 5.61512827,10.8473579 C5.73113305,14.1031636 8.40101026,16.680057 11.6857143,16.680057 C14.9885718,16.680057 17.641311,14.0851054 17.7563003,10.7795652 Z" id="Shape" sketch:type="MSShapeGroup"></path>
            </g>
        </g>
    </g>
</svg>