<?xml version="1.0" encoding="UTF-8" standalone="no"?>
<svg width="23px" height="27px" viewBox="0 0 23 27" version="1.1" xmlns="http://www.w3.org/2000/svg" xmlns:xlink="http://www.w3.org/1999/xlink" xmlns:sketch="http://www.bohemiancoding.com/sketch/ns">
    <!-- Generator: Sketch 3.2 (9961) - http://www.bohemiancoding.com/sketch -->
    <title>Group</title>
    <desc>Created with Sketch.</desc>
    <defs></defs>
    <g id="Page-1" stroke="none" stroke-width="1" fill="none" fill-rule="evenodd" sketch:type="MSPage">
        <g id="Desktop" sketch:type="MSArtboardGroup" transform="translate(-515.000000, -533.000000)" fill="#666666">
            <g id="Group" sketch:type="MSLayerGroup" transform="translate(515.000000, 533.000000)">
                <path d="M22.3714286,18.4705185 L21.8529101,17.952 L21.8529101,21.488 L22.3714286,20.9694815 L19.4380952,20.9694815 L14.4095238,20.9694815 L13.8910053,20.9694815 L13.8910053,21.488 L13.8910053,25.44 L14.9280423,25.44 L14.9280423,21.488 L14.4095238,22.0065185 L19.4380952,22.0065185 L22.3714286,22.0065185 L22.8899471,22.0065185 L22.8899471,21.488 L22.8899471,17.952 L22.8899471,17.4334815 L22.3714286,17.4334815 L16.6095238,17.4334815 L16.6095238,18.4705185 L22.3714286,18.4705185 Z" id="Shape" sketch:type="MSShapeGroup"></path>
                <path d="M7.39047619,25.3374815 L7.90451431,25.7879834 L4.65689527,1.24398338 L4.14285714,1.83051852 L6.97142857,1.83051852 L6.52886597,1.58218474 L19.1002945,22.1741847 L19.9854197,21.6338153 L7.41399118,1.04181526 L7.26238325,0.793481481 L6.97142857,0.793481481 L4.14285714,0.793481481 L3.55120972,0.793481481 L3.62881902,1.38001662 L6.87643807,25.9240166 L6.93604769,26.3745185 L7.39047619,26.3745185 L21.952381,26.3745185 L21.952381,25.3374815 L7.39047619,25.3374815 Z" id="Shape" sketch:type="MSShapeGroup"></path>
                <path d="M17.0285714,10.5665185 L16.5100529,10.048 L16.5100529,15.352 L17.0285714,14.8334815 L15.7714286,14.8334815 L15.7714286,15.8705185 L17.0285714,15.8705185 L17.5470899,15.8705185 L17.5470899,15.352 L17.5470899,10.048 L17.5470899,9.52948148 L17.0285714,9.52948148 L13.047619,9.52948148 L13.047619,10.5665185 L17.0285714,10.5665185 Z" id="Shape" sketch:type="MSShapeGroup"></path>
                <path d="M13.5714286,8.79851852 L14.0899471,8.79851852 L14.0899471,8.28 L14.0899471,3.08 L14.0899471,2.56148148 L13.5714286,2.56148148 L8.64761905,2.56148148 L8.64761905,3.59851852 L13.5714286,3.59851852 L13.0529101,3.08 L13.0529101,8.28 L13.5714286,7.76148148 L11.2666667,7.76148148 L11.2666667,8.79851852 L13.5714286,8.79851852 Z" id="Shape" sketch:type="MSShapeGroup"></path>
                <path d="M1.93262234,1.34456851 L0.905472896,1.48743149 L4.36261575,26.3434315 L5.3897652,26.2005685 L1.93262234,1.34456851 Z" id="Shape" sketch:type="MSShapeGroup"></path>
            </g>
        </g>
    </g>
</svg>