<?xml version="1.0" encoding="UTF-8" standalone="no"?>
<svg width="25px" height="25px" viewBox="0 0 25 25" version="1.1" xmlns="http://www.w3.org/2000/svg" xmlns:xlink="http://www.w3.org/1999/xlink" xmlns:sketch="http://www.bohemiancoding.com/sketch/ns">
    <!-- Generator: Sketch 3.2 (9961) - http://www.bohemiancoding.com/sketch -->
    <title>Group</title>
    <desc>Created with Sketch.</desc>
    <defs></defs>
    <g id="Page-1" stroke="none" stroke-width="1" fill="none" fill-rule="evenodd" sketch:type="MSPage">
        <g id="Desktop" sketch:type="MSArtboardGroup" transform="translate(-789.000000, -537.000000)" fill="#666666">
            <g id="Group" sketch:type="MSLayerGroup" transform="translate(789.000000, 537.000000)">
                <path d="M21.714474,15.8101262 L22.081122,15.4434783 L21.714474,15.0768303 L7.31447405,0.6768303 L6.94782609,0.31018234 L6.58117813,0.6768303 L1.05074334,6.20726508 L0.684095383,6.57391304 L1.05074334,6.940561 L17.9550912,23.8449088 L18.3217391,24.2115568 L18.6883871,23.8449088 L24.2188219,18.314474 L23.485526,17.5811781 L17.9550912,23.1116129 L18.6883871,23.1116129 L1.78403926,6.20726508 L1.78403926,6.940561 L7.31447405,1.41012622 L6.58117813,1.41012622 L20.9811781,15.8101262 L20.9811781,15.0768303 L17.1203086,18.9376999 L17.8536045,19.6709958 L21.714474,15.8101262 Z" id="Shape" sketch:type="MSShapeGroup"></path>
                <path d="M9.81882187,3.81012622 L9.08552595,3.0768303 L5.22465639,6.93769987 L5.95795231,7.67099579 L9.81882187,3.81012622 Z" id="Shape" sketch:type="MSShapeGroup"></path>
                <path d="M15.7615915,9.86728784 L15.0384085,9.12401651 L11.177539,12.8805382 L11.9007219,13.6238096 L15.7615915,9.86728784 Z" id="Shape" sketch:type="MSShapeGroup"></path>
                <path d="M22.966648,8.61012622 L23.3332959,8.24347826 L22.966648,7.8768303 L17.0188219,1.92900421 L17.0188219,2.66230013 L17.4362132,2.24490883 C18.9032843,0.77783769 21.1836722,0.77783769 22.6507433,2.24490883 C23.3603901,2.95455559 23.7510467,3.95561311 23.7510467,5.00869565 L24.7880837,5.00869565 C24.7880837,3.68786515 24.2938708,2.42144441 23.3840393,1.51161291 C21.51198,-0.360446386 18.5749766,-0.360446386 16.7029173,1.51161291 L16.285526,1.92900421 L15.918878,2.29565217 L16.285526,2.66230013 L22.233352,8.61012622 L22.233352,7.8768303 L14.1985694,15.9116129 L14.9318654,16.6449088 L22.966648,8.61012622 Z" id="Shape" sketch:type="MSShapeGroup"></path>
                <path d="M2.83052164,15.2797531 L2.67278583,15.4325596 L2.67278583,15.6521739 L2.67278583,21.7043478 L2.67278583,22.2228663 L3.19130435,22.2228663 L9.13913043,22.2228663 L9.35390784,22.2228663 L9.5057784,22.0709958 L12.4275175,19.1492567 L11.6942216,18.4159607 L8.77248247,21.3376999 L9.13913043,21.1858293 L3.19130435,21.1858293 L3.70982287,21.7043478 L3.70982287,15.6521739 L3.55208705,16.0245948 L6.89121749,12.7898122 L6.16965208,12.0449704 L2.83052164,15.2797531 Z" id="Shape" sketch:type="MSShapeGroup"></path>
                <path d="M15.2449088,3.70291726 L14.881329,3.33933743 L14.5147068,3.69984924 L8.25383726,9.85637097 L8.98094535,10.5958029 L15.2418149,4.4392812 L14.5116129,4.43621318 L20.459439,10.3840393 L21.1927349,9.65074334 L15.2449088,3.70291726 Z" id="Shape" sketch:type="MSShapeGroup"></path>
                <path d="M3.52345173,20.8798408 L4.12015917,21.4765483 L4.32885482,20.2243744 L3.45074334,20.5057784 L4.4942216,21.5492567 L4.77562565,20.6711452 L3.52345173,20.8798408 Z M5.93998393,21.5284271 L5.22751753,20.8159607 L4.18403926,19.7724825 L3.47157286,19.0600161 L3.30592779,20.0538865 L3.09723214,21.3060604 L2.97789065,22.0221094 L3.69393957,21.9027679 L4.94611348,21.6940722 L5.93998393,21.5284271 Z" id="Shape" sketch:type="MSShapeGroup"></path>
            </g>
        </g>
    </g>
</svg>