<?xml version="1.0" encoding="UTF-8" standalone="no"?>
<svg width="17px" height="29px" viewBox="0 0 17 29" version="1.1" xmlns="http://www.w3.org/2000/svg" xmlns:xlink="http://www.w3.org/1999/xlink" xmlns:sketch="http://www.bohemiancoding.com/sketch/ns">
    <!-- Generator: Sketch 3.2 (9961) - http://www.bohemiancoding.com/sketch -->
    <title>Group</title>
    <desc>Created with Sketch.</desc>
    <defs></defs>
    <g id="Page-1" stroke="none" stroke-width="1" fill="none" fill-rule="evenodd" sketch:type="MSPage">
        <g id="Desktop" sketch:type="MSArtboardGroup" transform="translate(-327.000000, -533.000000)" fill="#666666">
            <g id="Group" sketch:type="MSLayerGroup" transform="translate(328.000000, 533.000000)">
                <path d="M7.13251014,4.28866794 L6.80701553,4.95110627 L9.91415839,3.91406923 L9.260347,3.59281354 L12.3674899,12.5113321 L13.3467959,12.1701494 L10.239653,3.25163091 L10.0712833,2.76835466 L9.58584161,2.93037522 L6.47869876,3.96741225 L5.9803619,4.13373668 L6.15320415,4.62985058 L9.260347,13.5483691 L10.239653,13.2071865 L7.13251014,4.28866794 Z" id="Shape" sketch:type="MSShapeGroup"></path>
                <path d="M2.6957672,14.3111111 C2.6957672,17.2976311 5.07449018,19.6 8.14285714,19.6 L8.30922609,19.5725852 L14.7377975,17.3948074 L14.4050596,16.4126 L7.97648819,18.5903778 L8.14285714,18.562963 C5.63979554,18.562963 3.73280423,16.7171837 3.73280423,14.3111111 C3.73280423,11.9945219 5.76208891,10.0592593 8.25,10.0592593 L8.25,9.02222222 C5.20006461,9.02222222 2.6957672,11.410489 2.6957672,14.3111111 Z" id="Shape" sketch:type="MSShapeGroup"></path>
                <path d="M-0.197089947,15.8666667 C-0.197089947,20.680149 3.61160832,24.9925926 8.25,24.9925926 L14.6785714,24.9925926 L14.1600529,24.4740741 L14.1600529,27.5851852 L14.6785714,27.0666667 L7.17857143,27.0666667 L7.17857143,28.1037037 L14.6785714,28.1037037 L15.1970899,28.1037037 L15.1970899,27.5851852 L15.1970899,24.4740741 L15.1970899,23.9555556 L14.6785714,23.9555556 L8.25,23.9555556 C4.21500459,23.9555556 0.83994709,20.1341068 0.83994709,15.8666667 C0.83994709,11.9147377 4.23796723,8.0619702 8.07421347,7.77634655 L7.9972151,6.74217197 C3.60777288,7.06898324 -0.197089947,11.3830401 -0.197089947,15.8666667 Z" id="Shape" sketch:type="MSShapeGroup"></path>
                <path d="M8.3994194,3.99635008 L9.38629489,3.67772399 L8.31486632,0.359205471 L7.32799083,0.677831566 L8.3994194,3.99635008 Z" id="Shape" sketch:type="MSShapeGroup"></path>
                <path d="M6.90423884,4.52908828 L7.88147545,4.18202283 L6.70290402,0.863504309 L5.72566741,1.21056977 L6.90423884,4.52908828 Z" id="Shape" sketch:type="MSShapeGroup"></path>
            </g>
        </g>
    </g>
</svg>