<?xml version="1.0" encoding="UTF-8" standalone="no"?>
<svg width="22px" height="25px" viewBox="0 0 22 25" version="1.1" xmlns="http://www.w3.org/2000/svg" xmlns:xlink="http://www.w3.org/1999/xlink" xmlns:sketch="http://www.bohemiancoding.com/sketch/ns">
    <!-- Generator: Sketch 3.2 (9961) - http://www.bohemiancoding.com/sketch -->
    <title>Group</title>
    <desc>Created with Sketch.</desc>
    <defs></defs>
    <g id="Page-1" stroke="none" stroke-width="1" fill="none" fill-rule="evenodd" sketch:type="MSPage">
        <g id="Desktop" sketch:type="MSArtboardGroup" transform="translate(-424.000000, -538.000000)" fill="#666666">
            <g id="Group" sketch:type="MSLayerGroup" transform="translate(424.000000, 538.000000)">
                <path d="M10.5278483,8.34061582 L10.8937946,8.34123545 L0.708794642,4.48036588 L0.00648148148,4.21413717 L0.00648148148,4.96521739 L0.00648148148,20.3043478 L0.00648148148,20.6609958 L0.339534668,20.7885627 L10.4195347,24.6494323 L10.605,24.6837359 L10.71,24.6837359 L10.831725,24.6837359 L10.9407341,24.6295699 L11.1507341,24.525222 L21.1854653,20.6842149 L21.5185185,20.5566479 L21.5185185,20.2 L21.5185185,4.96521739 L21.5185185,4.21685061 L20.8178483,4.47974626 L10.5278483,8.34061582 Z M20.4814815,4.96521739 L20.4814815,20.2 L20.8145347,19.7157851 L10.7345347,23.5766547 L10.4792659,23.7008649 L10.71,24.1652174 L10.71,23.6466989 L10.605,23.6466989 L10.605,24.1652174 L10.7904653,23.6810025 L0.710465332,19.8201329 L1.04351852,20.3043478 L1.04351852,4.96521739 L0.341205358,5.4500689 L10.5262054,9.31093846 L10.7090617,9.38025455 L10.8921517,9.31155809 L21.1821517,5.45068853 L20.4814815,4.96521739 Z" id="Shape" sketch:type="MSShapeGroup"></path>
                <path d="M8.33005248,16.3055048 L8.67994752,15.3292778 L2.27494752,13.0336256 L1.92505248,14.0098527 L8.33005248,16.3055048 Z" id="Shape" sketch:type="MSShapeGroup"></path>
                <path d="M8.33005248,19.6446353 L8.67994752,18.6684082 L2.27494752,16.372756 L1.92505248,17.3489831 L8.33005248,19.6446353 Z" id="Shape" sketch:type="MSShapeGroup"></path>
                <path d="M12.5395834,11.4650965 L12.8704166,12.447947 L19.3804166,10.2566427 L19.0495834,9.27379213 L12.5395834,11.4650965 Z" id="Shape" sketch:type="MSShapeGroup"></path>
                <path d="M12.5325599,15.3283863 L12.8774401,16.3063963 L19.3874401,14.0107441 L19.0425599,13.0327342 L12.5325599,15.3283863 Z" id="Shape" sketch:type="MSShapeGroup"></path>
                <path d="M12.5325599,18.6675168 L12.8774401,19.6455267 L19.3874401,17.3498745 L19.0425599,16.3718646 L12.5325599,18.6675168 Z" id="Shape" sketch:type="MSShapeGroup"></path>
                <path d="M2.21148148,10.7043478 L2.21148148,11.5882378 L2.98300741,11.15695 L4.66300741,10.2178195 L4.02225787,10.1094811 L5.59725787,11.8833941 L6.50351852,12.9041101 L6.50351852,11.5391304 L6.50351852,7.05217391 L5.46648148,7.05217391 L5.46648148,11.5391304 L6.37274213,11.1948667 L4.79774213,9.4209537 L4.52092414,9.10917525 L4.15699259,9.31261524 L2.47699259,10.2517457 L3.24851852,10.7043478 L3.24851852,5.69565217 L2.21148148,5.69565217 L2.21148148,10.7043478 Z" id="Shape" sketch:type="MSShapeGroup"></path>
                <path d="M9.98148148,23.7478261 L11.0185185,23.7478261 L11.0185185,8.82608696 L9.98148148,8.82608696 L9.98148148,23.7478261 Z" id="Shape" sketch:type="MSShapeGroup"></path>
                <path d="M10.6746656,0.511785502 L10.4954175,0.447657017 L10.3172582,0.514750698 L0.34225819,4.27127244 L0.70774181,5.24177104 L10.6827418,1.4852493 L10.3253344,1.4882145 L20.8253344,5.24473624 L21.1746656,4.26830724 L10.6746656,0.511785502 Z" id="Shape" sketch:type="MSShapeGroup"></path>
            </g>
        </g>
    </g>
</svg>