<?xml version="1.0" encoding="UTF-8" standalone="no"?>
<svg width="23px" height="26px" viewBox="0 0 23 26" version="1.1" xmlns="http://www.w3.org/2000/svg" xmlns:xlink="http://www.w3.org/1999/xlink" xmlns:sketch="http://www.bohemiancoding.com/sketch/ns">
    <!-- Generator: Sketch 3.2 (9961) - http://www.bohemiancoding.com/sketch -->
    <title>Group</title>
    <desc>Created with Sketch.</desc>
    <defs></defs>
    <g id="Page-1" stroke="none" stroke-width="1" fill="none" fill-rule="evenodd" sketch:type="MSPage">
        <g id="Desktop" sketch:type="MSArtboardGroup" transform="translate(-699.000000, -534.000000)" fill="#666666">
            <g id="Group" sketch:type="MSLayerGroup" transform="translate(699.000000, 534.000000)">
                <path d="M13.4613757,7.04166667 C13.4613757,3.53297229 10.6019716,0.689814815 7.07619048,0.689814815 C3.55040938,0.689814815 0.691005291,3.53297229 0.691005291,7.04166667 C0.691005291,10.550361 3.55040938,13.3935185 7.07619048,13.3935185 C10.6019716,13.3935185 13.4613757,10.550361 13.4613757,7.04166667 Z M1.72804233,7.04166667 C1.72804233,4.10703897 4.12183051,1.72685185 7.07619048,1.72685185 C10.0305504,1.72685185 12.4243386,4.10703897 12.4243386,7.04166667 C12.4243386,9.97629437 10.0305504,12.3564815 7.07619048,12.3564815 C4.12183051,12.3564815 1.72804233,9.97629437 1.72804233,7.04166667 Z" id="Oval" sketch:type="MSShapeGroup"></path>
                <path d="M8.22328042,6 C8.22328042,4.73496242 7.19311293,3.71064815 5.92380952,3.71064815 C4.65450612,3.71064815 3.62433862,4.73496242 3.62433862,6 C3.62433862,7.26503758 4.65450612,8.28935185 5.92380952,8.28935185 C7.19311293,8.28935185 8.22328042,7.26503758 8.22328042,6 Z M4.66137566,6 C4.66137566,5.3090291 5.22592725,4.74768519 5.92380952,4.74768519 C6.6216918,4.74768519 7.18624339,5.3090291 7.18624339,6 C7.18624339,6.6909709 6.6216918,7.25231481 5.92380952,7.25231481 C5.22592725,7.25231481 4.66137566,6.6909709 4.66137566,6 Z" id="Oval" sketch:type="MSShapeGroup"></path>
                <path d="M22.2153505,20.9510244 L22.9465543,20.2156423 L12.5751257,9.90314228 L11.8439219,10.6385244 L22.2153505,20.9510244 Z" id="Shape" sketch:type="MSShapeGroup"></path>
                <path d="M20.0134503,22.6157918 L20.0153505,21.882309 L17.0820172,24.7989756 L17.8088705,24.7947005 L13.3041086,20.4197005 L13.308459,21.1593577 L14.5656019,19.9093577 L13.8343981,19.1739756 L12.5772552,20.4239756 L12.2030872,20.7960177 L12.5816057,21.1636328 L17.0863676,25.5386328 L17.4518948,25.8936309 L17.8132209,25.5343577 L20.7465543,22.617691 L21.1144353,22.2519002 L20.7484545,21.8842082 L10.6913116,11.7800415 L9.9563074,12.5116251 L20.0134503,22.6157918 Z" id="Shape" sketch:type="MSShapeGroup"></path>
                <path d="M14.8820172,22.6114756 L15.6132209,23.3468577 L16.66084,22.305191 L15.9296362,21.569809 L14.8820172,22.6114756 Z" id="Shape" sketch:type="MSShapeGroup"></path>
            </g>
        </g>
    </g>
</svg>