<?xml version="1.0" encoding="UTF-8" standalone="no"?>
<svg width="20px" height="27px" viewBox="0 0 20 27" version="1.1" xmlns="http://www.w3.org/2000/svg" xmlns:xlink="http://www.w3.org/1999/xlink" xmlns:sketch="http://www.bohemiancoding.com/sketch/ns">
    <!-- Generator: Sketch 3.2 (9961) - http://www.bohemiancoding.com/sketch -->
    <title>Group</title>
    <desc>Created with Sketch.</desc>
    <defs></defs>
    <g id="Page-1" stroke="none" stroke-width="1" fill="none" fill-rule="evenodd" sketch:type="MSPage">
        <g id="Desktop" sketch:type="MSArtboardGroup" transform="translate(-417.000000, -404.000000)" fill="#666666">
            <g id="Group" sketch:type="MSLayerGroup" transform="translate(417.000000, 404.000000)">
                <path d="M6.95625,13.4666667 C6.825,13.7333333 6.69375,13.8666667 6.5625,14.1333333 C6.43125,14.2666667 6.16875,14.4 5.90625,14.5333333 C5.64375,14.6666667 5.38125,14.6666667 5.11875,14.6666667 L3.675,14.6666667 L3.675,17.2 L2.75625,17.2 L2.75625,10.6666667 L5.11875,10.6666667 C5.38125,10.6666667 5.64375,10.6666667 5.90625,10.8 C6.16875,10.9333333 6.3,11.0666667 6.5625,11.3333333 C6.69375,11.4666667 6.825,11.7333333 6.95625,12 C7.0875,12.2666667 7.0875,12.5333333 7.0875,12.8 C7.0875,12.9333333 6.95625,13.2 6.95625,13.4666667 L6.95625,13.4666667 Z M5.775,11.8666667 C5.64375,11.7333333 5.38125,11.6 4.9875,11.6 L3.675,11.6 L3.675,13.7333333 L4.9875,13.7333333 C5.38125,13.7333333 5.64375,13.6 5.775,13.4666667 C6.0375,13.3333333 6.0375,13.0666667 6.0375,12.6666667 C6.16875,12.2666667 6.0375,12 5.775,11.8666667 L5.775,11.8666667 Z" id="Shape" sketch:type="MSShapeGroup"></path>
                <path d="M12.6,14.5333333 L12.6,15.2 C12.6,15.4666667 12.46875,15.6 12.46875,15.8666667 C12.3375,16.1333333 12.20625,16.2666667 12.075,16.4 C11.8125,16.6666667 11.68125,16.8 11.41875,16.8 C11.15625,16.9333333 10.89375,16.9333333 10.5,16.9333333 L8.26875,16.9333333 L8.26875,10.6666667 L10.5,10.6666667 C10.7625,10.6666667 11.15625,10.6666667 11.41875,10.8 C11.55,10.9333333 11.8125,11.0666667 11.94375,11.3333333 C12.075,11.4666667 12.20625,11.7333333 12.3375,11.8666667 C12.46875,12 12.46875,12.2666667 12.46875,12.5333333 L12.46875,13.2 L12.46875,13.8666667 C12.46875,14.1333333 12.6,14.2666667 12.6,14.5333333 L12.6,14.5333333 Z M11.68125,12.6666667 C11.68125,12.4 11.55,12.1333333 11.41875,12 C11.025,11.7333333 10.7625,11.6 10.2375,11.6 L9.1875,11.6 L9.1875,16.1333333 L10.36875,16.1333333 C10.7625,16.1333333 11.15625,16 11.41875,15.7333333 C11.55,15.6 11.68125,15.3333333 11.68125,14.9333333 L11.68125,13.7333333 L11.68125,12.6666667 L11.68125,12.6666667 Z" id="Shape" sketch:type="MSShapeGroup"></path>
                <path d="M14.9625,11.6 L14.9625,13.4666667 L17.5875,13.4666667 L17.5875,14.2666667 L14.9625,14.2666667 L14.9625,16.9333333 L14.04375,16.9333333 L14.04375,10.6666667 L17.98125,10.6666667 L17.98125,11.4666667 L14.9625,11.4666667 L14.9625,11.6 Z" id="Shape" sketch:type="MSShapeGroup"></path>
                <path d="M1.05,25.4666667 L1.70625,26.1333333 L1.70625,1.33333333 L1.05,2 L14.9625,2 L14.4984612,1.80473785 L18.6984612,6.07140452 L18.50625,5.6 L18.50625,26.1333333 L19.1625,25.4666667 L1.05,25.4666667 Z M19.81875,26.8 L19.81875,26.1333333 L19.81875,5.6 L19.81875,5.32385763 L19.6265388,5.12859548 L15.4265388,0.861928813 L15.2343277,0.666666667 L14.9625,0.666666667 L1.05,0.666666667 L0.39375,0.666666667 L0.39375,1.33333333 L0.39375,26.1333333 L0.39375,26.8 L1.05,26.8 L19.1625,26.8 L19.81875,26.8 Z" id="Shape" sketch:type="MSShapeGroup"></path>
                <path d="M13.65,6 L13.65,6.66666667 L14.30625,6.66666667 L19.1625,6.66666667 L19.1625,5.33333333 L14.30625,5.33333333 L14.9625,6 L14.9625,1.33333333 L13.65,1.33333333 L13.65,6 Z" id="Shape" sketch:type="MSShapeGroup"></path>
            </g>
        </g>
    </g>
</svg>