<?xml version="1.0" encoding="UTF-8" standalone="no"?>
<svg width="27px" height="28px" viewBox="0 0 27 28" version="1.1" xmlns="http://www.w3.org/2000/svg" xmlns:xlink="http://www.w3.org/1999/xlink" xmlns:sketch="http://www.bohemiancoding.com/sketch/ns">
    <!-- Generator: Sketch 3.2 (9961) - http://www.bohemiancoding.com/sketch -->
    <title>Group</title>
    <desc>Created with Sketch.</desc>
    <defs></defs>
    <g id="Page-1" stroke="none" stroke-width="1" fill="none" fill-rule="evenodd" sketch:type="MSPage">
        <g id="Desktop" sketch:type="MSArtboardGroup" transform="translate(-531.000000, -404.000000)" fill="#666666">
            <g id="Group" sketch:type="MSLayerGroup" transform="translate(531.000000, 404.000000)">
                <path d="M13.5,0.381818182 C6.02790698,0.381818182 0,6.49090909 0,14.0636364 C0,21.6363636 6.02790698,27.7454545 13.5,27.7454545 C20.972093,27.7454545 27,21.5727273 27,14.0636364 C27,6.55454545 20.9093023,0.381818182 13.5,0.381818182 L13.5,0.381818182 Z M13.5,26.4090909 C6.71860465,26.4090909 1.25581395,20.8727273 1.25581395,14.0636364 C1.25581395,7.25454545 6.71860465,1.65454545 13.5,1.65454545 C20.2813953,1.65454545 25.744186,7.19090909 25.744186,14.0636364 C25.744186,20.9363636 20.2186047,26.4090909 13.5,26.4090909 L13.5,26.4090909 Z" id="Shape" sketch:type="MSShapeGroup"></path>
                <path d="M11.9930233,21.5727273 L11.9930233,7.31818182 L19.0255814,14.3818182 L11.9930233,21.5727273 Z" id="Shape" sketch:type="MSShapeGroup"></path>
            </g>
        </g>
    </g>
</svg>