<?xml version="1.0" encoding="UTF-8" standalone="no"?>
<svg width="28px" height="28px" viewBox="0 0 28 28" version="1.1" xmlns="http://www.w3.org/2000/svg" xmlns:xlink="http://www.w3.org/1999/xlink" xmlns:sketch="http://www.bohemiancoding.com/sketch/ns">
    <!-- Generator: Sketch 3.2 (9961) - http://www.bohemiancoding.com/sketch -->
    <title>Group</title>
    <desc>Created with Sketch.</desc>
    <defs></defs>
    <g id="Page-1" stroke="none" stroke-width="1" fill="none" fill-rule="evenodd" sketch:type="MSPage">
        <g id="Desktop" sketch:type="MSArtboardGroup" transform="translate(-388.000000, -950.000000)" fill="#666666">
            <g id="Group" sketch:type="MSLayerGroup" transform="translate(388.000000, 950.000000)">
                <path d="M9.08042366,20.7579212 L9.29564224,19.9809138 L7.13288362,20.5216035 L7.70032239,21.0577166 L8.13287411,18.78682 L7.35021677,19.0277143 L9.08042366,20.7579212 Z M7.38648035,17.7536725 L7.22271209,18.6134558 L6.79016037,20.8843524 L6.65456581,21.5962238 L7.35759914,21.4204655 L9.52035776,20.8797759 L10.3141385,20.6813307 L9.73557634,20.1027685 L8.00536944,18.3725616 L7.38648035,17.7536725 Z" id="Shape" sketch:type="MSShapeGroup"></path>
                <path d="M9.18056789,14.2676136 L9.02704165,14.5468856 L22.4361451,1.57033385 L23.3963498,0.641103448 L22.0601379,0.641103448 L0.756965517,0.641103448 L0.216275862,0.641103448 L0.216275862,1.1817931 L0.216275862,27.0267586 L0.216275862,27.5674483 L0.756965517,27.5674483 L26.710069,27.5674483 L27.2507586,27.5674483 L27.2507586,27.0267586 L27.2507586,6.69682759 L27.2507586,5.39148729 L26.3277436,6.31450226 L13.5674678,19.0747781 L13.8307003,18.9296926 L7.1261486,20.4436236 L7.77477479,21.0803033 L9.18056789,14.2676136 Z M6.5462091,21.6831833 L7.36433415,21.4984453 L14.0688859,19.9845143 L14.2214924,19.9500548 L14.3321184,19.8394288 L27.0923943,7.07915291 L26.1693793,6.69682759 L26.1693793,27.0267586 L26.710069,26.486069 L0.756965517,26.486069 L1.29765517,27.0267586 L1.29765517,1.1817931 L0.756965517,1.72248276 L22.0601379,1.72248276 L21.6841308,0.793252359 L8.27502731,13.7698041 L8.15519996,13.885766 L8.12150107,14.049076 L6.71570797,20.8617657 L6.5462091,21.6831833 Z" id="Shape" sketch:type="MSShapeGroup"></path>
                <path d="M27.0376453,1.7256453 L26.3824926,1.07049263 L12.1082857,15.3446995 L12.7634384,15.9998522 L27.0376453,1.7256453 Z" id="Shape" sketch:type="MSShapeGroup"></path>
            </g>
        </g>
    </g>
</svg>